<?xml version="1.0" encoding="UTF-8" standalone="no"?>
<!-- Created with Inkscape (http://www.inkscape.org/) -->

<svg
   xmlns:dc="http://purl.org/dc/elements/1.1/"
   xmlns:cc="http://creativecommons.org/ns#"
   xmlns:rdf="http://www.w3.org/1999/02/22-rdf-syntax-ns#"
   xmlns:svg="http://www.w3.org/2000/svg"
   xmlns="http://www.w3.org/2000/svg"
   xmlns:sodipodi="http://sodipodi.sourceforge.net/DTD/sodipodi-0.dtd"
   xmlns:inkscape="http://www.inkscape.org/namespaces/inkscape"
   width="512"
   height="512"
   id="svg2"
   version="1.1"
   inkscape:version="0.48.4 r9939"
   sodipodi:docname="lpi-bug.svg">
  <defs
     id="defs4" />
  <sodipodi:namedview
     id="base"
     pagecolor="#ffffff"
     bordercolor="#666666"
     borderopacity="1.0"
     inkscape:pageopacity="0.0"
     inkscape:pageshadow="2"
     inkscape:zoom="0.98994948"
     inkscape:cx="421.4474"
     inkscape:cy="239.99749"
     inkscape:document-units="px"
     inkscape:current-layer="layer1"
     showgrid="false"
     inkscape:window-width="1309"
     inkscape:window-height="750"
     inkscape:window-x="55"
     inkscape:window-y="-3"
     inkscape:window-maximized="1" />
  <metadata
     id="metadata7">
    <rdf:RDF>
      <cc:Work
         rdf:about="">
        <dc:format>image/svg+xml</dc:format>
        <dc:type
           rdf:resource="http://purl.org/dc/dcmitype/StillImage" />
        <dc:title />
      </cc:Work>
    </rdf:RDF>
  </metadata>
  <g
     inkscape:label="Layer 1"
     inkscape:groupmode="layer"
     id="layer1"
     transform="translate(0,-540.36218)">
    <path
       style="fill:#fff8eb;fill-rule:evenodd;stroke:none"
       d="M 256 6 C 117.92881 6 6 117.92881 6 256 C 6 394.07119 117.92881 506 256 506 C 394.07119 506 506 394.07119 506 256 C 506 117.92881 394.07119 6 256 6 z M 187.1875 76.28125 C 198.03316 76.05146 209.08672 80.6323 217.34375 89.65625 C 224.68391 97.67815 229.88781 108.90341 232.34375 123.21875 C 239.70217 121.73479 247.41385 120.9375 255.375 120.9375 C 263.9204 120.9375 272.19087 121.86087 280.03125 123.5625 C 282.46449 109.09216 287.66762 97.73797 295.0625 89.65625 C 303.06148 80.9143 313.70121 76.34845 324.21875 76.28125 C 324.55803 76.27905 324.87982 76.27425 325.21875 76.28125 C 346.91007 76.74083 366.61 94.98366 371.125 122.09375 A 9.8253795 9.8253795 0 1 1 351.75 125.3125 C 348.4877 105.72451 335.56577 96.16533 324.8125 95.9375 C 319.43586 95.82358 314.31059 97.68299 309.53125 102.90625 C 304.92433 107.94107 300.75725 116.4775 299 129.5625 C 327.15524 141.47419 346.25 164.53796 346.25 191.0625 C 346.25 229.78523 305.55888 261.1875 255.375 261.1875 C 205.19116 261.1875 164.5 229.78523 164.5 191.0625 C 164.5 164.03771 184.3127 140.57917 213.34375 128.875 C 211.53673 116.154 207.40598 107.85807 202.875 102.90625 C 198.09566 97.683 192.97039 95.79233 187.59375 95.90625 C 176.84049 96.13408 163.94968 105.72451 160.6875 125.3125 A 9.8217488 9.8217488 0 1 1 141.3125 122.09375 C 145.82758 94.98366 165.49618 76.74083 187.1875 76.28125 z M 121.28125 185.8125 C 130.67148 185.7568 140.2827 191.81485 145.375 202 L 158.84375 228.96875 C 158.92595 228.93105 159.01125 228.88135 159.09375 228.84375 C 177.50592 262.47925 208.25174 270.03913 244 275.65625 L 244 435.1875 C 209.99155 439.17069 177.96806 420.33135 154.6875 392.3125 L 139.625 406.09375 C 128.42916 416.3493 112.33935 416.89415 103.5625 407.3125 C 94.785558 397.73097 96.741587 381.75555 107.9375 371.5 L 129.78125 351.5 C 125.75863 342.12902 122.65577 332.51059 120.625 322.9375 L 101.75 322.9375 C 86.567014 322.9375 74.34375 312.49386 74.34375 299.5 C 74.34375 286.50615 86.567014 276.03125 101.75 276.03125 L 120.28125 276.03125 C 121.24809 271.99279 122.5174 268.06737 124.09375 264.3125 L 103.40625 222.96875 C 96.616523 209.38852 100.53408 193.77954 112.15625 187.96875 C 115.06183 186.51606 118.15118 185.83104 121.28125 185.8125 z M 390.71875 185.8125 C 393.84883 185.83104 396.93818 186.51606 399.84375 187.96875 C 411.46592 193.77954 415.38347 209.38852 408.59375 222.96875 L 387.90625 264.3125 C 389.4826 268.06737 390.75192 271.99279 391.71875 276.03125 L 410.25 276.03125 C 425.43298 276.03125 437.65625 286.50615 437.65625 299.5 C 437.65625 312.49386 425.43298 322.9375 410.25 322.9375 L 391.375 322.9375 C 389.34422 332.51059 386.24138 342.12902 382.21875 351.5 L 404.0625 371.5 C 415.25841 381.75555 417.21444 397.73097 408.4375 407.3125 C 399.66064 416.89415 383.57083 416.3493 372.375 406.09375 L 357.3125 392.3125 C 334.03195 420.33135 302.00845 439.17069 268 435.1875 L 268 275.65625 C 303.74825 270.03913 334.49408 262.47925 352.90625 228.84375 C 352.98874 228.88135 353.07405 228.93105 353.15625 228.96875 L 366.625 202 C 371.7173 191.81485 381.32853 185.7568 390.71875 185.8125 z "
       transform="translate(0,540.36218)"
       id="path2985" />
  </g>
</svg>
