<svg xmlns="http://www.w3.org/2000/svg" xmlns:xlink="http://www.w3.org/1999/xlink" width="512" height="512">
 <defs>
  <linearGradient gradientTransform="scale(1.0058652,0.994169)" gradientUnits="userSpaceOnUse" id="0" y2="7.01654" x2="0" y1="92.5396">
   <stop/>
   <stop offset="1" stop-opacity="0.588235"/>
  </linearGradient>
  <filter color-interpolation-filters="sRGB">
   <feGaussianBlur stdDeviation="1.71"/>
  </filter>
  <linearGradient gradientUnits="userSpaceOnUse" xlink:href="#1" y2="138.66119" x2="0" y1="20.220806"/>
  <linearGradient id="1">
   <stop stop-color="#fff"/>
   <stop offset="1" stop-color="#fff" stop-opacity="0"/>
  </linearGradient>
  <clipPath>
   <rect y="6" x="6" rx="6" height="84" width="84" fill="#fff"/>
  </clipPath>
  <filter color-interpolation-filters="sRGB" height="1.384" width="1.384" y="-0.192" x="-0.192">
   <feGaussianBlur stdDeviation="5.28"/>
  </filter>
  <linearGradient xlink:href="#0" gradientUnits="userSpaceOnUse" gradientTransform="scale(1.0058652,0.994169)" y1="92.5396" x2="0" y2="7.01654"/>
 </defs>
 <g transform="translate(0,-540.36217)">
  <path transform="matrix(2.8965518,0,0,2.8965518,-389.51728,82.982812)" d="m 305.71429 246.28572 a 82.85714 82.85714 0 1 1 -165.71428 0 82.85714 82.85714 0 1 1 165.71428 0 z" fill="#0078ad" fill-rule="evenodd"/>
  <text y="1003.4096" x="-304.75095" font-family="Gentium Book Basic" word-spacing="0" line-height="125%" letter-spacing="0" font-size="208.33333"><tspan y="1003.4096" x="-304.75095"/>
  </text>
  <text transform="scale(4.0128362,0.2492003)" font-size="75.69771" y="3463.6289" x="241.78181" font-family="Arial" text-anchor="middle"/>
  <g transform="matrix(2.2727262,0,0,2.2727273,-2270.6585,-995.71862)">
   <path d="m 1111.7303 678.51554 c -60.7514 0 -110.0001 49.24868 -110.0001 110 0 60.75132 49.2487 110 110.0001 110 60.7513 0 110 -49.24868 110 -110 0 -60.75132 -49.2487 -110 -110 -110 z m 0 19.21875 c 50.1513 0 90.8125 40.62987 90.8125 90.78125 0 50.15138 -40.6612 90.8125 -90.8125 90.8125 -50.1514 0 -90.8126 -40.66112 -90.8126 -90.8125 0 -50.15138 40.6612 -90.78125 90.8126 -90.78125 z" fill="#fff8eb" fill-rule="evenodd"/>
   <rect y="713.88824" x="1103.1587" height="77.85714" width="17.14286" fill="#fff8eb" fill-rule="evenodd" color="#000" rx="8.571428"/>
   <rect transform="matrix(-0.53080806,0.84749206,-0.84749206,-0.53080806,0,0)" width="17.14286" height="77.85714" x="65.25082" y="-1427.7313" fill="#fff8eb" fill-rule="evenodd" color="#000" rx="8.571428"/>
  </g>
 </g>
</svg>
