<svg xmlns="http://www.w3.org/2000/svg" xmlns:xlink="http://www.w3.org/1999/xlink" width="512" height="512">
 <defs>
  <linearGradient y2="7.01654" x2="0" y1="92.5396" gradientTransform="scale(1.0058652,0.994169)" gradientUnits="userSpaceOnUse" xlink:href="#1"/>
  <filter x="-0.192" y="-0.192" width="1.384" height="1.384" color-interpolation-filters="sRGB">
   <feGaussianBlur stdDeviation="5.28"/>
  </filter>
  <clipPath>
   <rect width="84" height="84" rx="6" x="6" y="6" fill="#fff"/>
  </clipPath>
  <linearGradient id="0">
   <stop stop-color="#fff"/>
   <stop offset="1" stop-color="#fff" stop-opacity="0"/>
  </linearGradient>
  <linearGradient y1="20.220806" x2="0" y2="138.66119" xlink:href="#0" gradientUnits="userSpaceOnUse"/>
  <filter color-interpolation-filters="sRGB">
   <feGaussianBlur stdDeviation="1.71"/>
  </filter>
  <linearGradient y1="92.5396" x2="0" y2="7.01654" id="1" gradientUnits="userSpaceOnUse" gradientTransform="scale(1.0058652,0.994169)">
   <stop/>
   <stop offset="1" stop-opacity="0.588235"/>
  </linearGradient>
  <linearGradient gradientUnits="userSpaceOnUse" xlink:href="#0" y2="138.66119" x2="0" y1="20.220806"/>
  <clipPath>
   <rect y="6" x="6" rx="6" height="84" width="84" fill="#fff"/>
  </clipPath>
  <linearGradient xlink:href="#1" gradientUnits="userSpaceOnUse" gradientTransform="scale(1.0058652,0.994169)" y1="92.5396" x2="0" y2="7.01654"/>
 </defs>
 <g transform="translate(0,-540.36217)">
  <path d="m 256 546.36217 c -91.41816 0 -171.34078 49.10766 -214.9375 122.34374 -22.248524 37.37427 -35.0625 81.00323 -35.0625 127.65625 0 138.07118 111.92881 250.00004 250 250.00004 138.0712 0 250 -111.92886 250 -250.00004 0 -46.65302 -12.81398 -90.28198 -35.0625 -127.65625 C 427.34078 595.46983 347.41816 546.36217 256 546.36217 z" fill="#0078ad" fill-rule="evenodd"/>
  <text y="1089.8812" x="-1160.4812" font-family="Gentium Book Basic" word-spacing="0" line-height="125%" letter-spacing="0" font-size="208.33333"><tspan y="1089.8812" x="-1160.4812"/>
  </text>
  <text transform="scale(4.0128362,0.2492003)" font-size="75.69771" y="3810.6255" x="28.533577" font-family="Arial" text-anchor="middle"/>
  <text y="934.24939" x="-454.14005" font-family="Gentium Book Basic" word-spacing="0" line-height="125%" letter-spacing="0" font-size="208.33333"><tspan y="934.24939" x="-454.14005"/>
  </text>
  <text transform="scale(4.0128362,0.2492003)" font-size="75.69771" y="3186.1006" x="204.55402" font-family="Arial" text-anchor="middle"/>
  <text y="917.30981" x="-630.76691" word-spacing="0" line-height="125%" letter-spacing="0" font-size="208.33333" font-family="Gentium Book Basic"><tspan y="917.30981" x="-630.76691"/>
  </text>
  <text transform="scale(4.0128362,0.2492003)" font-size="75.69771" y="3118.1245" x="160.53853" font-family="Arial" text-anchor="middle"/>
  <text y="917.30981" x="-630.76691" word-spacing="0" line-height="125%" letter-spacing="0" font-size="208.33333" font-family="Gentium Book Basic"><tspan y="917.30981" x="-630.76691"/>
  </text>
  <text transform="scale(4.0128362,0.2492003)" font-size="75.69771" y="3118.1245" x="160.53853" font-family="Arial" text-anchor="middle"/>
  <text y="669.93994" x="1121.0161" word-spacing="0" line-height="125%" letter-spacing="0" font-size="35.076" font-family="Gentium Book Basic"><tspan y="669.93994" x="1121.0161"/>
  </text>
  <text transform="scale(4.0128363,0.2492003)" font-size="12.744829" y="2593.5889" x="332.85141" font-family="Arial" text-anchor="middle"/>
  <text y="643.73706" x="1239.9391" word-spacing="0" line-height="125%" letter-spacing="0" font-size="35.076" font-family="Gentium Book Basic"><tspan y="643.73706" x="1239.9391"/>
  </text>
  <text transform="scale(4.0128363,0.2492003)" font-size="12.744829" y="2488.4409" x="362.48706" font-family="Arial" text-anchor="middle"/>
  <text y="642.36938" x="1245.558" word-spacing="0" line-height="125%" letter-spacing="0" font-size="35.076" font-family="Gentium Book Basic"><tspan y="642.36938" x="1245.558"/>
  </text>
  <text transform="scale(4.0128363,0.2492003)" font-size="12.744829" y="2482.9524" x="363.88727" font-family="Arial" text-anchor="middle"/>
  <text y="597.17334" x="1288.7972" word-spacing="0" line-height="125%" letter-spacing="0" font-size="10.356067" font-family="Gentium Book Basic"><tspan y="597.17334" x="1288.7972"/>
  </text>
  <text transform="scale(4.0128363,0.2492003)" font-size="3.762866" y="2368.3784" x="336.96252" font-family="Arial" text-anchor="middle"/>
  <text y="658.92407" x="1236.4631" word-spacing="0" line-height="125%" letter-spacing="0" font-size="35.076" font-family="Gentium Book Basic"><tspan y="658.92407" x="1236.4631"/>
  </text>
  <text transform="scale(4.0128363,0.2492003)" font-size="12.744829" y="2549.384" x="361.62085" font-family="Arial" text-anchor="middle"/>
  <text y="632.72119" x="1355.3862" word-spacing="0" line-height="125%" letter-spacing="0" font-size="35.076" font-family="Gentium Book Basic"><tspan y="632.72119" x="1355.3862"/>
  </text>
  <text transform="scale(4.0128363,0.2492003)" font-size="12.744829" y="2444.2361" x="391.25647" font-family="Arial" text-anchor="middle"/>
  <text y="631.35352" x="1361.005" word-spacing="0" line-height="125%" letter-spacing="0" font-size="35.076" font-family="Gentium Book Basic"><tspan y="631.35352" x="1361.005"/>
  </text>
  <text transform="scale(4.0128363,0.2492003)" font-size="12.744829" y="2438.7476" x="392.65671" font-family="Arial" text-anchor="middle"/>
  <text y="663.2486" x="1121.5192" word-spacing="0" line-height="125%" letter-spacing="0" font-size="35.076" font-family="Gentium Book Basic"><tspan y="663.2486" x="1121.5192"/>
  </text>
  <text transform="scale(4.0128363,0.2492003)" font-size="12.744829" y="2566.7373" x="332.97675" font-family="Arial" text-anchor="middle"/>
  <text y="637.04565" x="1240.4421" word-spacing="0" line-height="125%" letter-spacing="0" font-size="35.076" font-family="Gentium Book Basic"><tspan y="637.04565" x="1240.4421"/>
  </text>
  <text transform="scale(4.0128363,0.2492003)" font-size="12.744829" y="2461.5894" x="362.6124" font-family="Arial" text-anchor="middle"/>
  <text y="635.67804" x="1246.061" word-spacing="0" line-height="125%" letter-spacing="0" font-size="35.076" font-family="Gentium Book Basic"><tspan y="635.67804" x="1246.061"/>
  </text>
  <text transform="scale(4.0128363,0.2492003)" font-size="12.744829" y="2456.1011" x="364.01263" font-family="Arial" text-anchor="middle"/>
  <text y="-92.52846" x="1249.3788" transform="matrix(0.8660254,0.5,-0.5,0.8660254,0,0)" word-spacing="0" line-height="125%" letter-spacing="0" font-size="35.076" font-family="Gentium Book Basic"><tspan y="-92.52846" x="1249.3788"/>
  </text>
  <text transform="matrix(3.4752182,2.006418,-0.12460015,0.21581379,0,0)" font-size="12.744829" y="-466.07224" x="364.83945" font-family="Arial" text-anchor="middle"/>
  <text y="-118.73141" x="1368.3019" transform="matrix(0.8660254,0.5,-0.5,0.8660254,0,0)" word-spacing="0" line-height="125%" letter-spacing="0" font-size="35.076" font-family="Gentium Book Basic"><tspan y="-118.73141" x="1368.3019"/>
  </text>
  <text transform="matrix(3.4752182,2.006418,-0.12460015,0.21581379,0,0)" font-size="12.744829" y="-571.22021" x="394.4751" font-family="Arial" text-anchor="middle"/>
  <text y="-120.09902" x="1373.9207" transform="matrix(0.8660254,0.5,-0.5,0.8660254,0,0)" word-spacing="0" line-height="125%" letter-spacing="0" font-size="35.076" font-family="Gentium Book Basic"><tspan y="-120.09902" x="1373.9207"/>
  </text>
  <text transform="matrix(3.4752182,2.006418,-0.12460015,0.21581379,0,0)" font-size="12.744829" y="-576.7085" x="395.87531" font-family="Arial" text-anchor="middle"/>
  <text y="-165.29507" x="1417.1599" transform="matrix(0.8660254,0.5,-0.5,0.8660254,0,0)" word-spacing="0" line-height="125%" letter-spacing="0" font-size="10.356067" font-family="Gentium Book Basic"><tspan y="-165.29507" x="1417.1599"/>
  </text>
  <text transform="matrix(3.4752182,2.006418,-0.12460015,0.21581379,0,0)" font-size="3.762866" y="-691.28271" x="368.95056" font-family="Arial" text-anchor="middle"/>
  <text y="787.11804" x="1095.7488" word-spacing="0" line-height="125%" letter-spacing="0" font-size="99.81908" font-family="Gentium Book Basic"><tspan y="787.11804" x="1095.7488"/>
  </text>
  <text transform="scale(4.012836,0.24920031)" font-size="36.26916" y="2888.8774" x="425.29346" font-family="Arial" text-anchor="middle"/>
  <text y="619.90515" x="1943.9258" word-spacing="0" line-height="125%" letter-spacing="0" font-size="99.81908" font-family="Gentium Book Basic"><tspan y="619.90515" x="1943.9258"/>
  </text>
  <text transform="scale(4.012836,0.24920031)" font-size="36.26916" y="2217.8799" x="636.65942" font-family="Arial" text-anchor="middle"/>
  <text y="558.10846" x="2392.9192" word-spacing="0" line-height="125%" letter-spacing="0" font-size="99.81908" font-family="Gentium Book Basic"><tspan y="558.10846" x="2392.9192"/>
  </text>
  <text transform="scale(4.012836,0.24920031)" font-size="36.26916" y="1969.8998" x="748.54871" font-family="Arial" text-anchor="middle"/>
  <text y="705.05695" x="1285.0579" word-spacing="0" line-height="125%" letter-spacing="0" font-size="99.81908" font-family="Gentium Book Basic"><tspan y="705.05695" x="1285.0579"/>
  </text>
  <text transform="scale(4.012836,0.24920031)" font-size="36.26916" y="2559.5801" x="472.46933" font-family="Arial" text-anchor="middle"/>
  <text y="537.84406" x="2133.2349" word-spacing="0" line-height="125%" letter-spacing="0" font-size="99.81908" font-family="Gentium Book Basic"><tspan y="537.84406" x="2133.2349"/>
  </text>
  <text transform="scale(4.012836,0.24920031)" font-size="36.26916" y="1888.5822" x="683.83527" font-family="Arial" text-anchor="middle"/>
  <text y="476.04742" x="2582.2283" word-spacing="0" line-height="125%" letter-spacing="0" font-size="99.81908" font-family="Gentium Book Basic"><tspan y="476.04742" x="2582.2283"/>
  </text>
  <text transform="scale(4.012836,0.24920031)" font-size="36.26916" y="1640.6024" x="795.72455" font-family="Arial" text-anchor="middle"/>
  <text y="562.02142" x="1999.9934" word-spacing="0" line-height="125%" letter-spacing="0" font-size="99.81908" font-family="Gentium Book Basic"><tspan y="562.02142" x="1999.9934"/>
  </text>
  <text transform="scale(4.012836,0.24920031)" font-size="36.26916" y="1985.6019" x="650.63147" font-family="Arial" text-anchor="middle"/>
  <text y="500.22473" x="2448.9871" word-spacing="0" line-height="125%" letter-spacing="0" font-size="99.81908" font-family="Gentium Book Basic"><tspan y="500.22473" x="2448.9871"/>
  </text>
  <text transform="scale(4.012836,0.24920031)" font-size="36.26916" y="1737.6219" x="762.52081" font-family="Arial" text-anchor="middle"/>
  <text y="285.31454" x="1046.2666" word-spacing="0" line-height="125%" letter-spacing="0" font-size="35.076" font-family="Gentium Book Basic"><tspan y="285.31454" x="1046.2666"/>
  </text>
  <text transform="scale(4.0128363,0.2492003)" font-size="12.744829" y="1050.1499" x="314.22382" font-family="Arial" text-anchor="middle"/>
  <text y="259.11166" x="1165.1896" word-spacing="0" line-height="125%" letter-spacing="0" font-size="35.076" font-family="Gentium Book Basic"><tspan y="259.11166" x="1165.1896"/>
  </text>
  <text transform="scale(4.0128363,0.2492003)" font-size="12.744829" y="945.00183" x="343.85947" font-family="Arial" text-anchor="middle"/>
  <text y="257.74396" x="1170.8085" word-spacing="0" line-height="125%" letter-spacing="0" font-size="35.076" font-family="Gentium Book Basic"><tspan y="257.74396" x="1170.8085"/>
  </text>
  <text transform="scale(4.0128363,0.2492003)" font-size="12.744829" y="939.51355" x="345.25967" font-family="Arial" text-anchor="middle"/>
  <text y="212.5479" x="1214.0477" word-spacing="0" line-height="125%" letter-spacing="0" font-size="10.356067" font-family="Gentium Book Basic"><tspan y="212.5479" x="1214.0477"/>
  </text>
  <text transform="scale(4.0128363,0.2492003)" font-size="3.762866" y="824.93945" x="318.3349" font-family="Arial" text-anchor="middle"/>
  <text y="274.29868" x="1161.7136" word-spacing="0" line-height="125%" letter-spacing="0" font-size="35.076" font-family="Gentium Book Basic"><tspan y="274.29868" x="1161.7136"/>
  </text>
  <text transform="scale(4.0128363,0.2492003)" font-size="12.744829" y="1005.9451" x="342.99323" font-family="Arial" text-anchor="middle"/>
  <text y="248.09572" x="1280.6366" word-spacing="0" line-height="125%" letter-spacing="0" font-size="35.076" font-family="Gentium Book Basic"><tspan y="248.09572" x="1280.6366"/>
  </text>
  <text transform="scale(4.0128363,0.2492003)" font-size="12.744829" y="900.79712" x="372.62888" font-family="Arial" text-anchor="middle"/>
  <text y="246.72807" x="1286.2555" word-spacing="0" line-height="125%" letter-spacing="0" font-size="35.076" font-family="Gentium Book Basic"><tspan y="246.72807" x="1286.2555"/>
  </text>
  <text transform="scale(4.0128363,0.2492003)" font-size="12.744829" y="895.30872" x="374.02911" font-family="Arial" text-anchor="middle"/>
  <text y="278.62317" x="1046.7697" word-spacing="0" line-height="125%" letter-spacing="0" font-size="35.076" font-family="Gentium Book Basic"><tspan y="278.62317" x="1046.7697"/>
  </text>
  <text transform="scale(4.0128363,0.2492003)" font-size="12.744829" y="1023.2985" x="314.34915" font-family="Arial" text-anchor="middle"/>
  <text y="252.42021" x="1165.6926" word-spacing="0" line-height="125%" letter-spacing="0" font-size="35.076" font-family="Gentium Book Basic"><tspan y="252.42021" x="1165.6926"/>
  </text>
  <text transform="scale(4.0128363,0.2492003)" font-size="12.744829" y="918.15039" x="343.9848" font-family="Arial" text-anchor="middle"/>
  <text y="251.05257" x="1171.3115" word-spacing="0" line-height="125%" letter-spacing="0" font-size="35.076" font-family="Gentium Book Basic"><tspan y="251.05257" x="1171.3115"/>
  </text>
  <text transform="scale(4.0128363,0.2492003)" font-size="12.744829" y="912.66199" x="345.38501" font-family="Arial" text-anchor="middle"/>
  <text y="-388.24908" x="992.33118" transform="matrix(0.8660254,0.5,-0.5,0.8660254,0,0)" word-spacing="0" line-height="125%" letter-spacing="0" font-size="35.076" font-family="Gentium Book Basic"><tspan y="-388.24908" x="992.33118"/>
  </text>
  <text transform="matrix(3.4752182,2.006418,-0.12460015,0.21581379,0,0)" font-size="12.744829" y="-1652.7507" x="300.78308" font-family="Arial" text-anchor="middle"/>
  <text y="-414.45203" x="1111.2542" transform="matrix(0.8660254,0.5,-0.5,0.8660254,0,0)" word-spacing="0" line-height="125%" letter-spacing="0" font-size="35.076" font-family="Gentium Book Basic"><tspan y="-414.45203" x="1111.2542"/>
  </text>
  <text transform="matrix(3.4752182,2.006418,-0.12460015,0.21581379,0,0)" font-size="12.744829" y="-1757.8986" x="330.4187" font-family="Arial" text-anchor="middle"/>
  <text y="-415.81967" x="1116.873" transform="matrix(0.8660254,0.5,-0.5,0.8660254,0,0)" word-spacing="0" line-height="125%" letter-spacing="0" font-size="35.076" font-family="Gentium Book Basic"><tspan y="-415.81967" x="1116.873"/>
  </text>
  <text transform="matrix(3.4752182,2.006418,-0.12460015,0.21581379,0,0)" font-size="12.744829" y="-1763.387" x="331.81894" font-family="Arial" text-anchor="middle"/>
  <text y="-461.01569" x="1160.1122" transform="matrix(0.8660254,0.5,-0.5,0.8660254,0,0)" word-spacing="0" line-height="125%" letter-spacing="0" font-size="10.356067" font-family="Gentium Book Basic"><tspan y="-461.01569" x="1160.1122"/>
  </text>
  <text transform="matrix(3.4752182,2.006418,-0.12460015,0.21581379,0,0)" font-size="3.762866" y="-1877.9612" x="304.89417" font-family="Arial" text-anchor="middle"/>
  <text y="402.49261" x="1020.9993" word-spacing="0" line-height="125%" letter-spacing="0" font-size="99.81908" font-family="Gentium Book Basic"><tspan y="402.49261" x="1020.9993"/>
  </text>
  <text transform="scale(4.012836,0.24920031)" font-size="36.26916" y="1345.4388" x="406.66583" font-family="Arial" text-anchor="middle"/>
  <text y="235.27968" x="1869.1761" word-spacing="0" line-height="125%" letter-spacing="0" font-size="99.81908" font-family="Gentium Book Basic"><tspan y="235.27968" x="1869.1761"/>
  </text>
  <text transform="scale(4.012836,0.24920031)" font-size="36.26916" y="674.44092" x="618.0318" font-family="Arial" text-anchor="middle"/>
  <text y="173.48299" x="2318.1697" word-spacing="0" line-height="125%" letter-spacing="0" font-size="99.81908" font-family="Gentium Book Basic"><tspan y="173.48299" x="2318.1697"/>
  </text>
  <text transform="scale(4.012836,0.24920031)" font-size="36.26916" y="426.46109" x="729.92108" font-family="Arial" text-anchor="middle"/>
  <text y="368.22919" x="26.534805" word-spacing="0" line-height="125%" letter-spacing="0" font-size="99.81908" font-family="Gentium Book Basic"><tspan y="368.22919" x="26.534805"/>
  </text>
  <text transform="scale(4.012836,0.24920031)" font-size="36.26916" y="1207.9454" x="158.84499" font-family="Arial" text-anchor="middle"/>
  <text y="201.01625" x="874.71179" word-spacing="0" line-height="125%" letter-spacing="0" font-size="99.81908" font-family="Gentium Book Basic"><tspan y="201.01625" x="874.71179"/>
  </text>
  <text transform="scale(4.012836,0.24920031)" font-size="36.26916" y="536.94751" x="370.21094" font-family="Arial" text-anchor="middle"/>
  <text y="139.21956" x="1323.7052" word-spacing="0" line-height="125%" letter-spacing="0" font-size="99.81908" font-family="Gentium Book Basic"><tspan y="139.21956" x="1323.7052"/>
  </text>
  <text transform="scale(4.012836,0.24920031)" font-size="36.26916" y="288.96756" x="482.10028" font-family="Arial" text-anchor="middle"/>
  <text y="-225.68031" x="1023.1331" word-spacing="0" line-height="125%" letter-spacing="0" font-size="99.81908" font-family="Gentium Book Basic"><tspan y="-225.68031" x="1023.1331"/>
  </text>
  <text transform="scale(4.012836,0.24920031)" font-size="36.26916" y="-1175.3158" x="407.1976" font-family="Arial" text-anchor="middle"/>
  <text y="-287.47702" x="1472.1266" word-spacing="0" line-height="125%" letter-spacing="0" font-size="99.81908" font-family="Gentium Book Basic"><tspan y="-287.47702" x="1472.1266"/>
  </text>
  <text transform="scale(4.012836,0.24920031)" font-size="36.26916" y="-1423.2959" x="519.08691" font-family="Arial" text-anchor="middle"/>
  <g transform="translate(-1.32809,-0.46872285)">
   <path d="m 242.51951 731.52716 c -18.41406 0 -33.5 15.11718 -33.5 33.53125 l 0 182.96875 c 0 18.41405 15.08594 33.5 33.5 33.5 l 136.46875 0 c 18.41407 0 33.53125 -15.08595 33.53125 -33.5 l 0 -132.0625 -8.75 -8.71875 -8.75 -8.75 -49.46875 -49.5 -8.71875 -8.71875 -8.75 -8.75 -85.5625 0 z m 0 17.46875 85.5625 0 0 33.4375 c 0 18.41407 15.08594 33.53125 33.5 33.53125 l 33.46875 0 0 132.0625 c 0 9.03876 -7.02374 16.03125 -16.0625 16.03125 l -136.46875 0 c -9.03875 0 -16.03125 -6.99249 -16.03125 -16.03125 l 0 -182.96875 c 0 -9.03876 6.9925 -16.0625 16.03125 -16.0625 z m 8.25 24.0625 c -5.37612 0 -9.71875 4.11218 -9.71875 9.21875 0 5.10658 4.34263 9.21875 9.71875 9.21875 l 55.8125 0 c 5.37612 0 9.6875 -4.11217 9.6875 -9.21875 0 -5.10657 -4.31138 -9.21875 -9.6875 -9.21875 l -55.8125 0 z m 0 38.4375 c -5.37612 0 -9.71875 4.11217 -9.71875 9.21875 0 5.10658 4.34263 9.21875 9.71875 9.21875 l 73.09375 0 c 5.37612 0 9.71875 -4.11217 9.71875 -9.21875 0 -5.10658 -4.34263 -9.21875 -9.71875 -9.21875 l -73.09375 0 z m 0 38.59375 c -5.37612 0 -9.71875 4.11217 -9.71875 9.21875 0 5.10658 4.34263 9.21875 9.71875 9.21875 l 120 0 c 5.37612 0 9.6875 -4.11217 9.6875 -9.21875 0 -5.10658 -4.31138 -9.21875 -9.6875 -9.21875 l -120 0 z m 0 38.4375 c -5.37612 0 -9.71875 4.11217 -9.71875 9.21875 0 5.10658 4.34263 9.21875 9.71875 9.21875 l 120 0 c 5.37612 0 9.6875 -4.11217 9.6875 -9.21875 0 -5.10658 -4.31138 -9.21875 -9.6875 -9.21875 l -120 0 z m 0 38.4375 c -5.37612 0 -9.71875 4.11217 -9.71875 9.21875 0 5.10658 4.34263 9.21875 9.71875 9.21875 l 120 0 c 5.37612 0 9.6875 -4.11217 9.6875 -9.21875 0 -5.10658 -4.31138 -9.21875 -9.6875 -9.21875 l -120 0 z" fill="#fff8eb" transform="translate(0,5.7142857)"/>
   <path d="m 146.57417 606.42034 c -24.62215 0 -44.4375 19.81535 -44.4375 44.4375 l 0 161.09375 c 0 20.66118 13.96095 37.94335 33 42.96875 l 0 -160.03125 c 0 -24.62215 19.81535 -44.4375 44.4375 -44.4375 l 113.875 0 c 11.45395 0.44417 0.0146 0.009 11.46875 0.40625 0 -24.62215 -19.8466 -44.4375 -44.46875 -44.4375 z" fill="#fff8eb" fill-rule="evenodd"/>
   <path d="m 199.09466 670.81013 c -24.62215 0 -44.4375 19.81535 -44.4375 44.4375 l 0 161.09375 c 0 20.66118 13.96095 37.94335 33 42.96875 l 0 -160.03125 c 0 -24.62215 19.81535 -44.4375 44.4375 -44.4375 l 113.875 0 c 11.49859 0.46649 -0.004 -0.0448 11.46875 0.40625 0 -24.62215 -19.8466 -44.4375 -44.46875 -44.4375 z" fill="#fff8eb" fill-rule="evenodd"/>
  </g>
 </g>
</svg>
