<svg xmlns="http://www.w3.org/2000/svg" xmlns:xlink="http://www.w3.org/1999/xlink" width="512" height="512">
 <defs>
  <linearGradient y2="7.01654" x2="0" y1="92.5396" gradientTransform="scale(1.0058652,0.994169)" gradientUnits="userSpaceOnUse" xlink:href="#1"/>
  <filter x="-0.192" y="-0.192" width="1.384" height="1.384" color-interpolation-filters="sRGB">
   <feGaussianBlur stdDeviation="5.28"/>
  </filter>
  <clipPath>
   <rect width="84" height="84" rx="6" x="6" y="6" fill="#fff"/>
  </clipPath>
  <linearGradient id="0">
   <stop stop-color="#fff"/>
   <stop offset="1" stop-color="#fff" stop-opacity="0"/>
  </linearGradient>
  <linearGradient y1="20.220806" x2="0" y2="138.66119" xlink:href="#0" gradientUnits="userSpaceOnUse"/>
  <filter color-interpolation-filters="sRGB">
   <feGaussianBlur stdDeviation="1.71"/>
  </filter>
  <linearGradient y1="92.5396" x2="0" y2="7.01654" id="1" gradientUnits="userSpaceOnUse" gradientTransform="scale(1.0058652,0.994169)">
   <stop/>
   <stop offset="1" stop-opacity="0.588235"/>
  </linearGradient>
  <clipPath>
   <rect y="6" x="6" rx="6" height="84" width="84" fill="#fff"/>
  </clipPath>
  <linearGradient id="2">
   <stop stop-color="#00364e" stop-opacity="0.745098"/>
   <stop offset="0.175552" stop-color="#004b6c" stop-opacity="0.745098"/>
   <stop offset="0.505331" stop-color="#0078ad" stop-opacity="0.745098"/>
   <stop offset="1" stop-color="#0081ba" stop-opacity="0.745098"/>
  </linearGradient>
  <linearGradient id="3">
   <stop stop-color="#0078ad"/>
   <stop offset="1" stop-color="#0081ba"/>
  </linearGradient>
  <linearGradient xlink:href="#2" id="4" gradientUnits="userSpaceOnUse" y1="203.69342" x2="0" y2="48.17266"/>
  <linearGradient xlink:href="#3" id="5" gradientUnits="userSpaceOnUse" y1="507.03873" x2="0" y2="175.69972" gradientTransform="translate(-0.29816769,517.75279)"/>
  <linearGradient xlink:href="#0" gradientUnits="userSpaceOnUse" y1="20.220806" x2="0" y2="138.66119"/>
  <linearGradient xlink:href="#1" gradientUnits="userSpaceOnUse" gradientTransform="scale(1.0058652,0.994169)" y1="92.5396" x2="0" y2="7.01654"/>
  <linearGradient y2="7.01654" x2="0" y1="92.5396" gradientTransform="scale(1.0058652,0.994169)" gradientUnits="userSpaceOnUse" xlink:href="#1"/>
  <clipPath>
   <rect width="84" height="84" rx="6" x="6" y="6" fill="#fff"/>
  </clipPath>
  <linearGradient y1="20.220806" x2="0" y2="138.66119" xlink:href="#0" gradientUnits="userSpaceOnUse"/>
  <linearGradient gradientUnits="userSpaceOnUse" xlink:href="#0" y2="138.66119" x2="0" y1="20.220806"/>
  <clipPath>
   <rect y="6" x="6" rx="6" height="84" width="84" fill="#fff"/>
  </clipPath>
  <linearGradient xlink:href="#1" gradientUnits="userSpaceOnUse" gradientTransform="scale(1.0058652,0.994169)" y1="92.5396" x2="0" y2="7.01654"/>
  <linearGradient gradientUnits="userSpaceOnUse" xlink:href="#0" y2="138.66119" x2="0" y1="20.220806"/>
  <clipPath>
   <rect y="6" x="6" rx="6" height="84" width="84" fill="#fff"/>
  </clipPath>
  <linearGradient xlink:href="#1" gradientUnits="userSpaceOnUse" gradientTransform="scale(1.0058652,0.994169)" y1="92.5396" x2="0" y2="7.01654"/>
  <clipPath>
   <rect width="84" height="84" rx="6" x="6" y="6" fill="#fff"/>
  </clipPath>
  <clipPath>
   <rect y="6" x="6" rx="6" height="84" width="84" fill="#fff"/>
  </clipPath>
  <clipPath>
   <rect width="84" height="84" rx="6" x="6" y="6" fill="#fff"/>
  </clipPath>
  <clipPath>
   <rect y="6" x="6" rx="6" height="84" width="84" fill="#fff"/>
  </clipPath>
  <clipPath>
   <rect width="84" height="84" rx="6" x="6" y="6" fill="#fff"/>
  </clipPath>
  <clipPath>
   <rect y="6" x="6" rx="6" height="84" width="84" fill="#fff"/>
  </clipPath>
  <clipPath>
   <rect y="6" x="6" rx="6" height="84" width="84" fill="#fff"/>
  </clipPath>
  <linearGradient xlink:href="#0" gradientUnits="userSpaceOnUse" y1="20.220806" x2="0" y2="138.66119"/>
  <linearGradient xlink:href="#1" gradientUnits="userSpaceOnUse" gradientTransform="scale(1.0058652,0.994169)" y1="92.5396" x2="0" y2="7.01654"/>
  <linearGradient xlink:href="#0" gradientUnits="userSpaceOnUse" y1="20.220806" x2="0" y2="138.66119"/>
  <linearGradient xlink:href="#1" gradientUnits="userSpaceOnUse" gradientTransform="scale(1.0058652,0.994169)" y1="92.5396" x2="0" y2="7.01654"/>
  <linearGradient xlink:href="#0" gradientUnits="userSpaceOnUse" y1="20.220806" x2="0" y2="138.66119"/>
  <linearGradient xlink:href="#1" gradientUnits="userSpaceOnUse" gradientTransform="scale(1.0058652,0.994169)" y1="92.5396" x2="0" y2="7.01654"/>
  <linearGradient xlink:href="#0" gradientUnits="userSpaceOnUse" y1="20.220806" x2="0" y2="138.66119"/>
  <linearGradient xlink:href="#1" gradientUnits="userSpaceOnUse" gradientTransform="scale(1.0058652,0.994169)" y1="92.5396" x2="0" y2="7.01654"/>
  <linearGradient xlink:href="#0" gradientUnits="userSpaceOnUse" y1="20.220806" x2="0" y2="138.66119"/>
  <linearGradient xlink:href="#1" gradientUnits="userSpaceOnUse" gradientTransform="scale(1.0058652,0.994169)" y1="92.5396" x2="0" y2="7.01654"/>
  <linearGradient xlink:href="#0" gradientUnits="userSpaceOnUse" y1="20.220806" x2="0" y2="138.66119"/>
  <linearGradient xlink:href="#1" gradientUnits="userSpaceOnUse" gradientTransform="scale(1.0058652,0.994169)" y1="92.5396" x2="0" y2="7.01654"/>
  <linearGradient xlink:href="#0" gradientUnits="userSpaceOnUse" y1="20.220806" x2="0" y2="138.66119"/>
  <linearGradient xlink:href="#1" gradientUnits="userSpaceOnUse" gradientTransform="scale(1.0058652,0.994169)" y1="92.5396" x2="0" y2="7.01654"/>
  <linearGradient y2="7.01654" x2="0" y1="92.5396" gradientTransform="scale(1.0058652,0.994169)" gradientUnits="userSpaceOnUse" xlink:href="#1"/>
  <linearGradient y2="138.66119" x2="0" y1="20.220806" gradientUnits="userSpaceOnUse" xlink:href="#0"/>
  <linearGradient y2="7.01654" x2="0" y1="92.5396" gradientTransform="scale(1.0058652,0.994169)" gradientUnits="userSpaceOnUse" xlink:href="#1"/>
  <linearGradient y2="138.66119" x2="0" y1="20.220806" gradientUnits="userSpaceOnUse" xlink:href="#0"/>
  <linearGradient y2="7.01654" x2="0" y1="92.5396" gradientTransform="scale(1.0058652,0.994169)" gradientUnits="userSpaceOnUse" xlink:href="#1"/>
  <linearGradient y2="138.66119" x2="0" y1="20.220806" gradientUnits="userSpaceOnUse" xlink:href="#0"/>
  <linearGradient y2="7.01654" x2="0" y1="92.5396" gradientTransform="scale(1.0058652,0.994169)" gradientUnits="userSpaceOnUse" xlink:href="#1"/>
  <linearGradient y2="138.66119" x2="0" y1="20.220806" gradientUnits="userSpaceOnUse" xlink:href="#0"/>
  <linearGradient y2="7.01654" x2="0" y1="92.5396" gradientTransform="scale(1.0058652,0.994169)" gradientUnits="userSpaceOnUse" xlink:href="#1"/>
  <linearGradient y2="138.66119" x2="0" y1="20.220806" gradientUnits="userSpaceOnUse" xlink:href="#0"/>
  <clipPath>
   <rect width="84" height="84" rx="6" x="6" y="6" fill="#fff"/>
  </clipPath>
  <clipPath>
   <rect width="84" height="84" rx="6" x="6" y="6" fill="#fff"/>
  </clipPath>
  <clipPath>
   <rect y="6" x="6" rx="6" height="84" width="84" fill="#fff"/>
  </clipPath>
  <clipPath>
   <rect width="84" height="84" rx="6" x="6" y="6" fill="#fff"/>
  </clipPath>
  <clipPath>
   <rect y="6" x="6" rx="6" height="84" width="84" fill="#fff"/>
  </clipPath>
  <linearGradient y2="7.01654" x2="0" y1="92.5396" gradientTransform="scale(1.0058652,0.994169)" gradientUnits="userSpaceOnUse" xlink:href="#1"/>
  <clipPath>
   <rect width="84" height="84" rx="6" x="6" y="6" fill="#fff"/>
  </clipPath>
  <linearGradient y1="20.220806" x2="0" y2="138.66119" xlink:href="#0" gradientUnits="userSpaceOnUse"/>
  <linearGradient y2="7.01654" x2="0" y1="92.5396" gradientTransform="scale(1.0058652,0.994169)" gradientUnits="userSpaceOnUse" xlink:href="#1"/>
  <clipPath>
   <rect width="84" height="84" rx="6" x="6" y="6" fill="#fff"/>
  </clipPath>
  <linearGradient y1="20.220806" x2="0" y2="138.66119" xlink:href="#0" gradientUnits="userSpaceOnUse"/>
  <linearGradient gradientUnits="userSpaceOnUse" xlink:href="#0" y2="138.66119" x2="0" y1="20.220806"/>
  <clipPath>
   <rect y="6" x="6" rx="6" height="84" width="84" fill="#fff"/>
  </clipPath>
  <linearGradient xlink:href="#1" gradientUnits="userSpaceOnUse" gradientTransform="scale(1.0058652,0.994169)" y1="92.5396" x2="0" y2="7.01654"/>
 </defs>
 <g transform="translate(0,-540.36217)">
  <text y="1089.8812" x="-1160.4812" font-family="Gentium Book Basic" word-spacing="0" line-height="125%" letter-spacing="0" font-size="208.33333"><tspan y="1089.8812" x="-1160.4812"/>
  </text>
  <text transform="scale(4.0128362,0.2492003)" font-size="75.69771" y="3810.6255" x="28.533577" font-family="Arial" text-anchor="middle"/>
  <path transform="matrix(3.8044095,0,0,1.2222384,-439.88734,508.66795)" d="m 240.41631 229.15729 c 0 99.30475 -25.77886 179.80716 -57.57869 179.80716 -31.79984 0 -57.5787 -80.50241 -57.5787 -179.80716 0 -99.30475 25.77886 -179.80716 57.5787 -179.80716 31.79983 0 57.57869 80.50241 57.57869 179.80716 z" fill="#0078ad"/>
  <path d="m 240.41631 229.15729 c 0 99.30475 -25.77886 179.80716 -57.57869 179.80716 -31.79984 0 -57.5787 -80.50241 -57.5787 -179.80716 0 -99.30475 25.77886 -179.80716 57.5787 -179.80716 31.79983 0 57.57869 80.50241 57.57869 179.80716 z" transform="matrix(3.8044095,0,0,1.2222384,-439.88734,508.66795)" fill="url(#4)"/>
  <path d="m 231.13933 694.52579 c -15.43286 0 -27.44663 9.10526 -27.875 20.375 l -0.53572 14.09375 c 0 9.66765 -19.73833 6.477 -27.6875 6.477 l -129.40178 0 C 14.372027 735.54758 6.701832 748.76205 6.701832 796.25279 18.07475 923.78442 125.21235 1023.7528 255.70183 1023.7528 c 2.15736 0 4.29323 -0.039 6.4375 -0.094 127.5789 -3.2323 232.00477 -102.04221 243.15625 -227.50001 0.29457 -83.79318 -24.58632 -102.45514 -72.76127 -101.63325 l -28.36373 0 -43.75 0 z" fill="url(#5)"/>
  <path d="m 436.98308 694.50279 c -1.45991 -0.0138 -2.93203 0.006 -4.4375 0.0312 l -28.375 0 -43.75 0 -129.28125 0 c -15.43286 0 -27.44663 9.10526 -27.875 20.375 l -0.53125 14.0938 c 0 9.66765 -19.73833 6.46875 -27.6875 6.46875 l -129.40625 0 c -11.963467 0.0291 -20.459755 2.00252 -26.40625 7.0625 5.50923 -2.65022 12.575629 -3.75957 21.59375 -3.78125 l 137.28125 0 c 8.03775 0 28 3.1989 28 -6.46875 l 0.53125 -14.09375 c 0.43314 -11.26974 12.58267 -20.375 28.1875 -20.375 l 130.71875 0 44.25 0 28.6875 0 c 14.35797 -0.24226 26.65841 1.18781 36.875 5.5 -10.23401 -6.25981 -23.04591 -8.66798 -38.375 -8.8125 z" fill="#fff8eb" fill-opacity="0.269006"/>
  <path d="m 255.70183 568.97154 c -78.54255 0 -147.39807 41.50509 -186.0625 103.8125 39.36999 -60.68318 107.98927 -100.875 186.0625 -100.875 78.07323 0 146.69251 40.19182 186.0625 100.875 -38.66443 -62.30741 -107.51995 -103.8125 -186.0625 -103.8125 z" fill="#fff8eb" fill-opacity="0.270588"/>
  <text y="1089.8812" x="-1160.4812" font-family="Gentium Book Basic" word-spacing="0" line-height="125%" letter-spacing="0" font-size="208.33333"><tspan y="1089.8812" x="-1160.4812"/>
  </text>
  <text transform="scale(4.0128362,0.2492003)" font-size="75.69771" y="3810.6255" x="28.533577" font-family="Arial" text-anchor="middle"/>
  <text y="842.51135" x="591.30188" font-family="Gentium Book Basic" word-spacing="0" line-height="125%" letter-spacing="0" font-size="35.076"><tspan y="842.51135" x="591.30188"/>
  </text>
  <text transform="scale(4.0128363,0.2492003)" font-size="12.744829" y="3286.0896" x="200.84645" font-family="Arial" text-anchor="middle"/>
  <text y="816.30847" x="710.22485" font-family="Gentium Book Basic" word-spacing="0" line-height="125%" letter-spacing="0" font-size="35.076"><tspan y="816.30847" x="710.22485"/>
  </text>
  <text transform="scale(4.0128363,0.2492003)" font-size="12.744829" y="3180.9417" x="230.4821" font-family="Arial" text-anchor="middle"/>
  <text y="814.9408" x="715.84375" font-family="Gentium Book Basic" word-spacing="0" line-height="125%" letter-spacing="0" font-size="35.076"><tspan y="814.9408" x="715.84375"/>
  </text>
  <text transform="scale(4.0128363,0.2492003)" font-size="12.744829" y="3175.4531" x="231.88232" font-family="Arial" text-anchor="middle"/>
  <text y="769.74475" x="759.08295" font-family="Gentium Book Basic" word-spacing="0" line-height="125%" letter-spacing="0" font-size="10.356067"><tspan y="769.74475" x="759.08295"/>
  </text>
  <text transform="scale(4.0128363,0.2492003)" font-size="3.762866" y="3060.8792" x="204.95757" font-family="Arial" text-anchor="middle"/>
  <text y="831.49548" x="706.7489" font-family="Gentium Book Basic" word-spacing="0" line-height="125%" letter-spacing="0" font-size="35.076"><tspan y="831.49548" x="706.7489"/>
  </text>
  <text transform="scale(4.0128363,0.2492003)" font-size="12.744829" y="3241.8848" x="229.61589" font-family="Arial" text-anchor="middle"/>
  <text y="805.2926" x="825.67194" font-family="Gentium Book Basic" word-spacing="0" line-height="125%" letter-spacing="0" font-size="35.076"><tspan y="805.2926" x="825.67194"/>
  </text>
  <text transform="scale(4.0128363,0.2492003)" font-size="12.744829" y="3136.7368" x="259.25153" font-family="Arial" text-anchor="middle"/>
  <text y="803.92493" x="831.29077" font-family="Gentium Book Basic" word-spacing="0" line-height="125%" letter-spacing="0" font-size="35.076"><tspan y="803.92493" x="831.29077"/>
  </text>
  <text transform="scale(4.0128363,0.2492003)" font-size="12.744829" y="3131.2483" x="260.65176" font-family="Arial" text-anchor="middle"/>
  <text y="835.82001" x="591.80487" font-family="Gentium Book Basic" word-spacing="0" line-height="125%" letter-spacing="0" font-size="35.076"><tspan y="835.82001" x="591.80487"/>
  </text>
  <text transform="scale(4.0128363,0.2492003)" font-size="12.744829" y="3259.238" x="200.9718" font-family="Arial" text-anchor="middle"/>
  <text y="809.61707" x="710.72791" font-family="Gentium Book Basic" word-spacing="0" line-height="125%" letter-spacing="0" font-size="35.076"><tspan y="809.61707" x="710.72791"/>
  </text>
  <text transform="scale(4.0128363,0.2492003)" font-size="12.744829" y="3154.0901" x="230.60745" font-family="Arial" text-anchor="middle"/>
  <text y="808.24945" x="716.3468" font-family="Gentium Book Basic" word-spacing="0" line-height="125%" letter-spacing="0" font-size="35.076"><tspan y="808.24945" x="716.3468"/>
  </text>
  <text transform="scale(4.0128363,0.2492003)" font-size="12.744829" y="3148.6018" x="232.00768" font-family="Arial" text-anchor="middle"/>
  <text y="321.77991" x="876.91852" transform="matrix(0.8660254,0.5,-0.5,0.8660254,0,0)" font-family="Gentium Book Basic" word-spacing="0" line-height="125%" letter-spacing="0" font-size="35.076"><tspan y="321.77991" x="876.91852"/>
  </text>
  <text transform="matrix(3.4752182,2.006418,-0.12460015,0.21581379,0,0)" font-size="12.744829" y="1196.4794" x="272.02222" font-family="Arial" text-anchor="middle"/>
  <text y="295.57697" x="995.84155" transform="matrix(0.8660254,0.5,-0.5,0.8660254,0,0)" font-family="Gentium Book Basic" word-spacing="0" line-height="125%" letter-spacing="0" font-size="35.076"><tspan y="295.57697" x="995.84155"/>
  </text>
  <text transform="matrix(3.4752182,2.006418,-0.12460015,0.21581379,0,0)" font-size="12.744829" y="1091.3314" x="301.65787" font-family="Arial" text-anchor="middle"/>
  <text y="294.20935" x="1001.4604" transform="matrix(0.8660254,0.5,-0.5,0.8660254,0,0)" font-family="Gentium Book Basic" word-spacing="0" line-height="125%" letter-spacing="0" font-size="35.076"><tspan y="294.20935" x="1001.4604"/>
  </text>
  <text transform="matrix(3.4752182,2.006418,-0.12460015,0.21581379,0,0)" font-size="12.744829" y="1085.8431" x="303.05807" font-family="Arial" text-anchor="middle"/>
  <text y="249.01331" x="1044.6996" transform="matrix(0.8660254,0.5,-0.5,0.8660254,0,0)" font-family="Gentium Book Basic" word-spacing="0" line-height="125%" letter-spacing="0" font-size="10.356067"><tspan y="249.01331" x="1044.6996"/>
  </text>
  <text transform="matrix(3.4752182,2.006418,-0.12460015,0.21581379,0,0)" font-size="3.762866" y="971.26892" x="276.13333" font-family="Arial" text-anchor="middle"/>
  <text y="959.68945" x="566.03448" font-family="Gentium Book Basic" word-spacing="0" line-height="125%" letter-spacing="0" font-size="99.81908"><tspan y="959.68945" x="566.03448"/>
  </text>
  <text transform="scale(4.012836,0.24920031)" font-size="36.26916" y="3581.3784" x="293.28848" font-family="Arial" text-anchor="middle"/>
  <text y="792.47656" x="1414.2115" font-family="Gentium Book Basic" word-spacing="0" line-height="125%" letter-spacing="0" font-size="99.81908"><tspan y="792.47656" x="1414.2115"/>
  </text>
  <text transform="scale(4.012836,0.24920031)" font-size="36.26916" y="2910.3806" x="504.65445" font-family="Arial" text-anchor="middle"/>
  <text y="730.67987" x="1863.205" font-family="Gentium Book Basic" word-spacing="0" line-height="125%" letter-spacing="0" font-size="99.81908"><tspan y="730.67987" x="1863.205"/>
  </text>
  <text transform="scale(4.012836,0.24920031)" font-size="36.26916" y="2662.4006" x="616.54376" font-family="Arial" text-anchor="middle"/>
  <text y="877.62836" x="755.34357" font-family="Gentium Book Basic" word-spacing="0" line-height="125%" letter-spacing="0" font-size="99.81908"><tspan y="877.62836" x="755.34357"/>
  </text>
  <text transform="scale(4.012836,0.24920031)" font-size="36.26916" y="3252.0811" x="340.46436" font-family="Arial" text-anchor="middle"/>
  <text y="710.41547" x="1603.5205" font-family="Gentium Book Basic" word-spacing="0" line-height="125%" letter-spacing="0" font-size="99.81908"><tspan y="710.41547" x="1603.5205"/>
  </text>
  <text transform="scale(4.012836,0.24920031)" font-size="36.26916" y="2581.083" x="551.83032" font-family="Arial" text-anchor="middle"/>
  <text y="648.61884" x="2052.5139" font-family="Gentium Book Basic" word-spacing="0" line-height="125%" letter-spacing="0" font-size="99.81908"><tspan y="648.61884" x="2052.5139"/>
  </text>
  <text transform="scale(4.012836,0.24920031)" font-size="36.26916" y="2333.1033" x="663.7196" font-family="Arial" text-anchor="middle"/>
  <text y="734.59283" x="1470.2792" font-family="Gentium Book Basic" word-spacing="0" line-height="125%" letter-spacing="0" font-size="99.81908"><tspan y="734.59283" x="1470.2792"/>
  </text>
  <text transform="scale(4.012836,0.24920031)" font-size="36.26916" y="2678.1028" x="518.62653" font-family="Arial" text-anchor="middle"/>
  <text y="672.79614" x="1919.2727" font-family="Gentium Book Basic" word-spacing="0" line-height="125%" letter-spacing="0" font-size="99.81908"><tspan y="672.79614" x="1919.2727"/>
  </text>
  <text transform="scale(4.012836,0.24920031)" font-size="36.26916" y="2430.1228" x="630.51587" font-family="Arial" text-anchor="middle"/>
  <text y="457.88596" x="516.55237" font-family="Gentium Book Basic" word-spacing="0" line-height="125%" letter-spacing="0" font-size="35.076"><tspan y="457.88596" x="516.55237"/>
  </text>
  <text transform="scale(4.0128363,0.2492003)" font-size="12.744829" y="1742.6508" x="182.21886" font-family="Arial" text-anchor="middle"/>
  <text y="431.68307" x="635.47534" font-family="Gentium Book Basic" word-spacing="0" line-height="125%" letter-spacing="0" font-size="35.076"><tspan y="431.68307" x="635.47534"/>
  </text>
  <text transform="scale(4.0128363,0.2492003)" font-size="12.744829" y="1637.5027" x="211.85451" font-family="Arial" text-anchor="middle"/>
  <text y="430.31537" x="641.09424" font-family="Gentium Book Basic" word-spacing="0" line-height="125%" letter-spacing="0" font-size="35.076"><tspan y="430.31537" x="641.09424"/>
  </text>
  <text transform="scale(4.0128363,0.2492003)" font-size="12.744829" y="1632.0144" x="213.25471" font-family="Arial" text-anchor="middle"/>
  <text y="385.11932" x="684.33344" font-family="Gentium Book Basic" word-spacing="0" line-height="125%" letter-spacing="0" font-size="10.356067"><tspan y="385.11932" x="684.33344"/>
  </text>
  <text transform="scale(4.0128363,0.2492003)" font-size="3.762866" y="1517.4403" x="186.32996" font-family="Arial" text-anchor="middle"/>
  <text y="446.87009" x="631.99939" font-family="Gentium Book Basic" word-spacing="0" line-height="125%" letter-spacing="0" font-size="35.076"><tspan y="446.87009" x="631.99939"/>
  </text>
  <text transform="scale(4.0128363,0.2492003)" font-size="12.744829" y="1698.4459" x="210.98828" font-family="Arial" text-anchor="middle"/>
  <text y="420.66714" x="750.92236" font-family="Gentium Book Basic" word-spacing="0" line-height="125%" letter-spacing="0" font-size="35.076"><tspan y="420.66714" x="750.92236"/>
  </text>
  <text transform="scale(4.0128363,0.2492003)" font-size="12.744829" y="1593.298" x="240.62393" font-family="Arial" text-anchor="middle"/>
  <text y="419.2995" x="756.54126" font-family="Gentium Book Basic" word-spacing="0" line-height="125%" letter-spacing="0" font-size="35.076"><tspan y="419.2995" x="756.54126"/>
  </text>
  <text transform="scale(4.0128363,0.2492003)" font-size="12.744829" y="1587.8096" x="242.02415" font-family="Arial" text-anchor="middle"/>
  <text y="451.19458" x="517.05536" font-family="Gentium Book Basic" word-spacing="0" line-height="125%" letter-spacing="0" font-size="35.076"><tspan y="451.19458" x="517.05536"/>
  </text>
  <text transform="scale(4.0128363,0.2492003)" font-size="12.744829" y="1715.7993" x="182.34419" font-family="Arial" text-anchor="middle"/>
  <text y="424.99164" x="635.97839" font-family="Gentium Book Basic" word-spacing="0" line-height="125%" letter-spacing="0" font-size="35.076"><tspan y="424.99164" x="635.97839"/>
  </text>
  <text transform="scale(4.0128363,0.2492003)" font-size="12.744829" y="1610.6512" x="211.97984" font-family="Arial" text-anchor="middle"/>
  <text y="423.62399" x="641.59729" font-family="Gentium Book Basic" word-spacing="0" line-height="125%" letter-spacing="0" font-size="35.076"><tspan y="423.62399" x="641.59729"/>
  </text>
  <text transform="scale(4.0128363,0.2492003)" font-size="12.744829" y="1605.1628" x="213.38007" font-family="Arial" text-anchor="middle"/>
  <text y="26.05929" x="619.87085" transform="matrix(0.8660254,0.5,-0.5,0.8660254,0,0)" font-family="Gentium Book Basic" word-spacing="0" line-height="125%" letter-spacing="0" font-size="35.076"><tspan y="26.05929" x="619.87085"/>
  </text>
  <text transform="matrix(3.4752182,2.006418,-0.12460015,0.21581379,0,0)" font-size="12.744829" y="9.800935" x="207.96585" font-family="Arial" text-anchor="middle"/>
  <text y="-0.143645" x="738.79382" transform="matrix(0.8660254,0.5,-0.5,0.8660254,0,0)" font-family="Gentium Book Basic" word-spacing="0" line-height="125%" letter-spacing="0" font-size="35.076"><tspan y="-0.143645" x="738.79382"/>
  </text>
  <text transform="matrix(3.4752182,2.006418,-0.12460015,0.21581379,0,0)" font-size="12.744829" y="-95.34699" x="237.60149" font-family="Arial" text-anchor="middle"/>
  <text y="-1.511284" x="744.41272" transform="matrix(0.8660254,0.5,-0.5,0.8660254,0,0)" font-family="Gentium Book Basic" word-spacing="0" line-height="125%" letter-spacing="0" font-size="35.076"><tspan y="-1.511284" x="744.41272"/>
  </text>
  <text transform="matrix(3.4752182,2.006418,-0.12460015,0.21581379,0,0)" font-size="12.744829" y="-100.83533" x="239.00172" font-family="Arial" text-anchor="middle"/>
  <text y="-46.707314" x="787.65192" transform="matrix(0.8660254,0.5,-0.5,0.8660254,0,0)" font-family="Gentium Book Basic" word-spacing="0" line-height="125%" letter-spacing="0" font-size="10.356067"><tspan y="-46.707314" x="787.65192"/>
  </text>
  <text transform="matrix(3.4752182,2.006418,-0.12460015,0.21581379,0,0)" font-size="3.762866" y="-215.40953" x="212.07695" font-family="Arial" text-anchor="middle"/>
  <text y="575.06403" x="491.28497" font-family="Gentium Book Basic" word-spacing="0" line-height="125%" letter-spacing="0" font-size="99.81908"><tspan y="575.06403" x="491.28497"/>
  </text>
  <text transform="scale(4.012836,0.24920031)" font-size="36.26916" y="2037.9397" x="274.66086" font-family="Arial" text-anchor="middle"/>
  <text y="407.8511" x="1339.4619" font-family="Gentium Book Basic" word-spacing="0" line-height="125%" letter-spacing="0" font-size="99.81908"><tspan y="407.8511" x="1339.4619"/>
  </text>
  <text transform="scale(4.012836,0.24920031)" font-size="36.26916" y="1366.9418" x="486.02682" font-family="Arial" text-anchor="middle"/>
  <text y="346.05441" x="1788.4554" font-family="Gentium Book Basic" word-spacing="0" line-height="125%" letter-spacing="0" font-size="99.81908"><tspan y="346.05441" x="1788.4554"/>
  </text>
  <text transform="scale(4.012836,0.24920031)" font-size="36.26916" y="1118.9619" x="597.91614" font-family="Arial" text-anchor="middle"/>
  <text y="540.8006" x="-503.17947" font-family="Gentium Book Basic" word-spacing="0" line-height="125%" letter-spacing="0" font-size="99.81908"><tspan y="540.8006" x="-503.17947"/>
  </text>
  <text transform="scale(4.012836,0.24920031)" font-size="36.26916" y="1900.4463" x="26.840015" font-family="Arial" text-anchor="middle"/>
  <text y="373.58768" x="344.9975" font-family="Gentium Book Basic" word-spacing="0" line-height="125%" letter-spacing="0" font-size="99.81908"><tspan y="373.58768" x="344.9975"/>
  </text>
  <text transform="scale(4.012836,0.24920031)" font-size="36.26916" y="1229.4484" x="238.20598" font-family="Arial" text-anchor="middle"/>
  <text y="311.79099" x="793.99097" font-family="Gentium Book Basic" word-spacing="0" line-height="125%" letter-spacing="0" font-size="99.81908"><tspan y="311.79099" x="793.99097"/>
  </text>
  <text transform="scale(4.012836,0.24920031)" font-size="36.26916" y="981.46838" x="350.09531" font-family="Arial" text-anchor="middle"/>
  <text y="-53.1089" x="493.41885" font-family="Gentium Book Basic" word-spacing="0" line-height="125%" letter-spacing="0" font-size="99.81908"><tspan y="-53.1089" x="493.41885"/>
  </text>
  <text transform="scale(4.012836,0.24920031)" font-size="36.26916" y="-482.81503" x="275.19263" font-family="Arial" text-anchor="middle"/>
  <text y="-114.90559" x="942.41229" font-family="Gentium Book Basic" word-spacing="0" line-height="125%" letter-spacing="0" font-size="99.81908"><tspan y="-114.90559" x="942.41229"/>
  </text>
  <text transform="scale(4.012836,0.24920031)" font-size="36.26916" y="-730.79504" x="387.08197" font-family="Arial" text-anchor="middle"/>
  <path d="m 187.75 746.26923 c -18.41406 0 -33.5 15.11718 -33.5 33.53125 l 0 182.96875 c 0 18.41405 15.08594 33.5 33.5 33.5 l 136.46875 0 c 18.41407 0 33.53125 -15.08595 33.53125 -33.5 l 0 -132.0625 -8.75 -8.71875 -8.75 -8.75 -49.46875 -49.5 -8.71875 -8.71875 -8.75 -8.75 -85.5625 0 z m 0 17.46875 85.5625 0 0 33.4375 c 0 18.41407 15.08594 33.53125 33.5 33.53125 l 33.46875 0 0 132.0625 c 0 9.03876 -7.02374 16.03125 -16.0625 16.03125 l -136.46875 0 c -9.03875 0 -16.03125 -6.99249 -16.03125 -16.03125 l 0 -182.96875 c 0 -9.03876 6.9925 -16.0625 16.03125 -16.0625 z" fill="#fff8eb"/>
  <rect ry="9.217645" rx="9.704183" y="864.83502" x="186.2995" height="18.435289" width="139.40108" fill="#fff8eb" fill-rule="evenodd"/>
  <rect width="139.40108" height="18.435289" x="186.2995" y="903.27032" rx="9.704183" ry="9.217645" fill="#fff8eb" fill-rule="evenodd"/>
  <rect ry="9.217645" rx="9.704183" y="941.70563" x="186.2995" height="18.435289" width="139.40108" fill="#fff8eb" fill-rule="evenodd"/>
  <rect width="75.21481" height="18.435289" x="186.2995" y="787.81091" rx="9.704183" ry="9.217645" fill="#fff8eb" fill-rule="evenodd"/>
  <rect ry="9.217645" rx="9.704183" y="826.24622" x="186.2995" height="18.435289" width="92.51119" fill="#fff8eb" fill-rule="evenodd"/>
 </g>
</svg>
