<?xml version="1.0" encoding="UTF-8" standalone="no"?>
<svg
   xmlns:dc="http://purl.org/dc/elements/1.1/"
   xmlns:cc="http://creativecommons.org/ns#"
   xmlns:rdf="http://www.w3.org/1999/02/22-rdf-syntax-ns#"
   xmlns:svg="http://www.w3.org/2000/svg"
   xmlns="http://www.w3.org/2000/svg"
   xmlns:xlink="http://www.w3.org/1999/xlink"
   xmlns:sodipodi="http://sodipodi.sourceforge.net/DTD/sodipodi-0.dtd"
   xmlns:inkscape="http://www.inkscape.org/namespaces/inkscape"
   width="512"
   height="512"
   id="svg2"
   version="1.1"
   inkscape:version="0.48.4 r9939"
   sodipodi:docname="folder-flamini.svg">
  <metadata
     id="metadata56">
    <rdf:RDF>
      <cc:Work
         rdf:about="">
        <dc:format>image/svg+xml</dc:format>
        <dc:type
           rdf:resource="http://purl.org/dc/dcmitype/StillImage" />
      </cc:Work>
    </rdf:RDF>
  </metadata>
  <sodipodi:namedview
     pagecolor="#ffffff"
     bordercolor="#666666"
     borderopacity="1"
     objecttolerance="10"
     gridtolerance="10"
     guidetolerance="10"
     inkscape:pageopacity="0"
     inkscape:pageshadow="2"
     inkscape:window-width="800"
     inkscape:window-height="741"
     id="namedview54"
     showgrid="false"
     inkscape:zoom="1.0644531"
     inkscape:cx="256"
     inkscape:cy="263.5156"
     inkscape:window-x="57"
     inkscape:window-y="0"
     inkscape:window-maximized="0"
     inkscape:current-layer="svg2" />
  <defs
     id="defs4">
    <linearGradient
       id="0">
      <stop
         stop-color="#00364e"
         stop-opacity="0.745098"
         id="stop7" />
      <stop
         offset="0.175552"
         stop-color="#004b6c"
         stop-opacity="0.745098"
         id="stop9" />
      <stop
         offset="0.505331"
         stop-color="#0078ad"
         stop-opacity="0.745098"
         id="stop11" />
      <stop
         offset="1"
         stop-color="#0081ba"
         stop-opacity="0.745098"
         id="stop13" />
    </linearGradient>
    <linearGradient
       id="1">
      <stop
         stop-color="#0078ad"
         id="stop16" />
      <stop
         offset="1"
         stop-color="#0081ba"
         id="stop18" />
    </linearGradient>
    <linearGradient
       xlink:href="#0"
       id="2"
       gradientUnits="userSpaceOnUse"
       y1="203.69342"
       x2="0"
       y2="48.17266" />
    <linearGradient
       xlink:href="#1"
       id="3"
       gradientUnits="userSpaceOnUse"
       y1="507.03873"
       x2="0"
       y2="175.69972"
       gradientTransform="translate(-0.29816769,517.75279)" />
    <linearGradient
       inkscape:collect="always"
       xlink:href="#1"
       id="linearGradient13034"
       gradientUnits="userSpaceOnUse"
       gradientTransform="translate(-0.29816769,-22.60938)"
       y1="507.03873"
       x2="0"
       y2="175.69972" />
    <linearGradient
       inkscape:collect="always"
       xlink:href="#0"
       id="linearGradient13037"
       gradientUnits="userSpaceOnUse"
       y1="203.69342"
       x2="0"
       y2="48.17266"
       gradientTransform="matrix(3.8044095,0,0,1.2222384,-439.88734,-31.69422)" />
  </defs>
  <text
     style="font-size:208.33332825px;line-height:125%;letter-spacing:0;word-spacing:0;font-family:Gentium Book Basic"
     sodipodi:linespacing="125%"
     id="text24"
     font-size="208.33333"
     letter-spacing="0"
     line-height="125%"
     word-spacing="0"
     x="-1160.4812"
     y="549.51904">
    <tspan
       id="tspan26"
       x="-1160.4812"
       y="549.51904" />
  </text>
  <text
     style="font-size:75.69770813px;text-anchor:middle;font-family:Arial"
     id="text28"
     x="28.533577"
     y="1642.2406"
     font-size="75.69771"
     transform="scale(4.0128362,0.2492003)" />
  <path
     style="fill:#0078ad"
     inkscape:connector-curvature="0"
     id="path30"
     d="m 474.75475,248.39062 c 0,121.37408 -98.07334,219.76722 -219.05291,219.76722 -120.97961,0 -219.052955,-98.39314 -219.052955,-219.76722 0,-121.37408 98.073345,-219.767216 219.052955,-219.767216 120.97957,0 219.05291,98.393136 219.05291,219.767216 z" />
  <path
     inkscape:connector-curvature="0"
     style="fill:url(#linearGradient13037)"
     id="path32"
     d="m 474.75475,248.39062 c 0,121.37408 -98.07334,219.76722 -219.05291,219.76722 -120.97961,0 -219.052955,-98.39314 -219.052955,-219.76722 0,-121.37408 98.073345,-219.767216 219.052955,-219.767216 120.97957,0 219.05291,98.393136 219.05291,219.767216 z" />
  <path
     inkscape:connector-curvature="0"
     style="fill:url(#linearGradient13034)"
     id="path34"
     d="m 231.13933,154.16362 c -15.43286,0 -27.44663,9.10526 -27.875,20.375 l -0.53572,14.09375 c 0,9.66765 -19.73833,6.477 -27.6875,6.477 l -129.40178,0 c -31.267303,0.076 -38.937498,13.29051 -38.937498,60.78125 11.372918,127.53163 118.510518,227.50001 248.999998,227.50001 2.15736,0 4.29323,-0.039 6.4375,-0.094 127.5789,-3.2323 232.00477,-102.04221 243.15625,-227.50001 0.29457,-83.79318 -24.58632,-102.45514 -72.76127,-101.63325 l -28.36373,0 -43.75,0 z" />
  <path
     style="fill:#fff8eb;fill-opacity:0.26900605"
     inkscape:connector-curvature="0"
     id="path36"
     d="m 436.98308,154.14062 c -1.45991,-0.0138 -2.93203,0.006 -4.4375,0.0312 l -28.375,0 -43.75,0 -129.28125,0 c -15.43286,0 -27.44663,9.10526 -27.875,20.375 l -0.53125,14.0938 c 0,9.66765 -19.73833,6.46875 -27.6875,6.46875 l -129.40625,0 c -11.963467,0.0291 -20.459755,2.00252 -26.40625,7.0625 5.50923,-2.65022 12.575629,-3.75957 21.59375,-3.78125 l 137.28125,0 c 8.03775,0 28,3.1989 28,-6.46875 l 0.53125,-14.09375 c 0.43314,-11.26974 12.58267,-20.375 28.1875,-20.375 l 130.71875,0 44.25,0 28.6875,0 c 14.35797,-0.24226 26.65841,1.18781 36.875,5.5 -10.23401,-6.25981 -23.04591,-8.66798 -38.375,-8.8125 z" />
  <path
     style="fill:#fff8eb;fill-opacity:0.270588"
     inkscape:connector-curvature="0"
     id="path38"
     d="m 255.70183,28.60937 c -78.54255,0 -147.39807,41.50509 -186.0625,103.8125 39.36999,-60.68318 107.98927,-100.875 186.0625,-100.875 78.07323,0 146.69251,40.19182 186.0625,100.875 C 403.0999,70.11446 334.24438,28.60937 255.70183,28.60937 z" />
  <text
     style="font-size:208.33332825px;line-height:125%;letter-spacing:0;word-spacing:0;font-family:Gentium Book Basic"
     sodipodi:linespacing="125%"
     id="text40"
     font-size="208.33333"
     letter-spacing="0"
     line-height="125%"
     word-spacing="0"
     x="-1160.4812"
     y="549.51904">
    <tspan
       id="tspan42"
       x="-1160.4812"
       y="549.51904" />
  </text>
  <text
     style="font-size:75.69770813px;text-anchor:middle;font-family:Arial"
     id="text44"
     x="28.533577"
     y="1642.2406"
     font-size="75.69771"
     transform="scale(4.0128362,0.2492003)" />
  <path
     style="fill:#fff8eb"
     inkscape:connector-curvature="0"
     id="path46"
     d="m 218.10304,326.31125 c -0.23199,7.98361 -0.15882,15.90849 0.13286,23.45539 0.58663,15.18593 7.54572,31.08339 15.0671,43.99918 8.6336,14.82567 26.90655,28.50424 36.11346,38.57439 22.64324,23.87004 -11.28401,48.43302 -45.69531,33.19062 -16.46692,-7.29399 -25.28251,-21.57933 -30.01942,-31.35156 -6.06035,-13.43238 -5.69931,-37.65228 -0.47862,-59.11089 2.9171,-11.99018 7.2037,-26.98073 11.88277,-36.95033 1.8771,-3.99944 3.21181,-8.75159 5.01247,-11.74658 1.2842,-2.23915 2.40145,-2.36766 4.8325,-2.36823 0.69801,0 3.15226,0.31933 3.15226,2.30801 z" />
  <path
     style="fill:#fff8eb"
     inkscape:connector-curvature="0"
     id="path48"
     d="m 248.99767,285.22137 c -7.77162,1.84224 -15.40751,3.96401 -22.6218,6.19905 -14.51662,4.49705 -28.07127,15.33359 -38.60028,25.94154 -12.08594,12.17658 -20.56905,33.36715 -27.91313,44.8667 -17.19619,28.04969 -49.70317,1.63586 -43.88648,-35.54794 2.78349,-17.79364 14.3004,-30.00617 22.51365,-37.1109 11.40617,-9.33039 34.89424,-15.25023 56.97287,-15.76133 12.33661,-0.28561 27.92584,-0.0236 38.76676,1.91443 4.34899,0.77799 9.28467,0.8373 12.64363,1.80143 2.49526,0.66091 2.90853,1.70681 3.53829,4.05488 0.18074,0.67423 0.50742,3.12751 -1.41348,3.64221 z" />
  <path
     style="fill:#fff8eb"
     inkscape:connector-curvature="0"
     id="path50"
     d="m 312.98905,299.53692 c -5.48121,-5.8093 -11.13669,-11.36129 -16.67943,-16.49151 -11.15287,-10.32325 -27.3149,-16.64368 -41.7662,-20.45807 -16.58815,-4.37846 -39.18132,-1.12976 -52.81225,-1.74013 -32.88984,-0.86752 -26.26829,-42.22628 8.8422,-55.78076 16.8015,-6.48627 33.13631,-2.61857 43.39579,0.94191 13.78344,5.21286 30.65424,22.59417 42.13615,41.45931 6.41566,10.54101 13.98333,24.17268 17.72546,34.53019 1.50071,4.15534 3.9172,8.45941 4.76169,11.85044 0.67527,2.49138 -0.0236,3.37225 -1.74249,5.09171 -0.4935,0.49359 -2.45476,2.00318 -3.86099,0.59698 z" />
  <path
     style="fill:#fff8eb"
     inkscape:connector-curvature="0"
     id="path52"
     d="m 321.39757,371.08188 c 4.19269,-6.79798 8.09178,-13.69773 11.61257,-20.3794 7.08497,-13.4447 9.00699,-30.69187 8.95111,-45.63798 -0.0641,-17.15617 -9.04957,-38.13866 -11.98798,-51.4631 -7.67453,-31.9937 33.98875,-36.30219 56.16861,-5.89624 10.61382,14.55024 11.10566,31.32948 10.32184,42.16093 -1.46781,14.66296 -13.89037,35.4575 -29.14095,51.43083 -8.52134,8.92528 -19.72988,19.7632 -28.76594,26.05855 -3.62532,2.52506 -7.1573,5.97318 -10.21423,7.66658 -2.2317,1.29707 -3.26344,0.84998 -5.36919,-0.3653 -0.60457,-0.34876 -2.57025,-1.85265 -1.57595,-3.5749 z" />
</svg>
