<svg xmlns="http://www.w3.org/2000/svg" xmlns:xlink="http://www.w3.org/1999/xlink" width="512" height="512">
 <defs>
  <linearGradient y2="7.01654" x2="0" y1="92.5396" gradientTransform="scale(1.0058652,0.994169)" gradientUnits="userSpaceOnUse" xlink:href="#1"/>
  <filter x="-0.192" y="-0.192" width="1.384" height="1.384" color-interpolation-filters="sRGB">
   <feGaussianBlur stdDeviation="5.28"/>
  </filter>
  <clipPath>
   <rect width="84" height="84" rx="6" x="6" y="6" fill="#fff"/>
  </clipPath>
  <linearGradient id="0">
   <stop stop-color="#fff"/>
   <stop offset="1" stop-color="#fff" stop-opacity="0"/>
  </linearGradient>
  <linearGradient y1="20.220806" x2="0" y2="138.66119" xlink:href="#0" gradientUnits="userSpaceOnUse"/>
  <filter color-interpolation-filters="sRGB">
   <feGaussianBlur stdDeviation="1.71"/>
  </filter>
  <linearGradient y1="92.5396" x2="0" y2="7.01654" id="1" gradientUnits="userSpaceOnUse" gradientTransform="scale(1.0058652,0.994169)">
   <stop/>
   <stop offset="1" stop-opacity="0.588235"/>
  </linearGradient>
  <linearGradient xlink:href="#1" gradientUnits="userSpaceOnUse" gradientTransform="scale(1.0058652,0.994169)" y1="92.5396" x2="0" y2="7.01654"/>
  <clipPath>
   <rect y="6" x="6" rx="6" height="84" width="84" fill="#fff"/>
  </clipPath>
  <linearGradient gradientUnits="userSpaceOnUse" xlink:href="#0" y2="138.66119" x2="0" y1="20.220806"/>
  <linearGradient y2="7.01654" x2="0" y1="92.5396" gradientTransform="scale(1.0058652,0.994169)" gradientUnits="userSpaceOnUse" xlink:href="#1"/>
  <clipPath>
   <rect width="84" height="84" rx="6" x="6" y="6" fill="#fff"/>
  </clipPath>
  <linearGradient y1="20.220806" x2="0" y2="138.66119" xlink:href="#0" gradientUnits="userSpaceOnUse"/>
  <linearGradient y2="7.01654" x2="0" y1="92.5396" gradientTransform="scale(1.0058652,0.994169)" gradientUnits="userSpaceOnUse" xlink:href="#1"/>
  <clipPath>
   <rect width="84" height="84" rx="6" x="6" y="6" fill="#fff"/>
  </clipPath>
  <linearGradient y1="20.220806" x2="0" y2="138.66119" xlink:href="#0" gradientUnits="userSpaceOnUse"/>
  <linearGradient y2="7.01654" x2="0" y1="92.5396" gradientTransform="scale(1.0058652,0.994169)" gradientUnits="userSpaceOnUse" xlink:href="#1"/>
  <clipPath>
   <rect width="84" height="84" rx="6" x="6" y="6" fill="#fff"/>
  </clipPath>
  <linearGradient y1="20.220806" x2="0" y2="138.66119" xlink:href="#0" gradientUnits="userSpaceOnUse"/>
  <linearGradient xlink:href="#1" gradientUnits="userSpaceOnUse" gradientTransform="scale(1.0058652,0.994169)" y1="92.5396" x2="0" y2="7.01654"/>
  <clipPath>
   <rect y="6" x="6" rx="6" height="84" width="84" fill="#fff"/>
  </clipPath>
  <linearGradient gradientUnits="userSpaceOnUse" xlink:href="#0" y2="138.66119" x2="0" y1="20.220806"/>
  <linearGradient y2="7.01654" x2="0" y1="92.5396" gradientTransform="scale(1.0058652,0.994169)" gradientUnits="userSpaceOnUse" xlink:href="#1"/>
  <clipPath>
   <rect width="84" height="84" rx="6" x="6" y="6" fill="#fff"/>
  </clipPath>
  <linearGradient y1="20.220806" x2="0" y2="138.66119" xlink:href="#0" gradientUnits="userSpaceOnUse"/>
  <linearGradient y2="7.01654" x2="0" y1="92.5396" gradientTransform="scale(1.0058652,0.994169)" gradientUnits="userSpaceOnUse" xlink:href="#1"/>
  <clipPath>
   <rect width="84" height="84" rx="6" x="6" y="6" fill="#fff"/>
  </clipPath>
  <linearGradient y1="20.220806" x2="0" y2="138.66119" xlink:href="#0" gradientUnits="userSpaceOnUse"/>
  <clipPath>
   <rect y="6" x="6" rx="6" height="84" width="84" fill="#fff"/>
  </clipPath>
  <linearGradient id="2">
   <stop stop-color="#00364e" stop-opacity="0.745098"/>
   <stop offset="0.175552" stop-color="#004b6c" stop-opacity="0.745098"/>
   <stop offset="0.505331" stop-color="#0078ad" stop-opacity="0.745098"/>
   <stop offset="1" stop-color="#0081ba" stop-opacity="0.745098"/>
  </linearGradient>
  <linearGradient id="3">
   <stop stop-color="#0078ad"/>
   <stop offset="1" stop-color="#0081ba"/>
  </linearGradient>
  <linearGradient xlink:href="#0" gradientUnits="userSpaceOnUse" y1="20.220806" x2="0" y2="138.66119"/>
  <linearGradient xlink:href="#1" gradientUnits="userSpaceOnUse" gradientTransform="scale(1.0058652,0.994169)" y1="92.5396" x2="0" y2="7.01654"/>
  <linearGradient y2="7.01654" x2="0" y1="92.5396" gradientTransform="scale(1.0058652,0.994169)" gradientUnits="userSpaceOnUse" xlink:href="#1"/>
  <linearGradient y2="138.66119" x2="0" y1="20.220806" gradientUnits="userSpaceOnUse" xlink:href="#0"/>
  <clipPath>
   <rect width="84" height="84" rx="6" x="6" y="6" fill="#fff"/>
  </clipPath>
  <clipPath>
   <rect y="6" x="6" rx="6" height="84" width="84" fill="#fff"/>
  </clipPath>
  <linearGradient xlink:href="#0" gradientUnits="userSpaceOnUse" y1="20.220806" x2="0" y2="138.66119"/>
  <linearGradient xlink:href="#1" gradientUnits="userSpaceOnUse" gradientTransform="scale(1.0058652,0.994169)" y1="92.5396" x2="0" y2="7.01654"/>
  <linearGradient xlink:href="#2" id="4" gradientUnits="userSpaceOnUse" y1="203.69342" x2="0" y2="48.17266"/>
  <linearGradient xlink:href="#3" id="5" gradientUnits="userSpaceOnUse" gradientTransform="translate(805.41612,517.75279)" y1="507.03873" x2="0" y2="175.69972"/>
 </defs>
 <g transform="translate(0,-540.36217)">
  <text y="1089.8812" x="-1160.4812" font-family="Gentium Book Basic" word-spacing="0" line-height="125%" letter-spacing="0" font-size="208.33333"><tspan y="1089.8812" x="-1160.4812"/>
  </text>
  <text transform="scale(4.0128362,0.2492003)" font-size="75.69771" y="3810.6255" x="28.533577" font-family="Arial" text-anchor="middle"/>
  <text y="1089.8812" x="-1160.4812" font-family="Gentium Book Basic" word-spacing="0" line-height="125%" letter-spacing="0" font-size="208.33333"><tspan y="1089.8812" x="-1160.4812"/>
  </text>
  <text transform="scale(4.0128362,0.2492003)" font-size="75.69771" y="3810.6255" x="28.533577" font-family="Arial" text-anchor="middle"/>
  <text x="2503.1292" y="411.15817" font-family="Gentium Book Basic" word-spacing="0" line-height="125%" letter-spacing="0" font-size="208.33334"><tspan x="2503.1292" y="411.15817"/>
  </text>
  <text y="689.27417" x="144.29805" font-family="Gentium Book Basic" word-spacing="0" line-height="125%" letter-spacing="0" font-size="208.33334"><tspan y="689.27417" x="144.29805"/>
  </text>
  <text y="461.98935" x="432.51315" font-family="Gentium Book Basic" word-spacing="0" line-height="125%" letter-spacing="0" font-size="208.33334"><tspan y="461.98935" x="432.51315"/>
  </text>
  <text y="205.08948" x="4627.1123" font-family="Gentium Book Basic" word-spacing="0" line-height="125%" letter-spacing="0" font-size="208.33334"><tspan y="205.08948" x="4627.1123"/>
  </text>
  <text x="2499.1816" y="350.12369" font-family="Gentium Book Basic" word-spacing="0" line-height="125%" letter-spacing="0" font-size="208.33334"><tspan x="2499.1816" y="350.12369"/>
  </text>
  <text y="628.23975" x="140.35091" font-family="Gentium Book Basic" word-spacing="0" line-height="125%" letter-spacing="0" font-size="208.33334"><tspan y="628.23975" x="140.35091"/>
  </text>
  <text y="400.95486" x="428.56601" font-family="Gentium Book Basic" word-spacing="0" line-height="125%" letter-spacing="0" font-size="208.33334"><tspan y="400.95486" x="428.56601"/>
  </text>
  <text y="1038.2728" x="-424.01398" font-family="Gentium Book Basic" word-spacing="0" line-height="125%" letter-spacing="0" font-size="208.33333"><tspan y="1038.2728" x="-424.01398"/>
  </text>
  <text transform="scale(4.0128362,0.2492003)" font-size="75.69771" y="3603.5293" x="212.06143" font-family="Arial" text-anchor="middle"/>
  <text y="1038.2728" x="-424.01398" font-family="Gentium Book Basic" word-spacing="0" line-height="125%" letter-spacing="0" font-size="208.33333"><tspan y="1038.2728" x="-424.01398"/>
  </text>
  <text transform="scale(4.0128362,0.2492003)" font-size="75.69771" y="3603.5293" x="212.06143" font-family="Arial" text-anchor="middle"/>
  <text y="1048.7384" x="183.5188" word-spacing="0" line-height="125%" letter-spacing="0" font-size="208.33333" font-family="Gentium Book Basic"><tspan y="1048.7384" x="183.5188"/>
  </text>
  <text transform="scale(4.0128362,0.2492003)" font-size="75.69771" y="3645.5259" x="363.45877" font-family="Arial" text-anchor="middle"/>
  <text y="1048.7384" x="183.5188" word-spacing="0" line-height="125%" letter-spacing="0" font-size="208.33333" font-family="Gentium Book Basic"><tspan y="1048.7384" x="183.5188"/>
  </text>
  <text transform="scale(4.0128362,0.2492003)" font-size="75.69771" y="3645.5259" x="363.45877" font-family="Arial" text-anchor="middle"/>
  <g transform="translate(-805.7143,0)">
   <path transform="matrix(3.8044095,0,0,1.2222384,365.82695,508.66795)" d="m 240.41631 229.15729 c 0 99.30475 -25.77886 179.80716 -57.57869 179.80716 -31.79984 0 -57.5787 -80.50241 -57.5787 -179.80716 0 -99.30475 25.77886 -179.80716 57.5787 -179.80716 31.79983 0 57.57869 80.50241 57.57869 179.80716 z" fill="#0078ad"/>
   <path d="m 240.41631 229.15729 c 0 99.30475 -25.77886 179.80716 -57.57869 179.80716 -31.79984 0 -57.5787 -80.50241 -57.5787 -179.80716 0 -99.30475 25.77886 -179.80716 57.5787 -179.80716 31.79983 0 57.57869 80.50241 57.57869 179.80716 z" transform="matrix(3.8044095,0,0,1.2222384,365.82695,508.66795)" fill="url(#4)"/>
   <path d="m 1036.8536 694.52579 c -15.4328 0 -27.4466 9.10526 -27.875 20.375 l -0.5357 14.09375 c 0 9.66765 -19.73833 6.477 -27.6875 6.477 l -129.40178 0 c -31.26731 0.076 -38.9375 13.29051 -38.9375 60.78125 11.37291 127.53163 118.51052 227.50001 248.99998 227.50001 2.1574 0 4.2932 -0.039 6.4375 -0.094 127.5789 -3.2323 232.0048 -102.04221 243.1563 -227.50001 0.2945 -83.79318 -24.5864 -102.45514 -72.7613 -101.63325 l -28.3637 0 -43.75 0 z" fill="url(#5)"/>
   <path d="m 1242.6974 694.50279 c -1.4599 -0.0138 -2.9321 0.006 -4.4375 0.0312 l -28.375 0 -43.75 0 -129.2813 0 c -15.4328 0 -27.4466 9.10526 -27.875 20.375 l -0.5312 14.0938 c 0 9.66765 -19.73836 6.46875 -27.68753 6.46875 l -129.40625 0 c -11.96347 0.0291 -20.45976 2.00252 -26.40625 7.0625 5.50923 -2.65022 12.57563 -3.75957 21.59375 -3.78125 l 137.28125 0 c 8.03775 0 28.00003 3.1989 28.00003 -6.46875 l 0.5312 -14.09375 c 0.4332 -11.26974 12.5827 -20.375 28.1875 -20.375 l 130.7188 0 44.25 0 28.6875 0 c 14.3579 -0.24226 26.6584 1.18781 36.875 5.5 -10.234 -6.25981 -23.0459 -8.66798 -38.375 -8.8125 z" fill="#fff8eb" fill-opacity="0.269006"/>
   <path d="m 1061.4161 568.97154 c -78.54253 0 -147.39805 41.50509 -186.06248 103.8125 39.36999 -60.68318 107.98927 -100.875 186.06248 -100.875 78.0732 0 146.6925 40.19182 186.0625 100.875 -38.6644 -62.30741 -107.5199 -103.8125 -186.0625 -103.8125 z" fill="#fff8eb" fill-opacity="0.270588"/>
   <rect width="118.56306" height="92.1295" x="1002.4307" y="820.97931" rx="22.547337" fill="#fff8eb"/>
   <path d="m 1044.4595 841.06464 a 5.723967 5.723967 0 0 0 -5.3791 5.70248 l 0 40.5346 a 5.723967 5.723967 0 0 0 8.6712 4.90883 l 33.8034 -20.282 a 5.723967 5.723967 0 0 0 0 -9.81766 l -33.8034 -20.2526 a 5.723967 5.723967 0 0 0 -3.2921 -0.79365 z" fill="#0078ad"/>
   <path d="m 979.97608,747.81787 c -26.34986,0 -47.5475,21.23015 -47.5475,47.58001 l 0,143.32501 c 0,26.34986 21.19764,47.5475 47.5475,47.5475 l 164.87252,0 c 26.3498,0 47.58,-21.19764 47.58,-47.5475 l 0,-143.32501 c 10e-5,-26.34986 -21.2302,-47.58001 -47.58,-47.58001 l -164.87252,0 z m 7.085,17.35501 150.73502,0 c 19.7813,0 35.7175,15.90366 35.7175,35.685 l 0,132.3725 c 0,19.78134 -15.9362,35.685 -35.7175,35.685 l -150.73502,0 c -19.78133,0 -35.7175,-15.90366 -35.7175,-35.685 l 0,-132.3725 c 0,-19.78134 15.93617,-35.685 35.7175,-35.685 z" fill="#fff8eb" fill-rule="evenodd"/>
   <g transform="translate(810.71429,0)">
    <g transform="translate(-0.73976,0.705875)">
     <path d="m 182.45405 776.47035 0 17.44181 -24.88962 0 0 -3.93711 c 0 -9.70426 7.3079 -13.5047 18.73071 -13.5047 z" fill="#fff8eb" id="6"/>
     <path d="m 182.45405 808.91216 0 17.48427 -24.88962 0 0 -17.48427 24.88962 0 z" fill="#fff8eb" id="7"/>
     <path d="m 182.45405 841.39643 0 17.44184 -24.88962 0 0 -17.44184 24.88962 0 z" fill="#fff8eb" id="8"/>
     <path d="m 182.45405 873.83827 0 17.46303 -24.88962 0 0 -17.46303 24.88962 0 z" fill="#fff8eb" id="9"/>
     <path d="m 182.45405 906.3013 0 17.46305 -24.88962 0 0 -17.46305 24.88962 0 z" fill="#fff8eb" id="A"/>
     <path d="m 182.45405 956.20616 0 -17.44181 -24.88962 0 0 3.93711 c 0 9.70426 7.3079 13.5047 18.73071 13.5047 z" fill="#fff8eb" id="B"/>
    </g>
    <g transform="matrix(-1,0,0,1,504.16834,0.705875)">
     <use xlink:href="#6"/>
     <use xlink:href="#7"/>
     <use xlink:href="#8"/>
     <use xlink:href="#9"/>
     <use xlink:href="#A"/>
     <use xlink:href="#B"/>
    </g>
   </g>
  </g>
 </g>
</svg>
