<svg xmlns="http://www.w3.org/2000/svg" xmlns:xlink="http://www.w3.org/1999/xlink" width="512" height="512">
 <defs>
  <filter color-interpolation-filters="sRGB" height="1.384" width="1.384" y="-0.192" x="-0.192">
   <feGaussianBlur stdDeviation="5.28"/>
  </filter>
  <clipPath>
   <rect y="6" x="6" rx="6" height="84" width="84" fill="#fff"/>
  </clipPath>
  <linearGradient id="0">
   <stop stop-color="#fff"/>
   <stop offset="1" stop-color="#fff" stop-opacity="0"/>
  </linearGradient>
  <filter color-interpolation-filters="sRGB">
   <feGaussianBlur stdDeviation="1.71"/>
  </filter>
  <linearGradient gradientTransform="scale(1.0058652,0.994169)" gradientUnits="userSpaceOnUse" id="1" y2="7.01654" x2="0" y1="92.5396">
   <stop/>
   <stop offset="1" stop-opacity="0.588235"/>
  </linearGradient>
  <linearGradient y2="138.66119" x2="0" y1="20.220806" gradientUnits="userSpaceOnUse" xlink:href="#0"/>
  <linearGradient y2="7.01654" x2="0" y1="92.5396" gradientTransform="scale(1.0058652,0.994169)" gradientUnits="userSpaceOnUse" xlink:href="#1"/>
  <linearGradient gradientUnits="userSpaceOnUse" xlink:href="#0" y2="138.66119" x2="0" y1="20.220806"/>
  <clipPath>
   <rect y="6" x="6" rx="6" height="84" width="84" fill="#fff"/>
  </clipPath>
  <linearGradient xlink:href="#1" gradientUnits="userSpaceOnUse" gradientTransform="scale(1.0058652,0.994169)" y1="92.5396" x2="0" y2="7.01654"/>
 </defs>
 <g transform="translate(0,-540.36218)">
  <text y="850.95929" x="-2282.8652" font-family="Gentium Book Basic" word-spacing="0" line-height="125%" letter-spacing="0" font-size="208.33333"><tspan y="850.95929" x="-2282.8652"/>
  </text>
  <text x="865.78534" y="547.90588" font-family="Gentium Book Basic" word-spacing="0" line-height="125%" letter-spacing="0" font-size="208.33333"><tspan x="865.78534" y="547.90588"/>
  </text>
  <path d="m 506 796.36218 a 250.00001 250.00001 0 1 1 -500 0 250.00001 250.00001 0 1 1 500 0 z" fill="#0078ad" fill-rule="evenodd"/>
  <path d="m 251.36791 546.36218 c -3.21479 0 -6.40874 0.0991 -9.59375 0.22219 132.04379 5.10166 237.53125 114.97879 237.53125 249.79366 0 134.81467 -105.48772 244.65997 -237.53125 249.76187 3.1852 0.1231 6.37877 0.2223 9.59375 0.2223 136.49323 0 247.1562 -111.91745 247.1562 -249.98417 0 -138.06673 -110.66297 -250.01585 -247.1562 -250.01585 z" fill="#fff8eb" fill-rule="evenodd"/>
  <path d="m 96.00001 604.26843 c -14.90078 12.42414 -28.33342 26.53452 -40 42.0625 l 0 300.0625 c 11.66658 15.52798 25.09922 29.63837 40 42.0625 l 0 -384.1875 z" fill="#194467" fill-rule="evenodd"/>
  <path d="m 56.00001 646.33093 c -31.39595 41.78736 -50 93.73959 -50 150.03125 0 56.29166 18.60405 108.24389 50 150.03125 l 0 -300.0625 z" fill="#1c537b" fill-rule="evenodd"/>
  <text y="1727.7844" x="184.60196" word-spacing="0" line-height="125%" letter-spacing="0" font-size="208.33333" font-family="Gentium Book Basic"><tspan y="1727.7844" x="184.60196"/>
  </text>
  <text transform="scale(4.0128362,0.2492003)" font-size="75.69771" y="6370.4263" x="363.7287" font-family="Arial" text-anchor="middle"/>
  <path d="m 269.79586 636.89491 c -34.52797 0 -62.51856 13.7849 -62.51856 63.3226 0 32.8797 12.33547 73.2207 30.72327 96.6528 -0.17166 1.8465 -0.399 3.6909 -0.73093 5.5307 -1.09915 5.0292 -2.85187 10.6804 -7.5529 13.4734 -5.28049 3.1372 -11.13988 5.1158 -16.90877 7.1387 -23.91296 8.0507 -48.6522 15.1425 -69.87656 29.2371 -59.5998 41.9708 44.12713 84.7886 74.4814 85.3965 l 106.8127 0 c 43.30579 -4.1597 131.9355 -45.3212 74.53013 -84.7874 -21.23 -14.087 -45.96353 -21.4864 -69.87656 -29.5295 -5.76991 -2.0228 -11.63969 -4.1739 -16.90876 -7.3092 -4.71242 -2.8005 -6.4604 -8.5107 -7.55291 -13.5465 -0.48082 -2.6706 -0.80131 -5.3946 -0.9502 -8.089 17.33795 -23.7213 28.84722 -62.4006 28.84722 -94.1433 0 -49.5424 -27.98869 -63.3469 -62.51857 -63.3469 z" fill="#fff8eb"/>
 </g>
</svg>
