<svg xmlns="http://www.w3.org/2000/svg" xmlns:xlink="http://www.w3.org/1999/xlink" width="512" height="512">
 <defs>
  <linearGradient id="0">
   <stop stop-color="#00364e" stop-opacity="0.745098"/>
   <stop offset="0.252666" stop-color="#004b6c" stop-opacity="0.745098"/>
   <stop offset="0.476866" stop-color="#0078ad" stop-opacity="0.745098"/>
   <stop offset="1" stop-color="#0081ba" stop-opacity="0.745098"/>
  </linearGradient>
  <linearGradient id="1">
   <stop stop-color="#8f8f8f"/>
   <stop offset="0.175552" stop-color="#a1a1a1"/>
   <stop offset="0.505331" stop-color="#ebebeb"/>
   <stop offset="1" stop-color="#fff"/>
  </linearGradient>
  <linearGradient y2="7.01654" x2="0" y1="92.5396" gradientTransform="scale(1.0058652,0.994169)" gradientUnits="userSpaceOnUse" xlink:href="#3"/>
  <filter x="-0.192" y="-0.192" width="1.384" height="1.384" color-interpolation-filters="sRGB">
   <feGaussianBlur stdDeviation="5.28"/>
  </filter>
  <clipPath>
   <rect width="84" height="84" rx="6" x="6" y="6" fill="#fff"/>
  </clipPath>
  <linearGradient id="2">
   <stop stop-color="#fff"/>
   <stop offset="1" stop-color="#fff" stop-opacity="0"/>
  </linearGradient>
  <linearGradient y1="20.220806" x2="0" y2="138.66119" xlink:href="#2" gradientUnits="userSpaceOnUse"/>
  <filter color-interpolation-filters="sRGB">
   <feGaussianBlur stdDeviation="1.71"/>
  </filter>
  <linearGradient y1="92.5396" x2="0" y2="7.01654" id="3" gradientUnits="userSpaceOnUse" gradientTransform="scale(1.0058652,0.994169)">
   <stop/>
   <stop offset="1" stop-opacity="0.588235"/>
  </linearGradient>
  <clipPath>
   <rect y="6" x="6" rx="6" height="84" width="84" fill="#fff"/>
  </clipPath>
  <linearGradient xlink:href="#0" id="4" gradientUnits="userSpaceOnUse" y1="248.43239" x2="0" y2="96.82441"/>
  <linearGradient xlink:href="#2" gradientUnits="userSpaceOnUse" y1="20.220806" x2="0" y2="138.66119"/>
  <linearGradient xlink:href="#3" gradientUnits="userSpaceOnUse" gradientTransform="scale(1.0058652,0.994169)" y1="92.5396" x2="0" y2="7.01654"/>
  <linearGradient xlink:href="#1" id="5" y1="794.3006" x2="0" y2="670.94196" gradientUnits="userSpaceOnUse" gradientTransform="translate(0,10.101526)"/>
  <linearGradient y2="7.01654" x2="0" y1="92.5396" gradientTransform="scale(1.0058652,0.994169)" gradientUnits="userSpaceOnUse" xlink:href="#3"/>
  <linearGradient y2="138.66119" x2="0" y1="20.220806" gradientUnits="userSpaceOnUse" xlink:href="#2"/>
  <linearGradient id="6">
   <stop stop-color="#0078ad"/>
   <stop offset="1" stop-color="#0081ba"/>
  </linearGradient>
  <clipPath>
   <rect width="84" height="84" rx="6" x="6" y="6" fill="#fff"/>
  </clipPath>
  <clipPath>
   <rect y="6" x="6" rx="6" height="84" width="84" fill="#fff"/>
  </clipPath>
  <linearGradient xlink:href="#2" gradientUnits="userSpaceOnUse" y1="20.220806" x2="0" y2="138.66119"/>
  <linearGradient xlink:href="#3" gradientUnits="userSpaceOnUse" gradientTransform="scale(1.0058652,0.994169)" y1="92.5396" x2="0" y2="7.01654"/>
  <linearGradient xlink:href="#6" id="7" y1="478.25046" x2="0" y2="332.39734" gradientUnits="userSpaceOnUse"/>
 </defs>
 <g transform="translate(0,-540.36217)">
  <text y="1089.8812" x="-1160.4812" font-family="Gentium Book Basic" word-spacing="0" line-height="125%" letter-spacing="0" font-size="208.33333"><tspan y="1089.8812" x="-1160.4812"/>
  </text>
  <text transform="scale(4.0128362,0.2492003)" font-size="75.69771" y="3810.6255" x="28.533577" font-family="Arial" text-anchor="middle"/>
  <path transform="matrix(3.8044095,0,0,1.2222384,-439.88734,508.66795)" d="m 240.41631 229.15729 a 57.57869 179.80716 0 1 1 -115.15739 0 57.57869 179.80716 0 1 1 115.15739 0 z" fill="#0078ad"/>
  <path d="m 240.41631 229.15729 a 57.57869 179.80716 0 1 1 -115.15739 0 57.57869 179.80716 0 1 1 115.15739 0 z" transform="matrix(3.8044095,0,0,1.2222384,-439.88734,508.66795)" fill="url(#4)"/>
  <rect width="320" height="133.89703" x="96.00001" y="666.87805" ry="9.594038" rx="9.1545" fill="url(#5)" fill-rule="evenodd" color="#000"/>
  <path d="m 255.70183 568.97154 c -78.54255 0 -147.39807 41.50509 -186.0625 103.8125 39.36999 -60.68318 107.98927 -100.875 186.0625 -100.875 78.07323 0 146.69251 40.19182 186.0625 100.875 -38.66443 -62.30741 -107.51995 -103.8125 -186.0625 -103.8125 z" fill="#fff8eb" fill-opacity="0.270588"/>
  <text y="1089.8812" x="-1160.4812" font-family="Gentium Book Basic" word-spacing="0" line-height="125%" letter-spacing="0" font-size="208.33333"><tspan y="1089.8812" x="-1160.4812"/>
  </text>
  <text transform="scale(4.0128362,0.2492003)" font-size="75.69771" y="3810.6255" x="28.533577" font-family="Arial" text-anchor="middle"/>
  <path d="m 231.125 200.625 c -15.43286 0 -27.44663 9.10526 -27.875 20.375 l -0.53125 14.09375 c 0 9.66765 -19.73833 6.46875 -27.6875 6.46875 l -129.40625 0 c -23.44708 1.63585 -32.573014 6.42351 -34.467088 29.28614 -0.802345 10.62656 1.818051 20.75043 5.1092 31.94403 29.78848 100.62415 121.19588 174.77213 230.51414 178.73858 0.24876 0.009 0.50105 -0.008 0.75 0 66.38482 1.36094 132.69789 -22.433 178.03125 -67.78125 10.72005 -9.38104 20.54688 -19.60867 29.40625 -30.65625 18.47327 -24.24116 32.6113 -51.95627 41.27009 -81.99686 8.59722 -26.98704 7.60339 -54.35375 -5.55134 -76.31564 -12.08038 -19.09782 -31.57133 -24.6098 -58.15625 -24.15625 l -28.375 0 -43.75 0 z" transform="translate(0,540.36217)" fill="url(#7)"/>
  <path d="m 436.98308 740.85251 c -1.45991 -0.0138 -2.93203 0.006 -4.4375 0.0312 l -28.375 0 -43.75 0 -129.28125 0 c -15.43286 0 -27.44663 9.10526 -27.875 20.375 l -0.53125 14.0938 c 0 9.66765 -19.73833 6.46875 -27.6875 6.46875 l -129.40625 0 c -11.963467 0.0291 -20.459755 2.00252 -26.40625 7.0625 5.50923 -2.65022 12.575629 -3.75957 21.59375 -3.78125 l 137.28125 0 c 8.03775 0 28 3.1989 28 -6.46875 l 0.53125 -14.09375 c 0.43314 -11.26974 12.58267 -20.375 28.1875 -20.375 l 130.71875 0 44.25 0 28.6875 0 c 14.35797 -0.24226 26.65841 1.18781 36.875 5.5 -10.23401 -6.25981 -23.04591 -8.66798 -38.375 -8.8125 z" fill="#fff8eb" fill-opacity="0.269006"/>
  <text y="1066.9421" x="-448.39038" font-family="Gentium Book Basic" word-spacing="0" line-height="125%" letter-spacing="0" font-size="208.33333"><tspan y="1066.9421" x="-448.39038"/>
  </text>
  <text transform="scale(4.0128362,0.2492003)" font-size="75.69771" y="3718.5747" x="205.98682" font-family="Arial" text-anchor="middle"/>
  <text y="1066.9421" x="-448.39038" font-family="Gentium Book Basic" word-spacing="0" line-height="125%" letter-spacing="0" font-size="208.33333"><tspan y="1066.9421" x="-448.39038"/>
  </text>
  <text transform="scale(4.0128362,0.2492003)" font-size="75.69771" y="3718.5747" x="205.98682" font-family="Arial" text-anchor="middle"/>
 </g>
</svg>
