<svg xmlns="http://www.w3.org/2000/svg" xmlns:xlink="http://www.w3.org/1999/xlink" width="512" height="512">
 <defs>
  <linearGradient y2="7.01654" x2="0" y1="92.5396" gradientTransform="scale(1.0058652,0.994169)" gradientUnits="userSpaceOnUse" xlink:href="#1"/>
  <filter x="-0.192" y="-0.192" width="1.384" height="1.384" color-interpolation-filters="sRGB">
   <feGaussianBlur stdDeviation="5.28"/>
  </filter>
  <clipPath>
   <rect width="84" height="84" rx="6" x="6" y="6" fill="#fff"/>
  </clipPath>
  <linearGradient id="0">
   <stop stop-color="#fff"/>
   <stop offset="1" stop-color="#fff" stop-opacity="0"/>
  </linearGradient>
  <linearGradient y1="20.220806" x2="0" y2="138.66119" xlink:href="#0" gradientUnits="userSpaceOnUse"/>
  <filter color-interpolation-filters="sRGB">
   <feGaussianBlur stdDeviation="1.71"/>
  </filter>
  <linearGradient y1="92.5396" x2="0" y2="7.01654" id="1" gradientUnits="userSpaceOnUse" gradientTransform="scale(1.0058652,0.994169)">
   <stop/>
   <stop offset="1" stop-opacity="0.588235"/>
  </linearGradient>
  <clipPath>
   <rect width="84" height="84" rx="6" x="6" y="6" fill="#fff"/>
  </clipPath>
  <clipPath>
   <path d="M 0 0 0 96 96 96 96 0 0 0 z m 12 6 72 0 c 3.324 0 6 2.676 6 6 l 0 72 c 0 3.324 -2.676 6 -6 6 L 12 90 C 8.676 90 6 87.324 6 84 L 6 12 C 6 8.676 8.676 6 12 6 z"/>
  </clipPath>
  <clipPath>
   <rect width="76" height="76" rx="4" x="10" y="10" fill="#fff"/>
  </clipPath>
  <filter color-interpolation-filters="sRGB">
   <feGaussianBlur stdDeviation="1.14"/>
  </filter>
  <clipPath>
   <rect y="6" x="6" rx="6" height="84" width="84" fill="#fff"/>
  </clipPath>
  <clipPath>
   <rect y="6" x="6" rx="6" height="84" width="84" fill="#fff"/>
  </clipPath>
  <linearGradient id="2">
   <stop stop-color="#00364e" stop-opacity="0.745098"/>
   <stop offset="0.175552" stop-color="#004b6c" stop-opacity="0.745098"/>
   <stop offset="0.505331" stop-color="#0078ad" stop-opacity="0.745098"/>
   <stop offset="1" stop-color="#0081ba" stop-opacity="0.745098"/>
  </linearGradient>
  <linearGradient id="3">
   <stop stop-color="#0078ad"/>
   <stop offset="1" stop-color="#0081ba"/>
  </linearGradient>
  <linearGradient xlink:href="#2" id="4" gradientUnits="userSpaceOnUse" y1="203.69342" x2="0" y2="48.17266"/>
  <linearGradient xlink:href="#3" id="5" gradientUnits="userSpaceOnUse" y1="507.03873" x2="0" y2="175.69972" gradientTransform="translate(-0.29816653,517.75279)"/>
  <linearGradient xlink:href="#0" gradientUnits="userSpaceOnUse" y1="20.220806" x2="0" y2="138.66119"/>
  <linearGradient xlink:href="#1" gradientUnits="userSpaceOnUse" gradientTransform="scale(1.0058652,0.994169)" y1="92.5396" x2="0" y2="7.01654"/>
  <linearGradient y2="138.66119" x2="0" y1="20.220806" gradientUnits="userSpaceOnUse" xlink:href="#0"/>
  <linearGradient y2="7.01654" x2="0" y1="92.5396" gradientTransform="scale(1.0058652,0.994169)" gradientUnits="userSpaceOnUse" xlink:href="#1"/>
  <linearGradient y2="138.66119" x2="0" y1="20.220806" gradientUnits="userSpaceOnUse" xlink:href="#0"/>
  <linearGradient y2="7.01654" x2="0" y1="92.5396" gradientTransform="scale(1.0058652,0.994169)" gradientUnits="userSpaceOnUse" xlink:href="#1"/>
  <linearGradient y2="138.66119" x2="0" y1="20.220806" gradientUnits="userSpaceOnUse" xlink:href="#0"/>
  <linearGradient y2="7.01654" x2="0" y1="92.5396" gradientTransform="scale(1.0058652,0.994169)" gradientUnits="userSpaceOnUse" xlink:href="#1"/>
  <linearGradient y2="138.66119" x2="0" y1="20.220806" gradientUnits="userSpaceOnUse" xlink:href="#0"/>
  <linearGradient y2="7.01654" x2="0" y1="92.5396" gradientTransform="scale(1.0058652,0.994169)" gradientUnits="userSpaceOnUse" xlink:href="#1"/>
  <linearGradient y2="138.66119" x2="0" y1="20.220806" gradientUnits="userSpaceOnUse" xlink:href="#0"/>
  <linearGradient y2="7.01654" x2="0" y1="92.5396" gradientTransform="scale(1.0058652,0.994169)" gradientUnits="userSpaceOnUse" xlink:href="#1"/>
  <linearGradient y2="138.66119" x2="0" y1="20.220806" gradientUnits="userSpaceOnUse" xlink:href="#0"/>
  <linearGradient y2="7.01654" x2="0" y1="92.5396" gradientTransform="scale(1.0058652,0.994169)" gradientUnits="userSpaceOnUse" xlink:href="#1"/>
  <clipPath>
   <rect width="84" height="84" rx="6" x="6" y="6" fill="#fff"/>
  </clipPath>
  <clipPath>
   <rect y="6" x="6" rx="6" height="84" width="84" fill="#fff"/>
  </clipPath>
  <clipPath>
   <rect width="84" height="84" rx="6" x="6" y="6" fill="#fff"/>
  </clipPath>
  <clipPath>
   <rect width="84" height="84" rx="6" x="6" y="6" fill="#fff"/>
  </clipPath>
  <clipPath>
   <rect y="10" x="10" rx="4" height="76" width="76" fill="#fff"/>
  </clipPath>
  <clipPath>
   <rect y="6" x="6" rx="6" height="84" width="84" fill="#fff"/>
  </clipPath>
  <clipPath>
   <rect y="6" x="6" rx="6" height="84" width="84" fill="#fff"/>
  </clipPath>
  <clipPath>
   <rect width="84" height="84" rx="6" x="6" y="6" fill="#fff"/>
  </clipPath>
  <clipPath>
   <rect y="10" x="10" rx="4" height="76" width="76" fill="#fff"/>
  </clipPath>
  <clipPath>
   <rect y="6" x="6" rx="6" height="84" width="84" fill="#fff"/>
  </clipPath>
  <linearGradient id="6">
   <stop stop-color="#2276c5"/>
   <stop offset="1" stop-color="#68baf4"/>
  </linearGradient>
  <linearGradient id="7">
   <stop stop-color="#f0f0f0"/>
   <stop offset="1" stop-color="#aaa"/>
  </linearGradient>
  <clipPath>
   <rect y="6" x="6" rx="6" height="84" width="84" fill="#fff"/>
  </clipPath>
  <linearGradient y2="7.01654" x2="0" y1="92.5396" gradientTransform="scale(1.0058652,0.994169)" gradientUnits="userSpaceOnUse" xlink:href="#1"/>
  <clipPath>
   <rect width="84" height="84" rx="6" x="6" y="6" fill="#fff"/>
  </clipPath>
  <linearGradient y1="20.220806" x2="0" y2="138.66119" xlink:href="#0" gradientUnits="userSpaceOnUse"/>
  <clipPath>
   <rect width="84" height="84" rx="6" x="6" y="6" fill="#fff"/>
  </clipPath>
  <clipPath>
   <rect y="10" x="10" rx="4" height="76" width="76" fill="#fff"/>
  </clipPath>
  <clipPath>
   <rect y="6" x="6" rx="6" height="84" width="84" fill="#fff"/>
  </clipPath>
  <clipPath>
   <rect y="6" x="6" rx="6" height="84" width="84" fill="#fff"/>
  </clipPath>
  <linearGradient y2="7.01654" x2="0" y1="92.5396" gradientTransform="scale(1.0058652,0.994169)" gradientUnits="userSpaceOnUse" xlink:href="#1"/>
  <linearGradient y2="138.66119" x2="0" y1="20.220806" gradientUnits="userSpaceOnUse" xlink:href="#0"/>
  <linearGradient y2="7.01654" x2="0" y1="92.5396" gradientTransform="scale(1.0058652,0.994169)" gradientUnits="userSpaceOnUse" xlink:href="#1"/>
  <linearGradient y2="138.66119" x2="0" y1="20.220806" gradientUnits="userSpaceOnUse" xlink:href="#0"/>
  <clipPath>
   <rect width="84" height="84" rx="6" x="6" y="6" fill="#fff"/>
  </clipPath>
  <clipPath>
   <rect y="10" x="10" rx="4" height="76" width="76" fill="#fff"/>
  </clipPath>
  <clipPath>
   <rect y="6" x="6" rx="6" height="84" width="84" fill="#fff"/>
  </clipPath>
  <linearGradient gradientUnits="userSpaceOnUse" xlink:href="#0" y2="138.66119" x2="0" y1="20.220806"/>
  <clipPath>
   <rect y="6" x="6" rx="6" height="84" width="84" fill="#fff"/>
  </clipPath>
  <linearGradient xlink:href="#1" gradientUnits="userSpaceOnUse" gradientTransform="scale(1.0058652,0.994169)" y1="92.5396" x2="0" y2="7.01654"/>
  <linearGradient xlink:href="#6" gradientUnits="userSpaceOnUse" gradientTransform="matrix(2.4493462,0,0,2.4493462,1190.0054,758.95757)" y1="90" x2="0" y2="5.987717"/>
  <radialGradient xlink:href="#0" gradientUnits="userSpaceOnUse" gradientTransform="matrix(2.8346599,0,0,2.4393228,1171.5104,514.5058)" cx="48" cy="90.17188" r="42"/>
  <linearGradient xlink:href="#0" gradientUnits="userSpaceOnUse" gradientTransform="matrix(2.4493462,0,0,2.4493462,1190.0054,514.02297)" y1="6" x2="0" y2="63.893143"/>
  <linearGradient xlink:href="#7" gradientUnits="userSpaceOnUse" gradientTransform="matrix(2.4493462,0,0,2.4493462,1190.0054,514.02297)" y1="6" x2="0" y2="90.01543"/>
  <linearGradient xlink:href="#6" gradientUnits="userSpaceOnUse" gradientTransform="matrix(2.4493462,0,0,2.4493462,1154.5023,1053.5871)" y1="90" x2="0" y2="5.987717"/>
  <radialGradient xlink:href="#0" gradientUnits="userSpaceOnUse" gradientTransform="matrix(2.8346599,0,0,2.4393228,1136.0073,809.13531)" cx="48" cy="90.17188" r="42"/>
  <linearGradient xlink:href="#0" gradientUnits="userSpaceOnUse" gradientTransform="matrix(2.4493462,0,0,2.4493462,1154.5023,808.65247)" y1="6" x2="0" y2="63.893143"/>
  <linearGradient xlink:href="#7" gradientUnits="userSpaceOnUse" gradientTransform="matrix(2.4493462,0,0,2.4493462,1154.5023,808.65247)" y1="6" x2="0" y2="90.01543"/>
 </defs>
 <g transform="translate(0,-540.36217)">
  <text y="1089.8812" x="-1160.4812" font-family="Gentium Book Basic" word-spacing="0" line-height="125%" letter-spacing="0" font-size="208.33333"><tspan y="1089.8812" x="-1160.4812"/>
  </text>
  <text transform="scale(4.0128362,0.2492003)" font-size="75.69771" y="3810.6255" x="28.533577" font-family="Arial" text-anchor="middle"/>
  <path transform="matrix(3.8044095,0,0,1.2222384,-439.88734,508.66795)" d="m 240.41631 229.15729 c 0 99.30475 -25.77886 179.80716 -57.57869 179.80716 -31.79984 0 -57.5787 -80.50241 -57.5787 -179.80716 0 -99.30475 25.77886 -179.80716 57.5787 -179.80716 31.79983 0 57.57869 80.50241 57.57869 179.80716 z" fill="#0078ad"/>
  <path d="m 240.41631 229.15729 c 0 99.30475 -25.77886 179.80716 -57.57869 179.80716 -31.79984 0 -57.5787 -80.50241 -57.5787 -179.80716 0 -99.30475 25.77886 -179.80716 57.5787 -179.80716 31.79983 0 57.57869 80.50241 57.57869 179.80716 z" transform="matrix(3.8044095,0,0,1.2222384,-439.88734,508.66795)" fill="url(#4)"/>
  <path d="m 231.13933 694.52579 c -15.43286 0 -27.44663 9.10526 -27.875 20.375 l -0.53572 14.09375 c 0 9.66765 -19.73833 6.477 -27.6875 6.477 l -129.40178 0 C 14.372028 735.54758 6.701834 748.76205 6.701834 796.25279 18.07475 923.78442 125.21235 1023.7528 255.70183 1023.7528 c 2.15736 0 4.29323 -0.039 6.4375 -0.094 127.5789 -3.2323 232.00477 -102.04221 243.15625 -227.50001 0.29457 -83.79318 -24.58632 -102.45514 -72.76127 -101.63325 l -28.36373 0 -43.75 0 z" fill="url(#5)"/>
  <path d="m 436.98308 694.50279 c -1.45991 -0.0138 -2.93203 0.006 -4.4375 0.0312 l -28.375 0 -43.75 0 -129.28125 0 c -15.43286 0 -27.44663 9.10526 -27.875 20.375 l -0.53125 14.0938 c 0 9.66765 -19.73833 6.46875 -27.6875 6.46875 l -129.40625 0 c -11.963467 0.0291 -20.459755 2.00252 -26.40625 7.0625 5.50923 -2.65022 12.575629 -3.75957 21.59375 -3.78125 l 137.28125 0 c 8.03775 0 28 3.1989 28 -6.46875 l 0.53125 -14.09375 c 0.43314 -11.26974 12.58267 -20.375 28.1875 -20.375 l 130.71875 0 44.25 0 28.6875 0 c 14.35797 -0.24226 26.65841 1.18781 36.875 5.5 -10.23401 -6.25981 -23.04591 -8.66798 -38.375 -8.8125 z" fill="#fff8eb" fill-opacity="0.269006"/>
  <path d="M 256 193.75 C 186.96441 193.75 131 249.71441 131 318.75 C 131 387.78559 186.96441 443.75 256 443.75 C 325.03559 443.75 381 387.78559 381 318.75 C 381 249.71441 325.03559 193.75 256 193.75 z M 234.9375 228.5625 L 277.0625 228.5625 C 284.29279 228.5625 290.25 234.47585 290.25 241.71875 L 290.25 329.8125 L 321.71875 329.8125 A 3.307455 3.307455 0 0 1 324.28125 335.21875 L 258.5625 416.40625 A 3.307455 3.307455 0 0 1 253.4375 416.40625 L 187.71875 335.21875 A 3.307455 3.307455 0 0 1 190.28125 329.8125 L 221.75 329.8125 L 221.75 241.71875 C 221.75 234.47585 227.70721 228.5625 234.9375 228.5625 z" transform="translate(0,540.36217)" fill="#fff8eb" fill-rule="evenodd"/>
  <path d="m 255.70183 568.97154 c -78.54255 0 -147.39807 41.50509 -186.0625 103.8125 39.36999 -60.68318 107.98927 -100.875 186.0625 -100.875 78.07323 0 146.69251 40.19182 186.0625 100.875 -38.66443 -62.30741 -107.51995 -103.8125 -186.0625 -103.8125 z" fill="#fff8eb" fill-opacity="0.270588"/>
  <text y="1089.8812" x="-1160.4812" font-family="Gentium Book Basic" word-spacing="0" line-height="125%" letter-spacing="0" font-size="208.33333"><tspan y="1089.8812" x="-1160.4812"/>
  </text>
  <text transform="scale(4.0128362,0.2492003)" font-size="75.69771" y="3810.6255" x="28.533577" font-family="Arial" text-anchor="middle"/>
  <text y="1032.1323" x="-502.28482" fill="#fff8eb" font-family="Gentium Book Basic" word-spacing="0" line-height="125%" letter-spacing="0" font-size="111.52705"><tspan y="1032.1323" x="-502.28482"/>
  </text>
  <text transform="scale(4.0128362,0.24920031)" font-size="40.523247" y="3840.4463" x="44.91861" fill="#fff8eb" font-family="Arial" text-anchor="middle"/>
  <text y="1024.1776" x="240.39548" fill="#000" font-family="Gentium Book Basic" word-spacing="0" line-height="125%" letter-spacing="0" font-size="93.12147"><tspan y="1024.1776" x="240.39548"/>
  </text>
  <text transform="scale(4.0128363,0.2492003)" font-size="33.835594" y="3858.2551" x="201.92468" fill="#000" font-family="Arial" text-anchor="middle"/>
  <text y="1041.6949" x="237.8064" fill="#000" font-family="Gentium Book Basic" word-spacing="0" line-height="125%" letter-spacing="0" font-size="93.12147"><tspan y="1041.6949" x="237.8064"/>
  </text>
  <text transform="scale(4.0128363,0.2492003)" font-size="33.835594" y="3928.5496" x="201.27948" fill="#000" font-family="Arial" text-anchor="middle"/>
  <text y="957.06451" x="478.77817" transform="scale(1.0508243,0.95163387)" fill="#555753" font-family="Gentium Book Basic" word-spacing="0" line-height="125%" letter-spacing="0" font-size="57.16085"><tspan y="957.06451" x="478.77817"/>
  </text>
  <text transform="scale(4.2167858,0.23714745)" font-size="20.769335" y="3686.1021" x="206.48676" fill="#555753" font-family="Arial" text-anchor="middle"/>
  <text y="941.21985" x="659.36884" transform="scale(1.0508243,0.95163387)" fill="#555753" font-family="Gentium Book Basic" word-spacing="0" line-height="125%" letter-spacing="0" font-size="30.599907"><tspan y="941.21985" x="659.36884"/>
  </text>
  <text transform="scale(4.2167857,0.23714745)" font-size="11.11845" y="3694.2839" x="210.98236" fill="#555753" font-family="Arial" text-anchor="middle"/>
  <text y="964.37775" x="3.495879" fill="#555753" font-family="Gentium Book Basic" word-spacing="0" line-height="125%" letter-spacing="0" font-size="89.39661"><tspan y="964.37775" x="3.495879"/>
  </text>
  <text transform="scale(4.0128362,0.24920031)" font-size="32.482166" y="3628.3523" x="137.20853" fill="#555753" font-family="Arial" text-anchor="middle"/>
  <text y="729.54816" x="275.89856" fill="#000" font-family="Gentium Book Basic" stroke="#cd1d31" word-spacing="0" line-height="125%" stroke-width="0.446983" letter-spacing="0" font-size="93.12147"><tspan y="729.54816" x="275.89856" stroke-width="0.446983"/>
  </text>
  <text transform="scale(4.0128363,0.2492003)" font-size="33.835594" y="2675.9553" x="210.77206" fill="#000" font-family="Arial" text-anchor="middle" stroke="none"/>
  <text y="747.06549" x="273.30945" fill="#000" font-family="Gentium Book Basic" stroke="#cd1d31" word-spacing="0" line-height="125%" stroke-width="0.446983" letter-spacing="0" font-size="93.12147"><tspan y="747.06549" x="273.30945" stroke-width="0.446983"/>
  </text>
  <text transform="scale(4.0128363,0.2492003)" font-size="33.835594" y="2746.2495" x="210.12686" fill="#000" font-family="Arial" text-anchor="middle" stroke="none"/>
  <text y="647.46069" x="512.56409" transform="scale(1.0508243,0.95163387)" fill="#555753" font-family="Gentium Book Basic" stroke="#cd1d31" word-spacing="0" line-height="125%" stroke-width="0.446983" letter-spacing="0" font-size="57.16085"><tspan y="647.46069" x="512.56409" stroke-width="0.446983"/>
  </text>
  <text transform="scale(4.2167858,0.23714745)" font-size="20.769335" y="2443.7124" x="214.90622" fill="#555753" font-family="Arial" text-anchor="middle" stroke="#cd1d31" stroke-width="0.446983"/>
  <text y="631.61597" x="693.15479" transform="scale(1.0508243,0.95163387)" fill="#555753" font-family="Gentium Book Basic" stroke="#cd1d31" word-spacing="0" line-height="125%" stroke-width="0.446983" letter-spacing="0" font-size="30.599907"><tspan y="631.61597" x="693.15479" stroke-width="0.446983"/>
  </text>
  <text transform="scale(4.2167857,0.23714745)" font-size="11.11845" y="2451.8945" x="219.40182" fill="#555753" font-family="Arial" text-anchor="middle" stroke="#cd1d31" stroke-width="0.446983"/>
  <text y="669.74823" x="38.998947" fill="#555753" font-family="Gentium Book Basic" stroke="#cd1d31" word-spacing="0" line-height="125%" stroke-width="0.446983" letter-spacing="0" font-size="89.39661"><tspan y="669.74823" x="38.998947" stroke-width="0.446983"/>
  </text>
  <text transform="scale(4.0128362,0.24920031)" font-size="32.482166" y="2446.0525" x="146.05591" fill="#555753" font-family="Arial" text-anchor="middle" stroke="none"/>
  <text y="601.06903" x="601.94293" fill="#000" font-family="Gentium Book Basic" stroke="#cd1d31" word-spacing="0" line-height="125%" stroke-width="0.446983" letter-spacing="0" font-size="89.39661"><tspan y="601.06903" x="601.94293" stroke-width="0.446983"/>
  </text>
  <text transform="scale(4.0128362,0.24920031)" font-size="32.482166" y="2170.4539" x="286.34171" fill="#000" font-family="Arial" text-anchor="middle" stroke="none"/>
  <text y="545.72473" x="1004.0554" fill="#000" font-family="Gentium Book Basic" stroke="#cd1d31" word-spacing="0" line-height="125%" stroke-width="0.446983" letter-spacing="0" font-size="89.39661"><tspan y="545.72473" x="1004.0554" stroke-width="0.446983"/>
  </text>
  <text transform="scale(4.0128362,0.24920031)" font-size="32.482166" y="1948.3663" x="386.54828" fill="#000" font-family="Arial" text-anchor="middle" stroke="none"/>
  <g transform="matrix(0.93244717,0,0,0.93244717,510.24797,62.819242)"/>
 </g>
</svg>
