<svg xmlns="http://www.w3.org/2000/svg" xmlns:xlink="http://www.w3.org/1999/xlink" width="512" height="512">
 <defs>
  <linearGradient y2="7.01654" x2="0" y1="92.5396" gradientTransform="scale(1.0058652,0.994169)" gradientUnits="userSpaceOnUse" xlink:href="#1"/>
  <filter x="-0.192" y="-0.192" width="1.384" height="1.384" color-interpolation-filters="sRGB">
   <feGaussianBlur stdDeviation="5.28"/>
  </filter>
  <clipPath>
   <rect width="84" height="84" rx="6" x="6" y="6" fill="#fff"/>
  </clipPath>
  <linearGradient id="0">
   <stop stop-color="#fff"/>
   <stop offset="1" stop-color="#fff" stop-opacity="0"/>
  </linearGradient>
  <linearGradient y1="20.220806" x2="0" y2="138.66119" xlink:href="#0" gradientUnits="userSpaceOnUse"/>
  <filter color-interpolation-filters="sRGB">
   <feGaussianBlur stdDeviation="1.71"/>
  </filter>
  <linearGradient y1="92.5396" x2="0" y2="7.01654" id="1" gradientUnits="userSpaceOnUse" gradientTransform="scale(1.0058652,0.994169)">
   <stop/>
   <stop offset="1" stop-opacity="0.588235"/>
  </linearGradient>
  <clipPath>
   <rect y="6" x="6" rx="6" height="84" width="84" fill="#fff"/>
  </clipPath>
  <linearGradient id="2">
   <stop stop-color="#00364e" stop-opacity="0.745098"/>
   <stop offset="0.175552" stop-color="#004b6c" stop-opacity="0.745098"/>
   <stop offset="0.505331" stop-color="#0078ad" stop-opacity="0.745098"/>
   <stop offset="1" stop-color="#0081ba" stop-opacity="0.745098"/>
  </linearGradient>
  <linearGradient id="3">
   <stop stop-color="#0078ad"/>
   <stop offset="1" stop-color="#0081ba"/>
  </linearGradient>
  <linearGradient xlink:href="#2" id="4" gradientUnits="userSpaceOnUse" y1="203.69342" x2="0" y2="48.17266"/>
  <linearGradient xlink:href="#3" id="5" gradientUnits="userSpaceOnUse" y1="507.03873" x2="0" y2="175.69972" gradientTransform="translate(-0.29816769,517.75279)"/>
  <linearGradient xlink:href="#0" gradientUnits="userSpaceOnUse" y1="20.220806" x2="0" y2="138.66119"/>
  <linearGradient xlink:href="#1" gradientUnits="userSpaceOnUse" gradientTransform="scale(1.0058652,0.994169)" y1="92.5396" x2="0" y2="7.01654"/>
  <clipPath>
   <rect width="84" height="84" rx="6" x="6" y="6" fill="#fff"/>
  </clipPath>
  <clipPath>
   <rect y="6" x="6" rx="6" height="84" width="84" fill="#fff"/>
  </clipPath>
  <linearGradient xlink:href="#0" gradientUnits="userSpaceOnUse" y1="20.220806" x2="0" y2="138.66119"/>
  <linearGradient xlink:href="#1" gradientUnits="userSpaceOnUse" gradientTransform="scale(1.0058652,0.994169)" y1="92.5396" x2="0" y2="7.01654"/>
  <linearGradient xlink:href="#0" gradientUnits="userSpaceOnUse" y1="20.220806" x2="0" y2="138.66119"/>
  <linearGradient xlink:href="#1" gradientUnits="userSpaceOnUse" gradientTransform="scale(1.0058652,0.994169)" y1="92.5396" x2="0" y2="7.01654"/>
  <clipPath>
   <rect width="84" height="84" rx="6" x="6" y="6" fill="#fff"/>
  </clipPath>
  <clipPath>
   <rect width="84" height="84" rx="6" x="6" y="6" fill="#fff"/>
  </clipPath>
  <clipPath>
   <rect y="6" x="6" rx="6" height="84" width="84" fill="#fff"/>
  </clipPath>
  <clipPath>
   <rect width="84" height="84" rx="6" x="6" y="6" fill="#fff"/>
  </clipPath>
  <clipPath>
   <rect y="6" x="6" rx="6" height="84" width="84" fill="#fff"/>
  </clipPath>
  <clipPath>
   <rect width="84" height="84" rx="6" x="6" y="6" fill="#fff"/>
  </clipPath>
  <clipPath>
   <rect y="6" x="6" rx="6" height="84" width="84" fill="#fff"/>
  </clipPath>
  <clipPath>
   <rect width="84" height="84" rx="6" x="6" y="6" fill="#fff"/>
  </clipPath>
  <clipPath>
   <rect y="6" x="6" rx="6" height="84" width="84" fill="#fff"/>
  </clipPath>
  <linearGradient xlink:href="#0" gradientUnits="userSpaceOnUse" y1="20.220806" x2="0" y2="138.66119"/>
  <linearGradient xlink:href="#1" gradientUnits="userSpaceOnUse" gradientTransform="scale(1.0058652,0.994169)" y1="92.5396" x2="0" y2="7.01654"/>
  <linearGradient xlink:href="#0" gradientUnits="userSpaceOnUse" y1="20.220806" x2="0" y2="138.66119"/>
  <linearGradient xlink:href="#1" gradientUnits="userSpaceOnUse" gradientTransform="scale(1.0058652,0.994169)" y1="92.5396" x2="0" y2="7.01654"/>
  <clipPath>
   <rect width="84" height="84" rx="6" x="6" y="6" fill="#fff"/>
  </clipPath>
  <clipPath>
   <rect width="84" height="84" rx="6" x="6" y="6" fill="#fff"/>
  </clipPath>
  <filter color-interpolation-filters="sRGB">
   <feGaussianBlur stdDeviation="1.14"/>
  </filter>
  <clipPath>
   <rect y="10" x="10" rx="4" height="76" width="76" fill="#fff"/>
  </clipPath>
  <clipPath>
   <path d="M 0 0 0 96 96 96 96 0 0 0 z m 12 6 72 0 c 3.324 0 6 2.676 6 6 l 0 72 c 0 3.324 -2.676 6 -6 6 L 12 90 C 8.676 90 6 87.324 6 84 L 6 12 C 6 8.676 8.676 6 12 6 z"/>
  </clipPath>
  <clipPath>
   <rect y="6" x="6" rx="6" height="84" width="84" fill="#fff"/>
  </clipPath>
  <clipPath>
   <rect y="6" x="6" rx="6" height="84" width="84" fill="#fff"/>
  </clipPath>
  <linearGradient y2="7.01654" x2="0" y1="92.5396" gradientTransform="scale(1.0058652,0.994169)" gradientUnits="userSpaceOnUse" xlink:href="#1"/>
  <linearGradient y2="138.66119" x2="0" y1="20.220806" gradientUnits="userSpaceOnUse" xlink:href="#0"/>
  <linearGradient y2="7.01654" x2="0" y1="92.5396" gradientTransform="scale(1.0058652,0.994169)" gradientUnits="userSpaceOnUse" xlink:href="#1"/>
  <linearGradient y2="138.66119" x2="0" y1="20.220806" gradientUnits="userSpaceOnUse" xlink:href="#0"/>
  <clipPath>
   <rect width="84" height="84" rx="6" x="6" y="6" fill="#fff"/>
  </clipPath>
  <clipPath>
   <rect y="10" x="10" rx="4" height="76" width="76" fill="#fff"/>
  </clipPath>
  <clipPath>
   <rect y="6" x="6" rx="6" height="84" width="84" fill="#fff"/>
  </clipPath>
  <linearGradient id="6">
   <stop stop-color="#2276c5"/>
   <stop offset="1" stop-color="#68baf4"/>
  </linearGradient>
  <linearGradient id="7">
   <stop stop-color="#f0f0f0"/>
   <stop offset="1" stop-color="#aaa"/>
  </linearGradient>
  <clipPath>
   <rect y="6" x="6" rx="6" height="84" width="84" fill="#fff"/>
  </clipPath>
  <linearGradient xlink:href="#6" gradientUnits="userSpaceOnUse" gradientTransform="matrix(2.7398645,0,0,2.7398645,567.69903,1038.7836)" y1="90" x2="0" y2="5.987717"/>
  <radialGradient xlink:href="#0" gradientUnits="userSpaceOnUse" gradientTransform="matrix(3.1708805,0,0,2.7286522,547.01026,765.33725)" cx="48" cy="90.17188" r="42"/>
  <linearGradient xlink:href="#0" gradientUnits="userSpaceOnUse" gradientTransform="matrix(2.7398645,0,0,2.7398645,567.69903,764.79713)" y1="6" x2="0" y2="63.893143"/>
  <linearGradient xlink:href="#7" gradientUnits="userSpaceOnUse" gradientTransform="matrix(2.7398645,0,0,2.7398645,567.69903,764.79713)" y1="6" x2="0" y2="90.01543"/>
  <linearGradient xlink:href="#0" gradientUnits="userSpaceOnUse" y1="20.220806" x2="0" y2="138.66119"/>
  <linearGradient xlink:href="#1" gradientUnits="userSpaceOnUse" gradientTransform="scale(1.0058652,0.994169)" y1="92.5396" x2="0" y2="7.01654"/>
  <linearGradient xlink:href="#0" gradientUnits="userSpaceOnUse" y1="20.220806" x2="0" y2="138.66119"/>
  <linearGradient xlink:href="#1" gradientUnits="userSpaceOnUse" gradientTransform="scale(1.0058652,0.994169)" y1="92.5396" x2="0" y2="7.01654"/>
  <linearGradient xlink:href="#0" gradientUnits="userSpaceOnUse" y1="20.220806" x2="0" y2="138.66119"/>
  <linearGradient xlink:href="#1" gradientUnits="userSpaceOnUse" gradientTransform="scale(1.0058652,0.994169)" y1="92.5396" x2="0" y2="7.01654"/>
  <linearGradient xlink:href="#0" gradientUnits="userSpaceOnUse" y1="20.220806" x2="0" y2="138.66119"/>
  <linearGradient xlink:href="#1" gradientUnits="userSpaceOnUse" gradientTransform="scale(1.0058652,0.994169)" y1="92.5396" x2="0" y2="7.01654"/>
  <linearGradient xlink:href="#0" gradientUnits="userSpaceOnUse" y1="20.220806" x2="0" y2="138.66119"/>
  <linearGradient xlink:href="#1" gradientUnits="userSpaceOnUse" gradientTransform="scale(1.0058652,0.994169)" y1="92.5396" x2="0" y2="7.01654"/>
  <linearGradient xlink:href="#0" gradientUnits="userSpaceOnUse" y1="20.220806" x2="0" y2="138.66119"/>
  <linearGradient xlink:href="#1" gradientUnits="userSpaceOnUse" gradientTransform="scale(1.0058652,0.994169)" y1="92.5396" x2="0" y2="7.01654"/>
  <linearGradient xlink:href="#0" gradientUnits="userSpaceOnUse" y1="20.220806" x2="0" y2="138.66119"/>
  <linearGradient xlink:href="#1" gradientUnits="userSpaceOnUse" gradientTransform="scale(1.0058652,0.994169)" y1="92.5396" x2="0" y2="7.01654"/>
  <linearGradient xlink:href="#0" gradientUnits="userSpaceOnUse" y1="20.220806" x2="0" y2="138.66119"/>
  <linearGradient xlink:href="#1" gradientUnits="userSpaceOnUse" gradientTransform="scale(1.0058652,0.994169)" y1="92.5396" x2="0" y2="7.01654"/>
  <linearGradient xlink:href="#0" gradientUnits="userSpaceOnUse" y1="20.220806" x2="0" y2="138.66119"/>
  <linearGradient xlink:href="#1" gradientUnits="userSpaceOnUse" gradientTransform="scale(1.0058652,0.994169)" y1="92.5396" x2="0" y2="7.01654"/>
 </defs>
 <g transform="translate(0,-540.36217)">
  <text y="1089.8812" x="-1160.4812" font-family="Gentium Book Basic" word-spacing="0" line-height="125%" letter-spacing="0" font-size="208.33333"><tspan y="1089.8812" x="-1160.4812"/>
  </text>
  <text transform="scale(4.0128362,0.2492003)" font-size="75.69771" y="3810.6255" x="28.533577" font-family="Arial" text-anchor="middle"/>
  <path transform="matrix(3.8044095,0,0,1.2222384,-439.88734,508.66795)" d="m 240.41631 229.15729 c 0 99.30475 -25.77886 179.80716 -57.57869 179.80716 -31.79984 0 -57.5787 -80.50241 -57.5787 -179.80716 0 -99.30475 25.77886 -179.80716 57.5787 -179.80716 31.79983 0 57.57869 80.50241 57.57869 179.80716 z" fill="#0078ad"/>
  <path d="m 240.41631 229.15729 c 0 99.30475 -25.77886 179.80716 -57.57869 179.80716 -31.79984 0 -57.5787 -80.50241 -57.5787 -179.80716 0 -99.30475 25.77886 -179.80716 57.5787 -179.80716 31.79983 0 57.57869 80.50241 57.57869 179.80716 z" transform="matrix(3.8044095,0,0,1.2222384,-439.88734,508.66795)" fill="url(#4)"/>
  <path d="m 231.13933 694.52579 c -15.43286 0 -27.44663 9.10526 -27.875 20.375 l -0.53572 14.09375 c 0 9.66765 -19.73833 6.477 -27.6875 6.477 l -129.40178 0 C 14.372027 735.54758 6.701832 748.76205 6.701832 796.25279 18.07475 923.78442 125.21235 1023.7528 255.70183 1023.7528 c 2.15736 0 4.29323 -0.039 6.4375 -0.094 127.5789 -3.2323 232.00477 -102.04221 243.15625 -227.50001 0.29457 -83.79318 -24.58632 -102.45514 -72.76127 -101.63325 l -28.36373 0 -43.75 0 z" fill="url(#5)"/>
  <path d="m 436.98308 694.50279 c -1.45991 -0.0138 -2.93203 0.006 -4.4375 0.0312 l -28.375 0 -43.75 0 -129.28125 0 c -15.43286 0 -27.44663 9.10526 -27.875 20.375 l -0.53125 14.0938 c 0 9.66765 -19.73833 6.46875 -27.6875 6.46875 l -129.40625 0 c -11.963467 0.0291 -20.459755 2.00252 -26.40625 7.0625 5.50923 -2.65022 12.575629 -3.75957 21.59375 -3.78125 l 137.28125 0 c 8.03775 0 28 3.1989 28 -6.46875 l 0.53125 -14.09375 c 0.43314 -11.26974 12.58267 -20.375 28.1875 -20.375 l 130.71875 0 44.25 0 28.6875 0 c 14.35797 -0.24226 26.65841 1.18781 36.875 5.5 -10.23401 -6.25981 -23.04591 -8.66798 -38.375 -8.8125 z" fill="#fff8eb" fill-opacity="0.269006"/>
  <path d="m 255.70183 568.97154 c -78.54255 0 -147.39807 41.50509 -186.0625 103.8125 39.36999 -60.68318 107.98927 -100.875 186.0625 -100.875 78.07323 0 146.69251 40.19182 186.0625 100.875 -38.66443 -62.30741 -107.51995 -103.8125 -186.0625 -103.8125 z" fill="#fff8eb" fill-opacity="0.270588"/>
  <text y="1089.8812" x="-1160.4812" font-family="Gentium Book Basic" word-spacing="0" line-height="125%" letter-spacing="0" font-size="208.33333"><tspan y="1089.8812" x="-1160.4812"/>
  </text>
  <text transform="scale(4.0128362,0.2492003)" font-size="75.69771" y="3810.6255" x="28.533577" font-family="Arial" text-anchor="middle"/>
  <text y="728.42273" x="584.578" font-family="Gentium Book Basic" word-spacing="0" line-height="125%" letter-spacing="0" font-size="200"><tspan y="728.42273" x="584.578"/>
  </text>
  <text transform="scale(4.0128361,0.24920031)" font-size="72.6698" y="2382.6677" x="450.69385" font-family="Arial" text-anchor="middle"/>
  <text y="604.60535" x="1484.1925" font-family="Gentium Book Basic" word-spacing="0" line-height="125%" letter-spacing="0" font-size="200"><tspan y="604.60535" x="1484.1925"/>
  </text>
  <text transform="scale(4.0128361,0.24920031)" font-size="72.6698" y="1885.809" x="674.87811" font-family="Arial" text-anchor="middle"/>
  <text y="1005.8859" x="-454.83057" font-family="Gentium Book Basic" word-spacing="0" line-height="125%" letter-spacing="0" font-size="104.16666"><tspan y="1005.8859" x="-454.83057"/>
  </text>
  <text transform="scale(4.0128362,0.2492003)" font-size="37.84885" y="3755.0105" x="45.518986" font-family="Arial" text-anchor="middle"/>
  <text y="1025.481" x="-457.72675" font-family="Gentium Book Basic" word-spacing="0" line-height="125%" letter-spacing="0" font-size="104.16666"><tspan y="1025.481" x="-457.72675"/>
  </text>
  <text transform="scale(4.0128362,0.2492003)" font-size="37.84885" y="3833.6423" x="44.797253" font-family="Arial" text-anchor="middle"/>
  <text y="923.70868" x="-153.1687" transform="scale(1.0508243,0.95163387)" fill="#555753" font-family="Gentium Book Basic" word-spacing="0" line-height="125%" letter-spacing="0" font-size="63.940727"><tspan y="923.70868" x="-153.1687"/>
  </text>
  <text transform="scale(4.2167857,0.23714746)" font-size="23.2328" y="3533.9319" x="59.3453" fill="#555753" font-family="Arial" text-anchor="middle"/>
  <text y="905.98468" x="48.841957" transform="scale(1.0508243,0.95163387)" fill="#555753" font-family="Gentium Book Basic" word-spacing="0" line-height="125%" letter-spacing="0" font-size="34.22938"><tspan y="905.98468" x="48.841957"/>
  </text>
  <text transform="scale(4.2167856,0.23714746)" font-size="12.437212" y="3543.0845" x="64.37412" fill="#555753" font-family="Arial" text-anchor="middle"/>
  <text y="938.9931" x="-719.82898" fill="#555753" font-family="Gentium Book Basic" word-spacing="0" line-height="125%" letter-spacing="0" font-size="99.99999"><tspan y="938.9931" x="-719.82898"/>
  </text>
  <text transform="scale(4.012836,0.24920031)" font-size="36.3349" y="3497.8386" x="-26.873194" fill="#555753" font-family="Arial" text-anchor="middle"/>
  <text y="862.16772" x="-90.11388" fill="#000" font-family="Gentium Book Basic" word-spacing="0" line-height="125%" letter-spacing="0" font-size="99.99999"><tspan y="862.16772" x="-90.11388"/>
  </text>
  <text transform="scale(4.012836,0.24920031)" font-size="36.3349" y="3189.5513" x="130.052" fill="#000" font-family="Arial" text-anchor="middle"/>
  <text y="800.25909" x="359.69336" fill="#000" font-family="Gentium Book Basic" word-spacing="0" line-height="125%" letter-spacing="0" font-size="99.99999"><tspan y="800.25909" x="359.69336"/>
  </text>
  <text transform="scale(4.012836,0.24920031)" font-size="36.3349" y="2941.1218" x="242.1441" fill="#000" font-family="Arial" text-anchor="middle"/>
  <text y="960.16101" x="-752.69147" fill="#000" font-family="Gentium Book Basic" word-spacing="0" line-height="125%" letter-spacing="0" font-size="99.99999"><tspan y="960.16101" x="-752.69147"/>
  </text>
  <text transform="scale(4.012836,0.24920031)" font-size="36.3349" y="3582.782" x="-35.06254" fill="#000" font-family="Arial" text-anchor="middle"/>
  <text y="792.64502" x="97.02277" fill="#000" font-family="Gentium Book Basic" word-spacing="0" line-height="125%" letter-spacing="0" font-size="99.99999"><tspan y="792.64502" x="97.02277"/>
  </text>
  <text transform="scale(4.012836,0.24920031)" font-size="36.3349" y="2910.5679" x="176.68651" fill="#000" font-family="Arial" text-anchor="middle"/>
  <text y="730.73639" x="546.83002" fill="#000" font-family="Gentium Book Basic" word-spacing="0" line-height="125%" letter-spacing="0" font-size="99.99999"><tspan y="730.73639" x="546.83002"/>
  </text>
  <text transform="scale(4.012836,0.24920031)" font-size="36.3349" y="2662.1387" x="288.77859" fill="#000" font-family="Arial" text-anchor="middle"/>
  <text y="365.17511" x="245.71313" fill="#000" font-family="Gentium Book Basic" word-spacing="0" line-height="125%" letter-spacing="0" font-size="99.99999"><tspan y="365.17511" x="245.71313"/>
  </text>
  <text transform="scale(4.012836,0.24920031)" font-size="36.3349" y="1195.2014" x="213.74019" fill="#000" font-family="Arial" text-anchor="middle"/>
  <text y="303.26645" x="695.52032" fill="#000" font-family="Gentium Book Basic" word-spacing="0" line-height="125%" letter-spacing="0" font-size="99.99999"><tspan y="303.26645" x="695.52032"/>
  </text>
  <text transform="scale(4.012836,0.24920031)" font-size="36.3349" y="946.77191" x="325.83231" fill="#000" font-family="Arial" text-anchor="middle"/>
  <path d="m 256 745.54074 c -69.0356 0 -125 55.9644 -125 125 0 69.0356 55.9644 125 125 125 69.0356 0 125 -55.9644 125 -125 0 -69.0356 -55.9644 -125 -125 -125 z m -0.875 49.15625 1.75 0 c 9.99982 0 18.0625 9.35697 18.0625 21 l 0 35.90625 35.90625 0 c 11.64303 0 21.03125 8.06268 21.03125 18.0625 l 0 1.78125 c 0 9.99982 -9.38822 18.03125 -21.03125 18.03125 l -35.90625 0 0 35.90625 c 0 11.64303 -8.06268 21.03125 -18.0625 21.03125 l -1.75 0 c -9.99982 0 -18.0625 -9.38822 -18.0625 -21.03125 l 0 -35.90625 -35.90625 0 c -11.64303 0 -21.03125 -8.03143 -21.03125 -18.03125 l 0 -1.78125 c 0 -9.99982 9.38822 -18.0625 21.03125 -18.0625 l 35.90625 0 0 -35.90625 c 0 -11.64303 8.06268 -21 18.0625 -21 z" fill="#fff8eb" fill-rule="evenodd"/>
 </g>
</svg>
