<svg xmlns="http://www.w3.org/2000/svg" xmlns:xlink="http://www.w3.org/1999/xlink" width="512" height="512">
 <defs>
  <linearGradient y2="7.01654" x2="0" y1="92.5396" gradientTransform="scale(1.0058652,0.994169)" gradientUnits="userSpaceOnUse" xlink:href="#1"/>
  <filter x="-0.192" y="-0.192" width="1.384" height="1.384" color-interpolation-filters="sRGB">
   <feGaussianBlur stdDeviation="5.28"/>
  </filter>
  <clipPath>
   <rect width="84" height="84" rx="6" x="6" y="6" fill="#fff"/>
  </clipPath>
  <linearGradient id="0">
   <stop stop-color="#fff"/>
   <stop offset="1" stop-color="#fff" stop-opacity="0"/>
  </linearGradient>
  <linearGradient y1="20.220806" x2="0" y2="138.66119" xlink:href="#0" gradientUnits="userSpaceOnUse"/>
  <filter color-interpolation-filters="sRGB">
   <feGaussianBlur stdDeviation="1.71"/>
  </filter>
  <linearGradient y1="92.5396" x2="0" y2="7.01654" id="1" gradientUnits="userSpaceOnUse" gradientTransform="scale(1.0058652,0.994169)">
   <stop/>
   <stop offset="1" stop-opacity="0.588235"/>
  </linearGradient>
  <clipPath>
   <rect y="6" x="6" rx="6" height="84" width="84" fill="#fff"/>
  </clipPath>
  <linearGradient id="2">
   <stop stop-color="#00364e" stop-opacity="0.745098"/>
   <stop offset="0.175552" stop-color="#004b6c" stop-opacity="0.745098"/>
   <stop offset="0.505331" stop-color="#0078ad" stop-opacity="0.745098"/>
   <stop offset="1" stop-color="#0081ba" stop-opacity="0.745098"/>
  </linearGradient>
  <linearGradient id="3">
   <stop stop-color="#0078ad"/>
   <stop offset="1" stop-color="#0081ba"/>
  </linearGradient>
  <linearGradient xlink:href="#2" id="4" gradientUnits="userSpaceOnUse" y1="203.69342" x2="0" y2="48.17266"/>
  <linearGradient xlink:href="#3" id="5" gradientUnits="userSpaceOnUse" y1="507.03873" x2="0" y2="175.69972" gradientTransform="translate(-0.29816769,517.75279)"/>
  <linearGradient xlink:href="#0" gradientUnits="userSpaceOnUse" y1="20.220806" x2="0" y2="138.66119"/>
  <linearGradient xlink:href="#1" gradientUnits="userSpaceOnUse" gradientTransform="scale(1.0058652,0.994169)" y1="92.5396" x2="0" y2="7.01654"/>
 </defs>
 <g transform="translate(0,-540.36217)">
  <text y="1089.8812" x="-1160.4812" font-family="Gentium Book Basic" word-spacing="0" line-height="125%" letter-spacing="0" font-size="208.33333"><tspan y="1089.8812" x="-1160.4812"/>
  </text>
  <text transform="scale(4.0128362,0.2492003)" font-size="75.69771" y="3810.6255" x="28.533577" font-family="Arial" text-anchor="middle"/>
  <path transform="matrix(3.8044095,0,0,1.2222384,-439.88734,508.66795)" d="m 240.41631 229.15729 c 0 99.30475 -25.77886 179.80716 -57.57869 179.80716 -31.79984 0 -57.5787 -80.50241 -57.5787 -179.80716 0 -99.30475 25.77886 -179.80716 57.5787 -179.80716 31.79983 0 57.57869 80.50241 57.57869 179.80716 z" fill="#0078ad"/>
  <path d="m 240.41631 229.15729 c 0 99.30475 -25.77886 179.80716 -57.57869 179.80716 -31.79984 0 -57.5787 -80.50241 -57.5787 -179.80716 0 -99.30475 25.77886 -179.80716 57.5787 -179.80716 31.79983 0 57.57869 80.50241 57.57869 179.80716 z" transform="matrix(3.8044095,0,0,1.2222384,-439.88734,508.66795)" fill="url(#4)"/>
  <path d="m 231.13933 694.52579 c -15.43286 0 -27.44663 9.10526 -27.875 20.375 l -0.53572 14.09375 c 0 9.66765 -19.73833 6.477 -27.6875 6.477 l -129.40178 0 C 14.372027 735.54758 6.701832 748.76205 6.701832 796.25279 18.07475 923.78442 125.21235 1023.7528 255.70183 1023.7528 c 2.15736 0 4.29323 -0.039 6.4375 -0.094 127.5789 -3.2323 232.00477 -102.04221 243.15625 -227.50001 0.29457 -83.79318 -24.58632 -102.45514 -72.76127 -101.63325 l -28.36373 0 -43.75 0 z" fill="url(#5)"/>
  <path d="m 436.98308 694.50279 c -1.45991 -0.0138 -2.93203 0.006 -4.4375 0.0312 l -28.375 0 -43.75 0 -129.28125 0 c -15.43286 0 -27.44663 9.10526 -27.875 20.375 l -0.53125 14.0938 c 0 9.66765 -19.73833 6.46875 -27.6875 6.46875 l -129.40625 0 c -11.963467 0.0291 -20.459755 2.00252 -26.40625 7.0625 5.50923 -2.65022 12.575629 -3.75957 21.59375 -3.78125 l 137.28125 0 c 8.03775 0 28 3.1989 28 -6.46875 l 0.53125 -14.09375 c 0.43314 -11.26974 12.58267 -20.375 28.1875 -20.375 l 130.71875 0 44.25 0 28.6875 0 c 14.35797 -0.24226 26.65841 1.18781 36.875 5.5 -10.23401 -6.25981 -23.04591 -8.66798 -38.375 -8.8125 z" fill="#fff8eb" fill-opacity="0.269006"/>
  <path d="m 255.70183 568.97154 c -78.54255 0 -147.39807 41.50509 -186.0625 103.8125 39.36999 -60.68318 107.98927 -100.875 186.0625 -100.875 78.07323 0 146.69251 40.19182 186.0625 100.875 -38.66443 -62.30741 -107.51995 -103.8125 -186.0625 -103.8125 z" fill="#fff8eb" fill-opacity="0.270588"/>
  <text y="1089.8812" x="-1160.4812" font-family="Gentium Book Basic" word-spacing="0" line-height="125%" letter-spacing="0" font-size="208.33333"><tspan y="1089.8812" x="-1160.4812"/>
  </text>
  <text transform="scale(4.0128362,0.2492003)" font-size="75.69771" y="3810.6255" x="28.533577" font-family="Arial" text-anchor="middle"/>
  <path d="m 176.7188,744.48575 c -25.3364,0 -45.7188,20.4136 -45.7188,45.75 l 0,137.8125 c 0,25.3364 20.3824,45.71875 45.7188,45.71875 l 158.5312,0 c 25.3364,0 45.75,-20.38235 45.75,-45.71875 l 0,-137.8125 c 10e-5,-25.3364 -20.4136,-45.75 -45.75,-45.75 l -158.5312,0 z m 17.4375,22.625 123.6563,0 c 21.3254,0 38.5,17.17457 38.5,38.5 l 0,107.03125 c 0,21.32543 -17.1746,38.5 -38.5,38.5 l -123.6563,0 c -21.3254,0 -38.5,-17.17457 -38.5,-38.5 l 0,-107.03125 c 0,-21.32543 17.1746,-38.5 38.5,-38.5 z" fill="#fff8eb" fill-rule="evenodd"/>
  <g transform="matrix(2.26354625 0 0 2.26354625 695.15438 120.34672)" fill="#fff8eb" stroke="#fff8eb">
   <path d="m -235.92049 359.04247 83.70427 0 c -7.64333 -15.54935 -10.81619 -34.00088 -25.39119 -33.73127 -5.99416 -0.20097 -10.07996 4.18337 -13.5475 7.76807 -3.08644 3.1965 -6.35792 6.69971 -9.21658 8.76438 -3.39556 1.89449 -5.69337 1.25482 -7.96292 -1.3508 -14.23846 -16.29378 -24.9062 2.91693 -27.58608 18.54962 z"/>
   <path d="m -201.8121 315.25504 c 0 5.30751 -4.30258 9.6101 -9.6101 9.6101 -5.30751 0 -9.6101 -4.30259 -9.6101 -9.6101 0 -5.30752 4.30259 -9.6101 9.6101 -9.6101 5.30752 0 9.6101 4.30258 9.6101 9.6101 z" transform="matrix(1.1209784,0,0,1.1209784,29.421557,-39.536881)" fill-rule="evenodd"/>
  </g>
  <rect width="198.49498" height="34.597725" x="154.7896" y="926.58997" rx="38.493561" ry="17.298863" fill="#fff8eb" fill-rule="evenodd" stroke="none"/>
 </g>
</svg>
