<svg xmlns="http://www.w3.org/2000/svg" xmlns:xlink="http://www.w3.org/1999/xlink" width="512" height="512">
 <defs>
  <linearGradient y2="7.01654" x2="0" y1="92.5396" gradientTransform="scale(1.0058652,0.994169)" gradientUnits="userSpaceOnUse" xlink:href="#1"/>
  <filter x="-0.192" y="-0.192" width="1.384" height="1.384" color-interpolation-filters="sRGB">
   <feGaussianBlur stdDeviation="5.28"/>
  </filter>
  <clipPath>
   <rect width="84" height="84" rx="6" x="6" y="6" fill="#fff"/>
  </clipPath>
  <linearGradient id="0">
   <stop stop-color="#fff"/>
   <stop offset="1" stop-color="#fff" stop-opacity="0"/>
  </linearGradient>
  <linearGradient y1="20.220806" x2="0" y2="138.66119" xlink:href="#0" gradientUnits="userSpaceOnUse"/>
  <filter color-interpolation-filters="sRGB">
   <feGaussianBlur stdDeviation="1.71"/>
  </filter>
  <linearGradient y1="92.5396" x2="0" y2="7.01654" id="1" gradientUnits="userSpaceOnUse" gradientTransform="scale(1.0058652,0.994169)">
   <stop/>
   <stop offset="1" stop-opacity="0.588235"/>
  </linearGradient>
  <clipPath>
   <rect y="6" x="6" rx="6" height="84" width="84" fill="#fff"/>
  </clipPath>
  <linearGradient id="2">
   <stop stop-color="#00364e" stop-opacity="0.745098"/>
   <stop offset="0.175552" stop-color="#004b6c" stop-opacity="0.745098"/>
   <stop offset="0.505331" stop-color="#0078ad" stop-opacity="0.745098"/>
   <stop offset="1" stop-color="#0081ba" stop-opacity="0.745098"/>
  </linearGradient>
  <linearGradient id="3">
   <stop stop-color="#0078ad"/>
   <stop offset="1" stop-color="#0081ba"/>
  </linearGradient>
  <linearGradient xlink:href="#2" id="4" gradientUnits="userSpaceOnUse" y1="203.69342" x2="0" y2="48.17266"/>
  <linearGradient xlink:href="#3" id="5" gradientUnits="userSpaceOnUse" y1="507.03873" x2="0" y2="175.69972" gradientTransform="translate(-0.29816769,517.75279)"/>
  <linearGradient xlink:href="#0" gradientUnits="userSpaceOnUse" y1="20.220806" x2="0" y2="138.66119"/>
  <linearGradient xlink:href="#1" gradientUnits="userSpaceOnUse" gradientTransform="scale(1.0058652,0.994169)" y1="92.5396" x2="0" y2="7.01654"/>
 </defs>
 <g transform="translate(0,-540.36217)">
  <text y="1089.8812" x="-1160.4812" font-family="Gentium Book Basic" word-spacing="0" line-height="125%" letter-spacing="0" font-size="208.33333"><tspan y="1089.8812" x="-1160.4812"/>
  </text>
  <text transform="scale(4.0128362,0.2492003)" font-size="75.69771" y="3810.6255" x="28.533577" font-family="Arial" text-anchor="middle"/>
  <path transform="matrix(3.8044095,0,0,1.2222384,-439.88734,508.66795)" d="m 240.41631 229.15729 a 57.57869 179.80716 0 1 1 -115.15739 0 57.57869 179.80716 0 1 1 115.15739 0 z" fill="#0078ad"/>
  <path d="m 240.41631 229.15729 a 57.57869 179.80716 0 1 1 -115.15739 0 57.57869 179.80716 0 1 1 115.15739 0 z" transform="matrix(3.8044095,0,0,1.2222384,-439.88734,508.66795)" fill="url(#4)"/>
  <path d="m 231.13933 694.52579 c -15.43286 0 -27.44663 9.10526 -27.875 20.375 l -0.53572 14.09375 c 0 9.66765 -19.73833 6.477 -27.6875 6.477 l -129.40178 0 C 14.372027 735.54758 6.701832 748.76205 6.701832 796.25279 18.07475 923.78442 125.21235 1023.7528 255.70183 1023.7528 c 2.15736 0 4.29323 -0.039 6.4375 -0.094 127.5789 -3.2323 232.00477 -102.04221 243.15625 -227.50001 0.29457 -83.79318 -24.58632 -102.45514 -72.76127 -101.63325 l -28.36373 0 -43.75 0 z" fill="url(#5)"/>
  <path d="m 436.98308 694.50279 c -1.45991 -0.0138 -2.93203 0.006 -4.4375 0.0312 l -28.375 0 -43.75 0 -129.28125 0 c -15.43286 0 -27.44663 9.10526 -27.875 20.375 l -0.53125 14.0938 c 0 9.66765 -19.73833 6.46875 -27.6875 6.46875 l -129.40625 0 c -11.963467 0.0291 -20.459755 2.00252 -26.40625 7.0625 5.50923 -2.65022 12.575629 -3.75957 21.59375 -3.78125 l 137.28125 0 c 8.03775 0 28 3.1989 28 -6.46875 l 0.53125 -14.09375 c 0.43314 -11.26974 12.58267 -20.375 28.1875 -20.375 l 130.71875 0 44.25 0 28.6875 0 c 14.35797 -0.24226 26.65841 1.18781 36.875 5.5 -10.23401 -6.25981 -23.04591 -8.66798 -38.375 -8.8125 z" fill="#fff8eb" fill-opacity="0.269006"/>
  <path d="m 255.70183 568.97154 c -78.54255 0 -147.39807 41.50509 -186.0625 103.8125 39.36999 -60.68318 107.98927 -100.875 186.0625 -100.875 78.07323 0 146.69251 40.19182 186.0625 100.875 -38.66443 -62.30741 -107.51995 -103.8125 -186.0625 -103.8125 z" fill="#fff8eb" fill-opacity="0.270588"/>
  <text y="1089.8812" x="-1160.4812" font-family="Gentium Book Basic" word-spacing="0" line-height="125%" letter-spacing="0" font-size="208.33333"><tspan y="1089.8812" x="-1160.4812"/>
  </text>
  <text transform="scale(4.0128362,0.2492003)" font-size="75.69771" y="3810.6255" x="28.533577" font-family="Arial" text-anchor="middle"/>
  <g transform="matrix(2.1174992 0 0 2.1174992 -3373.19206 -1452.1589)">
   <path transform="matrix(0.1639775,0,0,0.1639775,1680.6408,1147.8123)" d="m 562.85715 -316.57144 c 0 198.82251 -161.17749 360 -360 360 -198.82251 0 -360 -161.17749 -360 -360 0 -198.82251 161.17749 -360 360 -360 198.82251 0 360 161.17749 360 360 z" fill="#fff8eb" fill-rule="evenodd"/>
   <path d="m 1670.0107 1129.2884 c -0.203 -0.2672 -0.3955 -0.5416 -0.5937 -0.8125 l 34.0624 -34.0313 c 5.7768 -5.7766 15.0672 -5.7766 20.8438 0 l 34.0625 34.0313 c -0.1987 0.2714 -0.3902 0.5448 -0.5937 0.8125 l -34.1563 -34.1563 c -5.3976 -5.3977 -14.071 -5.3977 -19.4687 0 l -34.1563 34.1563 z" color="#000" fill-rule="evenodd" fill="#32465c"/>
   <path d="m 1716.8345 1151.0071 c 0.7228 -0.037 1.4436 -0.091 2.1587 -0.1562 -0.7167 0.065 -1.4343 0.1191 -2.1587 0.1562 z m 17.9265 -4 c 2.2324 -0.9092 4.3695 -1.9434 6.4448 -3.125 -2.0646 1.172 -4.2248 2.2224 -6.4448 3.125 z m 6.4448 -3.125 c 0.731 -0.4162 1.4803 -0.8643 2.19 -1.3125 -0.7231 0.4562 -1.4448 0.8895 -2.19 1.3125 z m 2.19 -1.3125 c 0.6139 -0.3877 1.2173 -0.7766 1.8145 -1.1875 -0.5982 0.4113 -1.1995 0.7995 -1.8145 1.1875 z m 2.6905 -1.8125 c 0.4798 -0.344 0.9398 -0.7036 1.4078 -1.0625 -0.4654 0.3565 -0.9307 0.7207 -1.4078 1.0625 z m -64.573 -0.2187 c -0.3732 -0.2718 -0.7289 -0.563 -1.095 -0.8438 0.3669 0.2812 0.721 0.5716 1.095 0.8438 z m -4.9431 -4.0625 c -2.5037 -2.3094 -4.8098 -4.8598 -6.8514 -7.5938 l 34.1323 -34.0937 c 5.5935 -5.5872 14.5857 -5.5872 20.1791 0 l 34.1636 34.125 c -2.0454 2.7363 -4.3423 5.2527 -6.8515 7.5625 l -74.7407 0 c -0.01 -0.01 -0.026 0.01 -0.031 0 z" fill="#fff8eb" fill-rule="evenodd"/>
   <path d="m 1713.9062 1151.0696 c -14.4091 0 -27.5251 -5.5395 -37.3437 -14.5937 l 74.6875 0 c -9.8186 9.0542 -22.9346 14.5937 -37.3438 14.5937 z" fill="#fff8eb" fill-rule="evenodd"/>
   <path d="m 1713.9062 1151.0696 c -0.9216 0 -1.8394 -0.018 -2.75 -0.062 l 11.625 -14.5312 10 0 -11.25 14.0625 c -2.4894 0.3446 -5.0408 0.5312 -7.625 0.5312 z" fill="#0078ad" fill-rule="evenodd"/>
   <path d="m 1704.5312 1150.2571 c -2.853 -0.4898 -5.6273 -1.1829 -8.3124 -2.0937 l 9.3437 -11.6875 10 0 -11.0313 13.7812 z" fill="#9a3034" fill-rule="evenodd"/>
   <path d="m 1731.7812 1148.1009 9.3126 -11.625 10 0 -0.375 0.4687 c -5.4437 4.8926 -11.8649 8.7287 -18.9376 11.1563 z" fill="#9a3034" fill-rule="evenodd"/>
   <path d="m 1691 1146.0696 c -2.4012 -1.1009 -4.7367 -2.3606 -6.9375 -3.7812 l 4.625 -5.8125 10 0 -7.6875 9.5937 z" fill="#0078ad" fill-rule="evenodd"/>
   <path d="m 1670.0107 1062.5809 c -0.203 0.2672 -0.3955 0.5416 -0.5937 0.8125 l 34.0624 34.0313 c 5.7768 5.7766 15.0672 5.7766 20.8438 0 l 34.0625 -34.0313 c -0.1987 -0.2714 -0.3902 -0.5448 -0.5937 -0.8125 l -34.1563 34.1563 c -5.3976 5.3977 -14.071 5.3977 -19.4687 0 l -34.1563 -34.1563 z" color="#000" fill-rule="evenodd" fill="#32465c"/>
   <path d="m 1716.8345 1040.8622 c 0.7228 0.037 1.4436 0.091 2.1587 0.1562 -0.7167 -0.065 -1.4343 -0.1191 -2.1587 -0.1562 z m 17.9265 4 c 2.2324 0.9092 4.3695 1.9434 6.4448 3.125 -2.0646 -1.172 -4.2248 -2.2224 -6.4448 -3.125 z m 6.4448 3.125 c 0.731 0.4162 1.4803 0.8643 2.19 1.3125 -0.7231 -0.4562 -1.4448 -0.8895 -2.19 -1.3125 z m 2.19 1.3125 c 0.6139 0.3877 1.2173 0.7766 1.8145 1.1875 -0.5982 -0.4113 -1.1995 -0.7995 -1.8145 -1.1875 z m 2.6905 1.8125 c 0.4798 0.344 0.9398 0.7036 1.4078 1.0625 -0.4654 -0.3565 -0.9307 -0.7207 -1.4078 -1.0625 z m -64.573 0.2187 c -0.3732 0.2718 -0.7289 0.563 -1.095 0.8438 0.3669 -0.2812 0.721 -0.5716 1.095 -0.8438 z m -4.9431 4.0625 c -2.5037 2.3094 -4.8098 4.8598 -6.8514 7.5938 l 34.1323 34.0937 c 5.5935 5.5872 14.5857 5.5872 20.1791 0 l 34.1636 -34.125 c -2.0454 -2.7363 -4.3423 -5.2527 -6.8515 -7.5625 l -74.7407 0 c -0.01 0.01 -0.026 -0.01 -0.031 0 z" fill="#fff8eb" fill-rule="evenodd"/>
   <path d="m 1713.9062 1040.7997 c -14.4091 0 -27.5251 5.5395 -37.3437 14.5937 l 74.6875 0 c -9.8186 -9.0542 -22.9346 -14.5937 -37.3438 -14.5937 z" fill="#fff8eb" fill-rule="evenodd"/>
   <path d="m 1713.9062 1040.7997 c -0.9216 0 -1.8394 0.018 -2.75 0.062 l 11.625 14.5312 10 0 -11.25 -14.0625 c -2.4894 -0.3446 -5.0408 -0.5312 -7.625 -0.5312 z" fill="#0078ad" fill-rule="evenodd"/>
   <path d="m 1704.5312 1041.6122 c -2.853 0.4898 -5.6273 1.1829 -8.3124 2.0937 l 9.3437 11.6875 10 0 -11.0313 -13.7812 z" fill="#9a3034" fill-rule="evenodd"/>
   <path d="m 1731.7812 1043.7684 9.3126 11.625 10 0 -0.375 -0.4687 c -5.4437 -4.8927 -11.8649 -8.7287 -18.9376 -11.1563 z" fill="#9a3034" fill-rule="evenodd"/>
   <path d="m 1691 1045.7997 c -2.4012 1.1008 -4.7367 2.3606 -6.9375 3.7812 l 4.625 5.8125 10 0 -7.6875 -9.5937 z" fill="#0078ad" fill-rule="evenodd"/>
  </g>
 </g>
</svg>
