<svg xmlns="http://www.w3.org/2000/svg" xmlns:xlink="http://www.w3.org/1999/xlink" width="512" height="512">
 <defs>
  <linearGradient y2="7.01654" x2="0" y1="92.5396" gradientTransform="scale(1.0058652,0.994169)" gradientUnits="userSpaceOnUse" xlink:href="#1"/>
  <filter x="-0.192" y="-0.192" width="1.384" height="1.384" color-interpolation-filters="sRGB">
   <feGaussianBlur stdDeviation="5.28"/>
  </filter>
  <clipPath>
   <rect width="84" height="84" rx="6" x="6" y="6" fill="#fff"/>
  </clipPath>
  <linearGradient id="0">
   <stop stop-color="#fff"/>
   <stop offset="1" stop-color="#fff" stop-opacity="0"/>
  </linearGradient>
  <linearGradient y1="20.220806" x2="0" y2="138.66119" xlink:href="#0" gradientUnits="userSpaceOnUse"/>
  <filter color-interpolation-filters="sRGB">
   <feGaussianBlur stdDeviation="1.71"/>
  </filter>
  <linearGradient y1="92.5396" x2="0" y2="7.01654" id="1" gradientUnits="userSpaceOnUse" gradientTransform="scale(1.0058652,0.994169)">
   <stop/>
   <stop offset="1" stop-opacity="0.588235"/>
  </linearGradient>
  <linearGradient gradientUnits="userSpaceOnUse" xlink:href="#0" y2="138.66119" x2="0" y1="20.220806"/>
  <clipPath>
   <rect y="6" x="6" rx="6" height="84" width="84" fill="#fff"/>
  </clipPath>
  <linearGradient xlink:href="#1" gradientUnits="userSpaceOnUse" gradientTransform="scale(1.0058652,0.994169)" y1="92.5396" x2="0" y2="7.01654"/>
  <linearGradient y2="7.01654" x2="0" y1="92.5396" gradientTransform="scale(1.0058652,0.994169)" gradientUnits="userSpaceOnUse" xlink:href="#1"/>
  <clipPath>
   <rect width="84" height="84" rx="6" x="6" y="6" fill="#fff"/>
  </clipPath>
  <linearGradient y1="20.220806" x2="0" y2="138.66119" xlink:href="#0" gradientUnits="userSpaceOnUse"/>
  <linearGradient y2="7.01654" x2="0" y1="92.5396" gradientTransform="scale(1.0058652,0.994169)" gradientUnits="userSpaceOnUse" xlink:href="#1"/>
  <clipPath>
   <rect width="84" height="84" rx="6" x="6" y="6" fill="#fff"/>
  </clipPath>
  <linearGradient y1="20.220806" x2="0" y2="138.66119" xlink:href="#0" gradientUnits="userSpaceOnUse"/>
  <linearGradient xlink:href="#1" gradientUnits="userSpaceOnUse" gradientTransform="scale(1.0058652,0.994169)" y1="92.5396" x2="0" y2="7.01654"/>
  <clipPath>
   <rect y="6" x="6" rx="6" height="84" width="84" fill="#fff"/>
  </clipPath>
  <linearGradient gradientUnits="userSpaceOnUse" xlink:href="#0" y2="138.66119" x2="0" y1="20.220806"/>
  <linearGradient xlink:href="#1" gradientUnits="userSpaceOnUse" gradientTransform="scale(1.0058652,0.994169)" y1="92.5396" x2="0" y2="7.01654"/>
  <clipPath>
   <rect y="6" x="6" rx="6" height="84" width="84" fill="#fff"/>
  </clipPath>
  <linearGradient gradientUnits="userSpaceOnUse" xlink:href="#0" y2="138.66119" x2="0" y1="20.220806"/>
  <linearGradient gradientUnits="userSpaceOnUse" xlink:href="#0" y2="138.66119" x2="0" y1="20.220806"/>
  <clipPath>
   <rect y="6" x="6" rx="6" height="84" width="84" fill="#fff"/>
  </clipPath>
  <linearGradient xlink:href="#1" gradientUnits="userSpaceOnUse" gradientTransform="scale(1.0058652,0.994169)" y1="92.5396" x2="0" y2="7.01654"/>
 </defs>
 <g transform="translate(0,-540.36217)">
  <path d="m 256 546.36217 c -91.41816 0 -171.34078 49.10766 -214.9375 122.34374 -22.248524 37.37427 -35.0625 81.00323 -35.0625 127.65625 0 138.07118 111.92881 250.00004 250 250.00004 138.0712 0 250 -111.92886 250 -250.00004 0 -46.65302 -12.81398 -90.28198 -35.0625 -127.65625 C 427.34078 595.46983 347.41816 546.36217 256 546.36217 z" fill="#0078ad" fill-rule="evenodd"/>
  <text y="1089.8812" x="-1160.4812" font-family="Gentium Book Basic" word-spacing="0" line-height="125%" letter-spacing="0" font-size="208.33333"><tspan y="1089.8812" x="-1160.4812"/>
  </text>
  <text transform="scale(4.0128362,0.2492003)" font-size="75.69771" y="3810.6255" x="28.533577" font-family="Arial" text-anchor="middle"/>
  <text y="934.24939" x="-454.14005" font-family="Gentium Book Basic" word-spacing="0" line-height="125%" letter-spacing="0" font-size="208.33333"><tspan y="934.24939" x="-454.14005"/>
  </text>
  <text transform="scale(4.0128362,0.2492003)" font-size="75.69771" y="3186.1006" x="204.55402" font-family="Arial" text-anchor="middle"/>
  <path d="M 247.59375 382.84375 L 247.59375 431.5625 L 78.03125 431.5625 C 83.39178 436.99616 89.00745 442.16685 94.84375 447.09375 L 417.15625 447.09375 C 422.99255 442.16685 428.60822 436.99616 433.96875 431.5625 L 264.4375 431.5625 L 264.4375 382.84375 L 247.59375 382.84375 z" transform="translate(0,540.36217)" fill="#fff8eb"/>
  <text y="894.6228" x="-538.96399" font-family="Gentium Book Basic" word-spacing="0" line-height="125%" letter-spacing="0" font-size="208.33333"><tspan y="894.6228" x="-538.96399"/>
  </text>
  <text transform="scale(4.0128362,0.2492003)" font-size="75.69771" y="3027.0854" x="183.41585" font-family="Arial" text-anchor="middle"/>
  <text y="589.98657" x="-41.34803" font-family="Gentium Book Basic" word-spacing="0" line-height="125%" letter-spacing="0" font-size="208.33334"><tspan y="589.98657" x="-41.34803"/>
  </text>
  <text y="263.92966" x="2332.5164" font-family="Gentium Book Basic" word-spacing="0" line-height="125%" letter-spacing="0" font-size="208.33334"><tspan y="263.92966" x="2332.5164"/>
  </text>
  <text x="-26.314526" y="542.04572" font-family="Gentium Book Basic" word-spacing="0" line-height="125%" letter-spacing="0" font-size="208.33334"><tspan x="-26.314526" y="542.04572"/>
  </text>
  <path d="m 257.77338 598.56489 c -21.90238 -0.0133 -27.35416 0.9092 -57.71386 9.93077 -4.48607 1.33306 -18.92792 8.73398 -30.56249 15.65263 -2.17852 1.29545 -6.76033 4.6882 -10.17829 7.53746 -3.41795 2.8493 -7.46652 6.18265 -9.02299 7.42746 -3.63847 2.90999 -11.25714 10.52864 -14.16716 14.16713 -1.24494 1.55646 -4.61777 5.63259 -7.48254 9.05048 -15.52353 18.521 -28.970565 50.98025 -31.882902 76.94271 -2.644509 23.57587 -0.836944 49.45438 4.649072 66.37927 1.84182 5.68228 3.70943 11.88366 4.12637 13.78202 1.72328 7.84573 16.85593 33.57964 26.87631 45.69248 11.72044 14.1679 29.95292 29.75458 43.32669 37.05466 4.97918 2.71791 11.11452 6.09871 13.64442 7.50996 5.32543 2.9707 33.15697 11.73878 37.63237 11.85631 1.6652 0.044 4.03696 0.54365 5.28165 1.10039 3.74354 1.67424 50.92396 0.50047 59.99722 -1.48541 13.34061 -2.92004 29.33795 -8.36732 37.49476 -12.76422 17.02448 -9.17674 20.30691 -11.23008 28.582 -17.88086 33.21359 -26.69464 53.86332 -61.15619 60.79488 -101.5083 1.96106 -11.41612 1.65223 -48.9889 -0.49509 -59.69456 -1.95005 -9.72098 -9.36054 -32.08251 -12.43422 -37.57732 -1.56661 -2.80082 -4.77066 -8.6571 -7.12479 -13.01176 -5.32006 -9.84091 -22.88744 -31.70644 -30.12231 -37.49479 -2.97363 -2.37901 -8.52056 -7.01009 -12.32402 -10.28837 -3.80346 -3.27829 -7.22215 -5.96947 -7.5925 -5.96947 -0.37047 0 -3.3623 -1.57752 -6.65722 -3.52115 -11.58015 -6.83074 -23.03923 -12.1736 -31.44285 -14.63481 -4.66791 -1.36715 -10.54617 -3.19243 -13.03926 -4.04381 -7.28502 -2.48784 -23.71936 -4.19843 -40.16325 -4.2089 z m -12.40644 14.08461 c 0.97649 -0.024 1.84815 0.0968 2.77842 0.33014 l 2.83333 0.71523 0 28.69191 c 0 22.66113 -0.31065 28.95956 -1.51304 29.95731 -1.71253 1.42134 -63.41418 2.43183 -65.60896 1.07285 -1.80315 -1.11652 6.94219 -17.37599 15.21251 -28.25176 8.87132 -11.66604 21.62917 -22.6182 32.07542 -27.50901 7.6024 -3.55925 11.29261 -4.93482 14.22232 -5.00667 z m 23.52012 0.055 c 2.79004 -0.11221 6.6768 1.34816 15.24003 5.50182 10.93596 5.30448 22.15483 14.96448 30.89271 26.57371 6.93805 9.2181 16.57806 26.36923 15.65258 27.86664 -0.3339 0.54038 -15.02759 0.99033 -32.65319 0.99033 -25.87868 0 -32.29349 -0.30596 -33.34091 -1.56801 -0.9453 -1.13892 -1.0851 -9.25685 -0.52273 -29.95734 0.72331 -26.62031 0.91386 -28.46035 2.94341 -29.10455 0.57141 -0.18133 1.14441 -0.2767 1.7881 -0.3026 z m 47.3706 10.06832 c 0.0294 -0.0104 0.0685 -0.003 0.11014 0 0.44593 0.0299 2.43952 0.92133 4.42905 1.98065 1.98955 1.05931 7.33823 3.90738 11.88396 6.32707 8.91463 4.7454 13.31764 7.87478 24.59301 17.60578 8.56787 7.39434 21.80588 22.55025 20.93432 23.96035 -0.59501 0.96287 -26.53594 1.17666 -29.90227 0.24759 -0.9337 -0.25769 -4.73837 -6.29872 -8.47274 -13.45192 -3.73447 -7.15323 -9.75179 -16.71128 -13.34196 -21.20945 -6.77097 -8.48347 -11.16457 -15.13268 -10.23345 -15.46007 z m -120.90215 3.02597 c 0.21012 -0.009 0.35946 0.0295 0.44018 0.11014 0.56407 0.56407 -2.56341 5.57064 -7.29003 11.63633 -4.55725 5.84848 -11.00997 15.96714 -14.33203 22.50237 -3.32207 6.53524 -6.85365 12.53637 -7.84017 13.31436 -2.72608 2.15006 -27.25106 1.95714 -28.08665 -0.22005 -0.94787 -2.46996 15.49258 -20.02767 28.58187 -30.53502 8.40509 -6.74709 25.37439 -16.66053 28.52683 -16.80803 z m 180.65168 60.46485 c 5.87386 -0.0626 10.73038 0.11488 11.44366 0.63269 5.83326 4.23369 16.82463 34.13045 19.25644 52.37717 1.28665 9.65371 1.23748 10.88877 -0.41267 12.15901 -2.79457 2.1512 -40.27344 1.98035 -42.44645 -0.19257 -1.09072 -1.0907 -1.82406 -5.66958 -2.31072 -14.41473 -0.39247 -7.05567 -1.25523 -14.60208 -1.89806 -16.78051 -0.64296 -2.1784 -1.90846 -8.15868 -2.80595 -13.28686 -0.8976 -5.12817 -2.49454 -11.14798 -3.54869 -13.36937 -1.42706 -3.00759 -1.58704 -4.38243 -0.63269 -5.33675 0.93466 -0.9346 13.56566 -1.68376 23.35513 -1.78808 z m -235.11957 0.96281 c 1.40787 -0.0104 2.99051 0 4.75906 0 16.33625 0 17.96915 0.48792 15.79028 4.73155 -2.68388 5.22668 -8.65925 37.62179 -9.10556 49.40618 -0.17318 4.57214 -0.90445 9.16824 -1.65051 10.23336 -1.17145 1.67245 -3.91035 1.98136 -19.94415 2.22824 -15.81156 0.24347 -18.7842 0.0169 -20.05398 -1.51299 -1.81721 -2.18958 -0.84868 -18.27218 1.54044 -25.74845 0.84991 -2.65949 2.9165 -9.12464 4.59405 -14.3597 3.47482 -10.84407 7.61819 -19.52969 10.86612 -22.77745 1.74874 -1.74881 3.34898 -2.13015 13.20425 -2.20074 z m 72.899 0 c 26.46268 -0.0133 34.89786 0.32294 35.65163 1.40296 0.54292 0.778 0.72381 15.42709 0.41253 32.54316 l -0.55012 31.1127 -41.62113 0.30259 c -35.36764 0.25231 -41.72252 0.0366 -42.25382 -1.34792 -1.0105 -2.6336 1.66092 -25.76497 4.56652 -39.47544 2.78699 -13.15164 5.8379 -22.2524 7.9226 -23.68528 0.6651 -0.45726 16.80898 -0.84327 35.87179 -0.85277 z m 50.20393 0.55017 36.75189 0 36.75215 0 2.1182 5.66688 c 5.49154 14.6916 11.28797 54.49926 8.44522 57.98901 -1.81305 2.22599 -83.03446 2.04064 -84.2876 -0.19257 -0.49767 -0.88706 -0.64126 -15.53615 -0.3301 -32.54317 l 0.55024 -30.92015 z m 121.86495 77.52042 c 9.91532 -0.095 19.8841 0.21301 21.15436 1.01782 2.54164 1.61028 -0.46536 22.97522 -5.63926 40.08065 -4.28719 14.17363 -8.12942 22.51527 -12.70928 27.64657 -2.16311 2.42383 -3.09262 2.55835 -19.06379 2.55835 l -16.75296 0 0 -3.35611 c 0 -1.8461 0.70118 -5.02588 1.56808 -7.06981 2.49211 -5.8756 6.24065 -27.60188 7.50995 -43.49178 0.90151 -11.28657 1.59572 -14.88571 3.05348 -15.98273 1.09965 -0.82748 10.9641 -1.308 20.87942 -1.40296 z m -64.61876 1.04535 c 14.57308 0.0313 26.39137 0.22044 27.0139 0.60519 4.21478 2.60487 -4.58842 57.1139 -10.8386 67.0945 l -1.59549 2.55835 -36.17436 0 -36.17437 0 -0.74276 -2.99849 c -0.93857 -3.73997 0.56566 -65.18997 1.62312 -66.26923 0.63561 -0.64878 32.60035 -1.04263 56.88856 -0.99032 z m -190.63747 0.11013 c 14.1202 -0.0133 18.5599 0.33681 19.55889 1.54053 0.71023 0.85568 1.5841 6.59033 1.95322 12.73666 0.7232 12.04724 6.20531 42.15503 9.07803 49.84634 0.96999 2.59739 1.43195 5.24421 1.01758 5.91445 -0.47736 0.77258 -6.31195 1.2379 -15.95515 1.2379 -17.66058 0 -17.0515 0.32105 -23.32762 -11.93891 -9.34172 -18.24869 -17.10617 -55.18754 -12.24146 -58.26411 0.91496 -0.5786 9.87864 -1.06332 19.91651 -1.07286 z m 61.97783 0.2476 c 4.95203 -0.0184 10.36883 -0.0104 15.98266 0.0276 l 40.7409 0.27509 0.27506 32.40563 c 0.18004 19.44357 -0.12481 33.60838 -0.7978 35.37658 l -1.12778 2.94349 -33.69866 -0.0274 c -18.53176 -0.009 -34.35935 -0.42948 -35.15628 -0.93531 -4.21613 -2.6753 -10.84302 -30.38335 -12.8744 -53.75262 -1.06161 -12.21368 -1.02481 -14.69531 0.30259 -15.5426 0.65347 -0.41704 11.4976 -0.715 26.35371 -0.77024 z m 98.59235 83.32479 c 17.94544 -0.0886 38.10253 0.52109 38.56752 1.73308 0.3355 0.87388 -1.27356 5.0646 -3.57621 9.32554 -9.92609 18.36957 -26.6163 35.83225 -41.48354 43.38169 -7.80738 3.96455 -19.83762 6.70854 -21.62206 4.92418 -1.43355 -1.43361 -0.85907 -56.38717 0.60529 -57.85149 0.93808 -0.93812 13.55147 -1.4441 27.509 -1.513 z m 70.69811 0.11014 c 7.39875 -0.0661 14.75618 0.31102 15.29506 1.18288 2.09607 3.39159 -28.37628 31.99846 -40.93353 38.43009 -3.00665 1.54003 -8.1233 4.48086 -11.3611 6.51964 -5.20949 3.28036 -9.38061 4.67564 -9.38061 3.16354 0 -0.28568 4.02105 -5.68031 8.94043 -11.99394 4.9195 -6.31359 11.62332 -16.6269 14.88241 -22.94251 3.25909 -6.31561 6.43083 -12.12373 7.04224 -12.90173 0.69384 -0.88288 8.11646 -1.39183 15.5151 -1.45797 z m -117.71108 0.13756 c 2.83933 -0.12807 3.51689 0.33236 4.15375 1.73305 0.53263 1.17102 0.72392 14.35943 0.41277 29.29712 l -0.57764 27.15143 -5.08927 0.24752 c -14.33778 0.68265 -41.72997 -22.67825 -53.72511 -45.80249 -1.69774 -3.27292 -3.54442 -6.23201 -4.09871 -6.57465 -0.55441 -0.34263 -1.01795 -1.62537 -1.01795 -2.83342 0 -2.10724 1.00559 -2.20074 24.73071 -2.20074 13.60149 0 27.82027 -0.32223 31.58019 -0.71523 1.49934 -0.1567 2.68486 -0.25994 3.63126 -0.30259 z m -90.66965 1.01782 c 15.61232 0 14.49824 -0.68856 21.7045 13.42442 2.65782 5.205 7.94853 13.56409 11.74649 18.56857 3.79796 5.00447 7.59127 10.04679 8.44521 11.19617 4.61374 6.2099 -12.00235 -1.64145 -26.54622 -12.54411 -8.71562 -6.53358 -28.74698 -26.68654 -28.74698 -28.91199 0 -1.45357 2.12787 -1.73306 13.397 -1.73306 z" fill="#fff8eb"/>
  <text x="261.9006" y="314.7608" font-family="Gentium Book Basic" word-spacing="0" line-height="125%" letter-spacing="0" font-size="208.33334"><tspan x="261.9006" y="314.7608"/>
  </text>
 </g>
</svg>
