<svg xmlns="http://www.w3.org/2000/svg" xmlns:xlink="http://www.w3.org/1999/xlink" width="512" height="512">
 <defs>
  <linearGradient y2="7.01654" x2="0" y1="92.5396" gradientTransform="scale(1.0058652,0.994169)" gradientUnits="userSpaceOnUse" xlink:href="#1"/>
  <filter x="-0.192" y="-0.192" width="1.384" height="1.384" color-interpolation-filters="sRGB">
   <feGaussianBlur stdDeviation="5.28"/>
  </filter>
  <clipPath>
   <rect width="84" height="84" rx="6" x="6" y="6" fill="#fff"/>
  </clipPath>
  <linearGradient id="0">
   <stop stop-color="#fff"/>
   <stop offset="1" stop-color="#fff" stop-opacity="0"/>
  </linearGradient>
  <linearGradient y1="20.220806" x2="0" y2="138.66119" xlink:href="#0" gradientUnits="userSpaceOnUse"/>
  <filter color-interpolation-filters="sRGB">
   <feGaussianBlur stdDeviation="1.71"/>
  </filter>
  <linearGradient y1="92.5396" x2="0" y2="7.01654" id="1" gradientUnits="userSpaceOnUse" gradientTransform="scale(1.0058652,0.994169)">
   <stop/>
   <stop offset="1" stop-opacity="0.588235"/>
  </linearGradient>
  <linearGradient gradientUnits="userSpaceOnUse" xlink:href="#0" y2="138.66119" x2="0" y1="20.220806"/>
  <clipPath>
   <rect y="6" x="6" rx="6" height="84" width="84" fill="#fff"/>
  </clipPath>
  <linearGradient xlink:href="#1" gradientUnits="userSpaceOnUse" gradientTransform="scale(1.0058652,0.994169)" y1="92.5396" x2="0" y2="7.01654"/>
 </defs>
 <g transform="translate(0,-540.36217)">
  <path d="m 256 546.36217 c -91.41816 0 -171.34078 49.10766 -214.9375 122.34374 -22.248524 37.37427 -35.0625 81.00323 -35.0625 127.65625 0 138.07118 111.92881 250.00004 250 250.00004 138.0712 0 250 -111.92886 250 -250.00004 0 -46.65302 -12.81398 -90.28198 -35.0625 -127.65625 C 427.34078 595.46983 347.41816 546.36217 256 546.36217 z" fill="#0078ad" fill-rule="evenodd"/>
  <text y="1089.8812" x="-1160.4812" font-family="Gentium Book Basic" word-spacing="0" line-height="125%" letter-spacing="0" font-size="208.33333"><tspan y="1089.8812" x="-1160.4812"/>
  </text>
  <text transform="scale(4.0128362,0.2492003)" font-size="75.69771" y="3810.6255" x="28.533577" font-family="Arial" text-anchor="middle"/>
  <text y="934.24939" x="-454.14005" font-family="Gentium Book Basic" word-spacing="0" line-height="125%" letter-spacing="0" font-size="208.33333"><tspan y="934.24939" x="-454.14005"/>
  </text>
  <text transform="scale(4.0128362,0.2492003)" font-size="75.69771" y="3186.1006" x="204.55402" font-family="Arial" text-anchor="middle"/>
  <path d="M 256 64.90625 C 189.66744 64.90625 135.90625 82.67441 135.90625 104.59375 C 135.90625 126.51309 189.66744 144.28125 256 144.28125 C 322.33256 144.28125 376.09375 126.51309 376.09375 104.59375 C 376.09375 82.67441 322.33256 64.90625 256 64.90625 z M 136.1875 117.96875 C 134.04728 121.81828 132.78125 125.8463 132.78125 129.96875 L 132.78125 167.46875 C 132.78125 196.42641 188.00121 219.96875 256 219.96875 C 324.05623 219.96875 379.25 196.41204 379.25 167.46875 L 379.25 129.96875 C 379.25 125.8463 377.98649 121.81828 375.875 117.96875 C 373.51933 139.18425 320.80998 156.15625 256 156.15625 C 191.19 156.15625 138.57191 139.18425 136.1875 117.96875 z M 136.53125 192.9375 C 134.17557 196.94503 132.78125 201.20771 132.78125 205.53125 L 132.78125 243 C 132.78125 271.98638 188.00121 295.4375 256 295.4375 C 324.05623 295.4375 379.25 271.97202 379.25 243 L 379.25 205.53125 C 379.25 201.20771 377.82697 196.94503 375.5 192.9375 C 362.27084 215.86231 313.88657 232.84375 256 232.84375 C 198.15651 232.84375 149.74605 215.84794 136.53125 192.9375 z M 136.53125 270.40625 C 134.17557 274.41378 132.78125 278.58524 132.78125 282.9375 L 132.78125 320.46875 C 132.78125 349.42641 188.00121 372.84375 256 372.84375 C 324.05623 372.84375 379.25 349.41205 379.25 320.46875 L 379.25 282.9375 C 379.25 278.58524 377.82697 274.41378 375.5 270.40625 C 362.27084 293.28797 313.88657 310.25 256 310.25 C 198.15651 310.25 149.74605 293.28797 136.53125 270.40625 z M 247.59375 382.84375 L 247.59375 431.5625 L 78.03125 431.5625 C 83.39178 436.99616 89.00745 442.16685 94.84375 447.09375 L 417.15625 447.09375 C 422.99255 442.16685 428.60822 436.99616 433.96875 431.5625 L 264.4375 431.5625 L 264.4375 382.84375 L 247.59375 382.84375 z" transform="translate(0,540.36217)" fill="#fff8eb"/>
 </g>
</svg>
