<svg xmlns="http://www.w3.org/2000/svg" xmlns:xlink="http://www.w3.org/1999/xlink" width="512" height="512">
 <defs>
  <linearGradient y2="7.01654" x2="0" y1="92.5396" gradientTransform="scale(1.0058652,0.994169)" gradientUnits="userSpaceOnUse" xlink:href="#1"/>
  <filter x="-0.192" y="-0.192" width="1.384" height="1.384" color-interpolation-filters="sRGB">
   <feGaussianBlur stdDeviation="5.28"/>
  </filter>
  <clipPath>
   <rect width="84" height="84" rx="6" x="6" y="6" fill="#fff"/>
  </clipPath>
  <linearGradient id="0">
   <stop stop-color="#fff"/>
   <stop offset="1" stop-color="#fff" stop-opacity="0"/>
  </linearGradient>
  <linearGradient y1="20.220806" x2="0" y2="138.66119" xlink:href="#0" gradientUnits="userSpaceOnUse"/>
  <filter color-interpolation-filters="sRGB">
   <feGaussianBlur stdDeviation="1.71"/>
  </filter>
  <linearGradient y1="92.5396" x2="0" y2="7.01654" id="1" gradientUnits="userSpaceOnUse" gradientTransform="scale(1.0058652,0.994169)">
   <stop/>
   <stop offset="1" stop-opacity="0.588235"/>
  </linearGradient>
  <linearGradient gradientUnits="userSpaceOnUse" xlink:href="#0" y2="138.66119" x2="0" y1="20.220806"/>
  <clipPath>
   <rect y="6" x="6" rx="6" height="84" width="84" fill="#fff"/>
  </clipPath>
  <linearGradient xlink:href="#1" gradientUnits="userSpaceOnUse" gradientTransform="scale(1.0058652,0.994169)" y1="92.5396" x2="0" y2="7.01654"/>
 </defs>
 <g transform="translate(0,-540.36217)">
  <path d="m 256 546.36217 c -91.41816 0 -171.34078 49.10766 -214.9375 122.34374 -22.248524 37.37427 -35.0625 81.00323 -35.0625 127.65625 0 138.07118 111.92881 250.00004 250 250.00004 138.0712 0 250 -111.92886 250 -250.00004 0 -46.65302 -12.81398 -90.28198 -35.0625 -127.65625 C 427.34078 595.46983 347.41816 546.36217 256 546.36217 z" fill="#0078ad" fill-rule="evenodd"/>
  <text y="1089.8812" x="-1160.4812" font-family="Gentium Book Basic" word-spacing="0" line-height="125%" letter-spacing="0" font-size="208.33333"><tspan y="1089.8812" x="-1160.4812"/>
  </text>
  <text transform="scale(4.0128362,0.2492003)" font-size="75.69771" y="3810.6255" x="28.533577" font-family="Arial" text-anchor="middle"/>
  <text y="934.24939" x="-454.14005" font-family="Gentium Book Basic" word-spacing="0" line-height="125%" letter-spacing="0" font-size="208.33333"><tspan y="934.24939" x="-454.14005"/>
  </text>
  <text transform="scale(4.0128362,0.2492003)" font-size="75.69771" y="3186.1006" x="204.55402" font-family="Arial" text-anchor="middle"/>
  <path d="M 6.8125 235.90625 C 6.283457 242.53714 6 249.23196 6 256 C 6 259.37221 6.086465 262.72273 6.21875 266.0625 L 505.78125 266.0625 C 505.91353 262.72273 506 259.37221 506 256 C 506 249.23196 505.71654 242.53714 505.1875 235.90625 L 6.8125 235.90625 z" transform="translate(0,540.36217)" fill="#fff8eb" display="block" color="#000"/>
  <path d="m 145.46875 631.37781 0 329.96875 221.0625 0 0 -329.96875 -221.0625 0 z" fill="#fff8eb" fill-rule="evenodd" stroke="#fff8eb" stroke-linejoin="round" stroke-linecap="round" stroke-width="10.04762"/>
 </g>
</svg>
