<svg xmlns="http://www.w3.org/2000/svg" xmlns:xlink="http://www.w3.org/1999/xlink" width="512" height="512">
 <defs>
  <linearGradient y2="7.01654" x2="0" y1="92.5396" gradientTransform="scale(1.0058652,0.994169)" gradientUnits="userSpaceOnUse" xlink:href="#1"/>
  <filter x="-0.192" y="-0.192" width="1.384" height="1.384" color-interpolation-filters="sRGB">
   <feGaussianBlur stdDeviation="5.28"/>
  </filter>
  <clipPath>
   <rect width="84" height="84" rx="6" x="6" y="6" fill="#fff"/>
  </clipPath>
  <linearGradient id="0">
   <stop stop-color="#fff"/>
   <stop offset="1" stop-color="#fff" stop-opacity="0"/>
  </linearGradient>
  <linearGradient y1="20.220806" x2="0" y2="138.66119" xlink:href="#0" gradientUnits="userSpaceOnUse"/>
  <filter color-interpolation-filters="sRGB">
   <feGaussianBlur stdDeviation="1.71"/>
  </filter>
  <linearGradient y1="92.5396" x2="0" y2="7.01654" id="1" gradientUnits="userSpaceOnUse" gradientTransform="scale(1.0058652,0.994169)">
   <stop/>
   <stop offset="1" stop-opacity="0.588235"/>
  </linearGradient>
  <linearGradient gradientUnits="userSpaceOnUse" xlink:href="#0" y2="138.66119" x2="0" y1="20.220806"/>
  <clipPath>
   <rect y="6" x="6" rx="6" height="84" width="84" fill="#fff"/>
  </clipPath>
  <linearGradient xlink:href="#1" gradientUnits="userSpaceOnUse" gradientTransform="scale(1.0058652,0.994169)" y1="92.5396" x2="0" y2="7.01654"/>
  <linearGradient y2="7.01654" x2="0" y1="92.5396" gradientTransform="scale(1.0058652,0.994169)" gradientUnits="userSpaceOnUse" xlink:href="#1"/>
  <clipPath>
   <rect width="84" height="84" rx="6" x="6" y="6" fill="#fff"/>
  </clipPath>
  <linearGradient y1="20.220806" x2="0" y2="138.66119" xlink:href="#0" gradientUnits="userSpaceOnUse"/>
  <linearGradient y1="20.220806" x2="0" y2="138.66119" xlink:href="#0" gradientUnits="userSpaceOnUse"/>
  <clipPath>
   <rect width="84" height="84" rx="6" x="6" y="6" fill="#fff"/>
  </clipPath>
  <linearGradient y2="7.01654" x2="0" y1="92.5396" gradientTransform="scale(1.0058652,0.994169)" gradientUnits="userSpaceOnUse" xlink:href="#1"/>
  <linearGradient y1="20.220806" x2="0" y2="138.66119" xlink:href="#0" gradientUnits="userSpaceOnUse"/>
  <clipPath>
   <rect width="84" height="84" rx="6" x="6" y="6" fill="#fff"/>
  </clipPath>
  <linearGradient y2="7.01654" x2="0" y1="92.5396" gradientTransform="scale(1.0058652,0.994169)" gradientUnits="userSpaceOnUse" xlink:href="#1"/>
  <linearGradient gradientUnits="userSpaceOnUse" xlink:href="#0" y2="138.66119" x2="0" y1="20.220806"/>
  <clipPath>
   <rect y="6" x="6" rx="6" height="84" width="84" fill="#fff"/>
  </clipPath>
  <linearGradient xlink:href="#1" gradientUnits="userSpaceOnUse" gradientTransform="scale(1.0058652,0.994169)" y1="92.5396" x2="0" y2="7.01654"/>
  <linearGradient gradientUnits="userSpaceOnUse" xlink:href="#0" y2="138.66119" x2="0" y1="20.220806"/>
  <clipPath>
   <rect y="6" x="6" rx="6" height="84" width="84" fill="#fff"/>
  </clipPath>
  <linearGradient xlink:href="#1" gradientUnits="userSpaceOnUse" gradientTransform="scale(1.0058652,0.994169)" y1="92.5396" x2="0" y2="7.01654"/>
  <linearGradient y2="7.01654" x2="0" y1="92.5396" gradientTransform="scale(1.0058652,0.994169)" gradientUnits="userSpaceOnUse" xlink:href="#1"/>
  <clipPath>
   <rect width="84" height="84" rx="6" x="6" y="6" fill="#fff"/>
  </clipPath>
  <linearGradient y1="20.220806" x2="0" y2="138.66119" xlink:href="#0" gradientUnits="userSpaceOnUse"/>
  <linearGradient gradientUnits="userSpaceOnUse" xlink:href="#0" y2="138.66119" x2="0" y1="20.220806"/>
  <clipPath>
   <rect y="6" x="6" rx="6" height="84" width="84" fill="#fff"/>
  </clipPath>
  <linearGradient xlink:href="#1" gradientUnits="userSpaceOnUse" gradientTransform="scale(1.0058652,0.994169)" y1="92.5396" x2="0" y2="7.01654"/>
 </defs>
 <g transform="translate(0,-540.36217)">
  <path d="m 256 546.36217 c -91.41816 0 -171.34078 49.10766 -214.9375 122.34374 -22.248524 37.37427 -35.0625 81.00323 -35.0625 127.65625 0 138.07118 111.92881 250.00004 250 250.00004 138.0712 0 250 -111.92886 250 -250.00004 0 -46.65302 -12.81398 -90.28198 -35.0625 -127.65625 C 427.34078 595.46983 347.41816 546.36217 256 546.36217 z" fill="#0078ad" fill-rule="evenodd"/>
  <text y="1089.8812" x="-1160.4812" font-family="Gentium Book Basic" word-spacing="0" line-height="125%" letter-spacing="0" font-size="208.33333"><tspan y="1089.8812" x="-1160.4812"/>
  </text>
  <text transform="scale(4.0128362,0.2492003)" font-size="75.69771" y="3810.6255" x="28.533577" font-family="Arial" text-anchor="middle"/>
  <text y="934.24939" x="-454.14005" font-family="Gentium Book Basic" word-spacing="0" line-height="125%" letter-spacing="0" font-size="208.33333"><tspan y="934.24939" x="-454.14005"/>
  </text>
  <text transform="scale(4.0128362,0.2492003)" font-size="75.69771" y="3186.1006" x="204.55402" font-family="Arial" text-anchor="middle"/>
  <path d="m 136.53125 907.49242 c -2.35568 4.00753 -3.75 8.17899 -3.75 12.53125 l 0 37.53125 c 0 28.95766 55.21996 52.37498 123.21875 52.37498 68.05623 0 123.25 -23.43168 123.25 -52.37498 l 0 -37.53125 c 0 -4.35226 -1.42303 -8.52372 -3.75 -12.53125 -13.22916 22.88172 -61.61343 39.84375 -119.5 39.84375 -57.84349 0 -106.25395 -16.96203 -119.46875 -39.84375 z" fill="#fff8eb"/>
  <text y="938.78973" x="-406.83374" font-family="Gentium Book Basic" word-spacing="0" line-height="125%" letter-spacing="0" font-size="208.33333"><tspan y="938.78973" x="-406.83374"/>
  </text>
  <text transform="scale(4.0128362,0.2492003)" font-size="75.69771" y="3204.3201" x="216.34276" font-family="Arial" text-anchor="middle"/>
  <text y="783.1579" x="299.50742" font-family="Gentium Book Basic" word-spacing="0" line-height="125%" letter-spacing="0" font-size="208.33333"><tspan y="783.1579" x="299.50742"/>
  </text>
  <text transform="scale(4.0128362,0.2492003)" font-size="75.69771" y="2579.7952" x="392.36319" font-family="Arial" text-anchor="middle"/>
  <text y="743.53131" x="214.68349" font-family="Gentium Book Basic" word-spacing="0" line-height="125%" letter-spacing="0" font-size="208.33333"><tspan y="743.53131" x="214.68349"/>
  </text>
  <text transform="scale(4.0128362,0.2492003)" font-size="75.69771" y="2420.78" x="371.22504" font-family="Arial" text-anchor="middle"/>
  <text y="438.89508" x="712.29944" font-family="Gentium Book Basic" word-spacing="0" line-height="125%" letter-spacing="0" font-size="208.33334"><tspan y="438.89508" x="712.29944"/>
  </text>
  <text y="112.83817" x="3086.1638" font-family="Gentium Book Basic" word-spacing="0" line-height="125%" letter-spacing="0" font-size="208.33334"><tspan y="112.83817" x="3086.1638"/>
  </text>
  <text x="727.33295" y="390.95422" font-family="Gentium Book Basic" word-spacing="0" line-height="125%" letter-spacing="0" font-size="208.33334"><tspan x="727.33295" y="390.95422"/>
  </text>
  <path d="m 257.847 597.98613 c -21.90233 -0.0133 -27.35411 0.9092 -57.71381 9.93077 -4.48607 1.33306 -18.92792 8.73398 -30.56249 15.65263 -2.17852 1.29545 -6.76033 4.6882 -10.17829 7.53746 -3.41795 2.8493 -7.46652 6.18265 -9.02299 7.42746 -3.63847 2.90999 -11.25714 10.52864 -14.16716 14.16713 -1.24494 1.55646 -4.61777 5.63259 -7.48254 9.05048 -15.52353 18.521 -28.970568 50.98025 -31.882898 76.94271 -2.64451 23.57587 -0.83695 49.45438 4.649068 66.37927 1.84182 5.68228 3.70943 11.88366 4.12637 13.78202 1.72328 7.84573 16.85593 33.57964 26.87631 45.69248 11.72044 14.1679 29.95292 29.75458 43.32669 37.05466 4.97918 2.71791 11.11452 6.09871 13.64442 7.50996 5.32543 2.9707 33.15697 11.73878 37.63237 11.85631 1.6652 0.044 4.03696 0.54365 5.28165 1.10039 3.74354 1.67424 50.924 0.50047 59.9972 -1.48541 13.3406 -2.92004 29.338 -8.36732 37.4948 -12.76422 17.0245 -9.17674 20.3069 -11.23008 28.582 -17.88086 33.2136 -26.69464 53.8633 -61.15619 60.7949 -101.5083 1.961 -11.41612 1.6522 -48.9889 -0.4951 -59.69456 -1.9501 -9.72098 -9.3606 -32.08251 -12.4343 -37.57732 -1.5666 -2.80082 -4.7706 -8.6571 -7.1247 -13.01176 -5.3201 -9.84091 -22.8875 -31.70644 -30.1224 -37.49479 -2.9736 -2.37901 -8.5205 -7.01009 -12.324 -10.28837 -3.8034 -3.27829 -7.2221 -5.96947 -7.5925 -5.96947 -0.3704 0 -3.3623 -1.57752 -6.6572 -3.52115 -11.5801 -6.83074 -23.0392 -12.1736 -31.4428 -14.63481 -4.6679 -1.36715 -10.5462 -3.19243 -13.0393 -4.04381 -7.285 -2.48784 -23.7194 -4.19843 -40.1633 -4.2089 z m -12.40639 14.08461 c 0.97649 -0.024 1.84819 0.0968 2.77839 0.33014 l 2.8334 0.71523 0 28.69191 c 0 22.66113 -0.3107 28.95956 -1.5131 29.95731 -1.7125 1.42134 -63.41416 2.43183 -65.60894 1.07285 -1.80315 -1.11652 6.94219 -17.37599 15.21251 -28.25176 8.87132 -11.66604 21.62917 -22.6182 32.07542 -27.50901 7.6024 -3.55925 11.29261 -4.93482 14.22232 -5.00667 z m 23.52009 0.055 c 2.7901 -0.11221 6.6768 1.34816 15.2401 5.50182 10.9359 5.30448 22.1548 14.96448 30.8927 26.57371 6.938 9.2181 16.578 26.36923 15.6525 27.86664 -0.3338 0.54038 -15.0275 0.99033 -32.6531 0.99033 -25.8787 0 -32.2935 -0.30596 -33.341 -1.56801 -0.9453 -1.13892 -1.0851 -9.25685 -0.5227 -29.95734 0.7233 -26.62031 0.9139 -28.46035 2.9434 -29.10455 0.5714 -0.18133 1.1444 -0.2767 1.7881 -0.3026 z m 47.3706 10.06832 c 0.029 -0.0104 0.069 -0.003 0.1102 0 0.4459 0.0299 2.4395 0.92133 4.429 1.98065 1.9896 1.05931 7.3383 3.90738 11.884 6.32707 8.9146 4.7454 13.3176 7.87478 24.593 17.60578 8.5679 7.39434 21.8059 22.55025 20.9343 23.96035 -0.595 0.96287 -26.5359 1.17666 -29.9023 0.24759 -0.9337 -0.25769 -4.7383 -6.29872 -8.4727 -13.45192 -3.7345 -7.15323 -9.7518 -16.71128 -13.342 -21.20945 -6.7709 -8.48347 -11.1645 -15.13268 -10.2334 -15.46007 z m -120.90212 3.02597 c 0.21012 -0.009 0.35946 0.0295 0.44018 0.11014 0.56407 0.56407 -2.56341 5.57064 -7.29003 11.63633 -4.55725 5.84848 -11.00997 15.96714 -14.33203 22.50237 -3.32207 6.53524 -6.85365 12.53637 -7.84017 13.31436 -2.72608 2.15006 -27.25106 1.95714 -28.08665 -0.22005 -0.94787 -2.46996 15.49258 -20.02767 28.58187 -30.53502 8.40509 -6.74709 25.37439 -16.66053 28.52683 -16.80803 z m 180.65172 60.46485 c 5.8738 -0.0626 10.7303 0.11488 11.4436 0.63269 5.8333 4.23369 16.8247 34.13045 19.2565 52.37717 1.2866 9.65371 1.2374 10.88877 -0.4127 12.15901 -2.7946 2.1512 -40.2734 1.98035 -42.4465 -0.19257 -1.0907 -1.0907 -1.824 -5.66958 -2.3107 -14.41473 -0.3924 -7.05567 -1.2552 -14.60208 -1.898 -16.78051 -0.643 -2.1784 -1.9085 -8.15868 -2.806 -13.28686 -0.8976 -5.12817 -2.4945 -11.14798 -3.5487 -13.36937 -1.427 -3.00759 -1.587 -4.38243 -0.6327 -5.33675 0.9347 -0.9346 13.5657 -1.68376 23.3552 -1.78808 z m -235.11961 0.96281 c 1.40787 -0.0104 2.99051 0 4.75906 0 16.33625 0 17.96915 0.48792 15.79028 4.73155 -2.68388 5.22668 -8.65925 37.62179 -9.10556 49.40618 -0.17318 4.57214 -0.90445 9.16824 -1.65051 10.23336 -1.17145 1.67245 -3.91035 1.98136 -19.94415 2.22824 -15.81156 0.24347 -18.7842 0.0169 -20.05398 -1.51299 -1.81721 -2.18958 -0.84868 -18.27218 1.54044 -25.74845 0.84991 -2.65949 2.9165 -9.12464 4.59405 -14.3597 3.47482 -10.84407 7.61819 -19.52969 10.86612 -22.77745 1.74874 -1.74881 3.34898 -2.13015 13.20425 -2.20074 z m 72.899 0 c 26.46268 -0.0133 34.89781 0.32294 35.65161 1.40296 0.5429 0.778 0.7238 15.42709 0.4125 32.54316 l -0.5501 31.1127 -41.6211 0.30259 c -35.36764 0.25231 -41.72252 0.0366 -42.25382 -1.34792 -1.0105 -2.6336 1.66092 -25.76497 4.56652 -39.47544 2.78699 -13.15164 5.8379 -22.2524 7.9226 -23.68528 0.6651 -0.45726 16.80898 -0.84327 35.87179 -0.85277 z m 50.20391 0.55017 36.7519 0 36.7522 0 2.1182 5.66688 c 5.4915 14.6916 11.2879 54.49926 8.4452 57.98901 -1.8131 2.22599 -83.0345 2.04064 -84.2876 -0.19257 -0.4977 -0.88706 -0.6413 -15.53615 -0.3301 -32.54317 l 0.5502 -30.92015 z m 121.865 77.52042 c 9.9153 -0.095 19.8841 0.21301 21.1543 1.01782 2.5417 1.61028 -0.4653 22.97522 -5.6392 40.08065 -4.2872 14.17363 -8.1294 22.51527 -12.7093 27.64657 -2.1631 2.42383 -3.0926 2.55835 -19.0638 2.55835 l -16.753 0 0 -3.35611 c 0 -1.8461 0.7012 -5.02588 1.5681 -7.06981 2.4921 -5.8756 6.2407 -27.60188 7.51 -43.49178 0.9015 -11.28657 1.5957 -14.88571 3.0535 -15.98273 1.0996 -0.82748 10.9641 -1.308 20.8794 -1.40296 z m -64.6188 1.04535 c 14.5731 0.0313 26.3914 0.22044 27.0139 0.60519 4.2148 2.60487 -4.5884 57.1139 -10.8386 67.0945 l -1.5955 2.55835 -36.1743 0 -36.1744 0 -0.7428 -2.99849 c -0.9385 -3.73997 0.5657 -65.18997 1.6232 -66.26923 0.6356 -0.64878 32.6003 -1.04263 56.8885 -0.99032 z m -190.63746 0.11013 c 14.1202 -0.0133 18.5599 0.33681 19.55889 1.54053 0.71023 0.85568 1.5841 6.59033 1.95322 12.73666 0.7232 12.04724 6.20531 42.15503 9.07803 49.84634 0.96999 2.59739 1.43195 5.24421 1.01758 5.91445 -0.47736 0.77258 -6.31195 1.2379 -15.95515 1.2379 -17.66058 0 -17.0515 0.32105 -23.32762 -11.93891 -9.34172 -18.24869 -17.10617 -55.18754 -12.24146 -58.26411 0.91496 -0.5786 9.87864 -1.06332 19.91651 -1.07286 z m 61.97783 0.2476 c 4.95203 -0.0184 10.36883 -0.0104 15.98266 0.0276 l 40.74087 0.27509 0.2751 32.40563 c 0.18 19.44357 -0.1248 33.60838 -0.7978 35.37658 l -1.1278 2.94349 -33.69865 -0.0274 c -18.53176 -0.009 -34.35935 -0.42948 -35.15628 -0.93531 -4.21613 -2.6753 -10.84302 -30.38335 -12.8744 -53.75262 -1.06161 -12.21368 -1.02481 -14.69531 0.30259 -15.5426 0.65347 -0.41704 11.4976 -0.715 26.35371 -0.77024 z m 98.59233 83.32479 c 17.9455 -0.0886 38.1025 0.52109 38.5675 1.73308 0.3355 0.87388 -1.2735 5.0646 -3.5762 9.32554 -9.9261 18.36957 -26.6163 35.83225 -41.4835 43.38169 -7.8074 3.96455 -19.8376 6.70854 -21.6221 4.92418 -1.4335 -1.43361 -0.859 -56.38717 0.6053 -57.85149 0.9381 -0.93812 13.5515 -1.4441 27.509 -1.513 z m 70.6981 0.11014 c 7.3988 -0.0661 14.7562 0.31102 15.2951 1.18288 2.0961 3.39159 -28.3763 31.99846 -40.9335 38.43009 -3.0067 1.54003 -8.1233 4.48086 -11.3611 6.51964 -5.2095 3.28036 -9.3806 4.67564 -9.3806 3.16354 0 -0.28568 4.021 -5.68031 8.9404 -11.99394 4.9195 -6.31359 11.6233 -16.6269 14.8824 -22.94251 3.2591 -6.31561 6.4308 -12.12373 7.0422 -12.90173 0.6939 -0.88288 8.1165 -1.39183 15.5151 -1.45797 z m -117.71105 0.13756 c 2.83935 -0.12807 3.51685 0.33236 4.15375 1.73305 0.5326 1.17102 0.7239 14.35943 0.4128 29.29712 l -0.5777 27.15143 -5.08924 0.24752 c -14.33778 0.68265 -41.72997 -22.67825 -53.72511 -45.80249 -1.69774 -3.27292 -3.54442 -6.23201 -4.09871 -6.57465 -0.55441 -0.34263 -1.01795 -1.62537 -1.01795 -2.83342 0 -2.10724 1.00559 -2.20074 24.73071 -2.20074 13.60149 0 27.82027 -0.32223 31.58019 -0.71523 1.49934 -0.1567 2.68486 -0.25994 3.63126 -0.30259 z m -90.66965 1.01782 c 15.61232 0 14.49824 -0.68856 21.7045 13.42442 2.65782 5.205 7.94853 13.56409 11.74649 18.56857 3.79796 5.00447 7.59127 10.04679 8.44521 11.19617 4.61374 6.2099 -12.00235 -1.64145 -26.54622 -12.54411 -8.71562 -6.53358 -28.74698 -26.68654 -28.74698 -28.91199 0 -1.45357 2.12787 -1.73306 13.397 -1.73306 z" fill="#fff8eb"/>
  <text x="1015.5481" y="163.66931" font-family="Gentium Book Basic" word-spacing="0" line-height="125%" letter-spacing="0" font-size="208.33334"><tspan x="1015.5481" y="163.66931"/>
  </text>
 </g>
</svg>
