<svg xmlns="http://www.w3.org/2000/svg" xmlns:xlink="http://www.w3.org/1999/xlink" width="512" height="512">
 <defs>
  <linearGradient y2="7.01654" x2="0" y1="92.5396" gradientTransform="scale(1.0058652,0.994169)" gradientUnits="userSpaceOnUse" xlink:href="#1"/>
  <filter x="-0.192" y="-0.192" width="1.384" height="1.384" color-interpolation-filters="sRGB">
   <feGaussianBlur stdDeviation="5.28"/>
  </filter>
  <clipPath>
   <rect width="84" height="84" rx="6" x="6" y="6" fill="#fff"/>
  </clipPath>
  <linearGradient id="0">
   <stop stop-color="#fff"/>
   <stop offset="1" stop-color="#fff" stop-opacity="0"/>
  </linearGradient>
  <linearGradient y1="20.220806" x2="0" y2="138.66119" xlink:href="#0" gradientUnits="userSpaceOnUse"/>
  <filter color-interpolation-filters="sRGB">
   <feGaussianBlur stdDeviation="1.71"/>
  </filter>
  <linearGradient y1="92.5396" x2="0" y2="7.01654" id="1" gradientUnits="userSpaceOnUse" gradientTransform="scale(1.0058652,0.994169)">
   <stop/>
   <stop offset="1" stop-opacity="0.588235"/>
  </linearGradient>
  <linearGradient gradientUnits="userSpaceOnUse" xlink:href="#0" y2="138.66119" x2="0" y1="20.220806"/>
  <clipPath>
   <rect y="6" x="6" rx="6" height="84" width="84" fill="#fff"/>
  </clipPath>
  <linearGradient xlink:href="#1" gradientUnits="userSpaceOnUse" gradientTransform="scale(1.0058652,0.994169)" y1="92.5396" x2="0" y2="7.01654"/>
 </defs>
 <g transform="translate(0,-540.36217)">
  <path d="m 256 546.36217 c -91.41816 0 -171.34078 49.10766 -214.9375 122.34374 -22.248524 37.37427 -35.0625 81.00323 -35.0625 127.65625 0 138.07118 111.92881 250.00004 250 250.00004 138.0712 0 250 -111.92886 250 -250.00004 0 -46.65302 -12.81398 -90.28198 -35.0625 -127.65625 C 427.34078 595.46983 347.41816 546.36217 256 546.36217 z" fill="#0078ad" fill-rule="evenodd"/>
  <text y="1089.8812" x="-1160.4812" font-family="Gentium Book Basic" word-spacing="0" line-height="125%" letter-spacing="0" font-size="208.33333"><tspan y="1089.8812" x="-1160.4812"/>
  </text>
  <text transform="scale(4.0128362,0.2492003)" font-size="75.69771" y="3810.6255" x="28.533577" font-family="Arial" text-anchor="middle"/>
  <text y="934.24939" x="-454.14005" font-family="Gentium Book Basic" word-spacing="0" line-height="125%" letter-spacing="0" font-size="208.33333"><tspan y="934.24939" x="-454.14005"/>
  </text>
  <text transform="scale(4.0128362,0.2492003)" font-size="75.69771" y="3186.1006" x="204.55402" font-family="Arial" text-anchor="middle"/>
  <path d="m 255.98438 642.39344 c -66.33256 0 -120.09375 17.76816 -120.09375 39.6875 0 21.91934 53.76119 39.6875 120.09375 39.6875 66.33256 0 120.09375 -17.76816 120.09375 -39.6875 0 -21.91934 -53.76119 -39.6875 -120.09375 -39.6875 z m -119.8125 53.0625 c -2.14022 3.84953 -3.40625 7.87755 -3.40625 12 l 0 37.5 c 0 28.95766 55.21996 52.5 123.21875 52.5 68.05623 0 123.25 -23.55671 123.25 -52.5 l 0 -37.5 c 0 -4.12245 -1.26351 -8.15047 -3.375 -12 -2.35567 21.2155 -55.06502 38.1875 -119.875 38.1875 -64.81 0 -117.42809 -16.972 -119.8125 -38.1875 z m 0.34375 74.96875 c -2.35568 4.00753 -3.75 8.27021 -3.75 12.59375 l 0 37.46875 c 0 28.98638 55.21996 52.4375 123.21875 52.4375 68.05623 0 123.25 -23.46548 123.25 -52.4375 l 0 -37.46875 c 0 -4.32354 -1.42303 -8.58622 -3.75 -12.59375 -13.22916 22.92481 -61.61343 39.90625 -119.5 39.90625 -57.84349 0 -106.25395 -16.99581 -119.46875 -39.90625 z m 0 77.46875 c -2.35568 4.00753 -3.75 8.17899 -3.75 12.53125 l 0 37.53125 c 0 28.95766 55.21996 52.375 123.21875 52.375 68.05623 0 123.25 -23.4317 123.25 -52.375 l 0 -37.53125 c 0 -4.35226 -1.42303 -8.52372 -3.75 -12.53125 -13.22916 22.88172 -61.61343 39.84375 -119.5 39.84375 -57.84349 0 -106.25395 -16.96203 -119.46875 -39.84375 z" fill="#fff8eb"/>
 </g>
</svg>
