<?xml version="1.0" encoding="UTF-8" standalone="no"?>
<svg
   xmlns:dc="http://purl.org/dc/elements/1.1/"
   xmlns:cc="http://creativecommons.org/ns#"
   xmlns:rdf="http://www.w3.org/1999/02/22-rdf-syntax-ns#"
   xmlns:svg="http://www.w3.org/2000/svg"
   xmlns="http://www.w3.org/2000/svg"
   xmlns:xlink="http://www.w3.org/1999/xlink"
   xmlns:sodipodi="http://sodipodi.sourceforge.net/DTD/sodipodi-0.dtd"
   xmlns:inkscape="http://www.inkscape.org/namespaces/inkscape"
   width="512"
   height="512"
   id="svg2"
   version="1.1"
   inkscape:version="0.48.4 r9939"
   sodipodi:docname="start-here-kde.svg">
  <metadata
     id="metadata22">
    <rdf:RDF>
      <cc:Work
         rdf:about="">
        <dc:format>image/svg+xml</dc:format>
        <dc:type
           rdf:resource="http://purl.org/dc/dcmitype/StillImage" />
      </cc:Work>
    </rdf:RDF>
  </metadata>
  <sodipodi:namedview
     pagecolor="#ffffff"
     bordercolor="#666666"
     borderopacity="1"
     objecttolerance="10"
     gridtolerance="10"
     guidetolerance="10"
     inkscape:pageopacity="0"
     inkscape:pageshadow="2"
     inkscape:window-width="800"
     inkscape:window-height="741"
     id="namedview20"
     showgrid="false"
     inkscape:zoom="1.0644531"
     inkscape:cx="256"
     inkscape:cy="263.5156"
     inkscape:window-x="57"
     inkscape:window-y="0"
     inkscape:window-maximized="0"
     inkscape:current-layer="svg2" />
  <defs
     id="defs4">
    <linearGradient
       id="0">
      <stop
         stop-color="#44afde"
         id="stop7" />
      <stop
         stop-color="#0078ad"
         offset="1"
         id="stop9" />
    </linearGradient>
    <radialGradient
       xlink:href="#0"
       id="1"
       gradientUnits="userSpaceOnUse"
       gradientTransform="matrix(0.69444444,0,0,0.69444444,115.12698,1016.2035)"
       cx="202.85715"
       cy="-316.57144"
       r="360" />
    <radialGradient
       inkscape:collect="always"
       xlink:href="#0"
       id="radialGradient12993"
       gradientUnits="userSpaceOnUse"
       gradientTransform="matrix(0.69444444,0,0,0.69444444,115.12698,475.84132)"
       cx="202.85715"
       cy="-316.57144"
       r="360" />
  </defs>
  <path
     inkscape:connector-curvature="0"
     style="fill:url(#radialGradient12993);fill-rule:evenodd"
     id="path14"
     d="M 506,256 C 506,394.07119 394.07119,506.00002 256,506.00002 117.92881,506.00002 6,394.07119 6,256 6,117.92882 117.92881,6.00001 256,6.00001 394.07119,6.00001 506,117.92882 506,256 z" />
  <path
     style="fill:#fff8eb"
     inkscape:connector-curvature="0"
     id="path18"
     d="m 275.04818,81.611823 -61.47354,6.102179 0,252.145548 60.79782,-8.8115 0,-107.77204 81.06428,119.29705 63.50022,-20.33698 L 335.8462,207.68668 419.61249,99.235505 354.76139,84.321246 274.37255,192.77241 275.05019,81.611823 z M 136.56409,143.29047 c -0.68721,0 -1.50872,0.38792 -2.02705,0.69923 l -23.64363,24.40105 c -1.00694,1.04885 -1.41586,2.83384 -0.67773,4.06841 l 27.697,46.09292 c -4.97225,8.38883 -8.63636,17.57327 -11.48429,27.10689 l -51.340602,10.84994 c -1.431414,0.38793 -2.700278,1.24198 -2.700278,2.71723 l 0,33.89237 c 0,1.43631 1.32274,3.0278 2.700278,3.37732 l 49.989542,12.20063 c 2.66167,11.05158 6.70392,21.55585 12.15944,31.17519 l -29.04767,44.06668 c -0.80581,1.24198 -0.38667,3.02792 0.67773,4.06815 l 23.644,23.71811 c 1.00695,0.97103 2.82411,1.4751 4.05289,0.69924 l 45.26103,-27.78638 c 8.89937,5.15126 18.22835,9.44823 28.37261,12.19681 l 10.80828,50.83664 c 0.31009,1.47509 1.24266,2.71729 2.70057,2.71729 l 33.77637,0 c 1.42359,0 3.03694,-1.31898 3.37728,-2.71729 l 12.15952,-50.83664 c 10.45647,-2.83384 20.60751,-7.48809 29.72357,-12.87606 l 44.58514,29.82412 c 1.22704,0.77586 3.00991,0.38792 4.05326,-0.69924 l 23.64345,-23.72565 c 1.01292,-1.04886 1.41991,-2.83384 0.67772,-4.06433 l -16.21279,-27.10701 -5.40424,2.01845 c -0.77114,0.38793 -1.57446,0 -2.02705,-0.69925 0,0 -10.2177,-15.53137 -23.64371,-35.25111 -16.05026,31.52061 -48.7592,52.87471 -86.46805,52.87471 -53.57514,0 -97.27679,-43.17 -97.27679,-96.92966 0,-39.54448 23.67221,-73.55745 57.42037,-88.79355 l 0,-25.08067 c -6.14255,2.17387 -11.92416,4.37109 -17.56422,7.46091 0,0 -0.66091,0 -0.67764,0 l -45.26056,-29.82807 c -0.61541,-0.38912 -1.33839,-0.73755 -2.02733,-0.65972 z" />
</svg>
