<?xml version="1.0" encoding="UTF-8" standalone="no"?>
<svg
   xmlns:dc="http://purl.org/dc/elements/1.1/"
   xmlns:cc="http://creativecommons.org/ns#"
   xmlns:rdf="http://www.w3.org/1999/02/22-rdf-syntax-ns#"
   xmlns:svg="http://www.w3.org/2000/svg"
   xmlns="http://www.w3.org/2000/svg"
   xmlns:xlink="http://www.w3.org/1999/xlink"
   xmlns:sodipodi="http://sodipodi.sourceforge.net/DTD/sodipodi-0.dtd"
   xmlns:inkscape="http://www.inkscape.org/namespaces/inkscape"
   width="512"
   height="512"
   id="svg2"
   version="1.1"
   inkscape:version="0.48.4 r9939"
   sodipodi:docname="start-here.svg">
  <metadata
     id="metadata82">
    <rdf:RDF>
      <cc:Work
         rdf:about="">
        <dc:format>image/svg+xml</dc:format>
        <dc:type
           rdf:resource="http://purl.org/dc/dcmitype/StillImage" />
      </cc:Work>
    </rdf:RDF>
  </metadata>
  <sodipodi:namedview
     pagecolor="#ffffff"
     bordercolor="#666666"
     borderopacity="1"
     objecttolerance="10"
     gridtolerance="10"
     guidetolerance="10"
     inkscape:pageopacity="0"
     inkscape:pageshadow="2"
     inkscape:window-width="800"
     inkscape:window-height="741"
     id="namedview80"
     showgrid="false"
     inkscape:zoom="1.0644531"
     inkscape:cx="256"
     inkscape:cy="263.5156"
     inkscape:window-x="57"
     inkscape:window-y="0"
     inkscape:window-maximized="0"
     inkscape:current-layer="svg2" />
  <defs
     id="defs4">
    <linearGradient
       id="2">
      <stop
         stop-color="#44afde"
         id="stop49" />
      <stop
         stop-color="#0078ad"
         offset="1"
         id="stop51" />
    </linearGradient>
    <radialGradient
       xlink:href="#2"
       id="3"
       gradientUnits="userSpaceOnUse"
       gradientTransform="matrix(0.69444444,0,0,0.69444444,115.12698,1016.2034)"
       cx="202.85715"
       cy="-316.57144"
       r="360" />
    <radialGradient
       inkscape:collect="always"
       xlink:href="#2"
       id="radialGradient13053"
       gradientUnits="userSpaceOnUse"
       gradientTransform="matrix(0.69444444,0,0,0.69444444,115.12698,475.84123)"
       cx="202.85715"
       cy="-316.57144"
       r="360" />
  </defs>
  <text
     style="font-size:208.33332825px;line-height:125%;letter-spacing:0;word-spacing:0;font-family:Gentium Book Basic"
     sodipodi:linespacing="125%"
     id="text56"
     font-size="208.33333"
     letter-spacing="0"
     line-height="125%"
     word-spacing="0"
     x="-1160.4812"
     y="549.51904">
    <tspan
       id="tspan58"
       x="-1160.4812"
       y="549.51904" />
  </text>
  <text
     style="font-size:75.69770813px;text-anchor:middle;font-family:Arial"
     id="text60"
     x="28.533577"
     y="1642.2406"
     font-size="75.69771"
     transform="scale(4.0128362,0.2492003)" />
  <text
     style="font-size:208.33332825px;line-height:125%;letter-spacing:0;word-spacing:0;font-family:Gentium Book Basic"
     sodipodi:linespacing="125%"
     id="text62"
     font-size="208.33333"
     letter-spacing="0"
     line-height="125%"
     word-spacing="0"
     x="-454.14005"
     y="393.88721">
    <tspan
       id="tspan64"
       x="-454.14005"
       y="393.88721" />
  </text>
  <text
     style="font-size:75.69770813px;text-anchor:middle;font-family:Arial"
     id="text66"
     x="204.55402"
     y="1017.7157"
     font-size="75.69771"
     transform="scale(4.0128362,0.2492003)" />
  <text
     style="font-size:208.33332825px;line-height:125%;letter-spacing:0;word-spacing:0;font-family:Gentium Book Basic"
     sodipodi:linespacing="125%"
     id="text68"
     font-size="208.33333"
     letter-spacing="0"
     line-height="125%"
     word-spacing="0"
     x="-420.76682"
     y="385.76398">
    <tspan
       id="tspan70"
       x="-420.76682"
       y="385.76398" />
  </text>
  <text
     style="font-size:75.69770813px;text-anchor:middle;font-family:Arial"
     id="text72"
     x="212.87062"
     y="985.11829"
     font-size="75.69771"
     transform="scale(4.0128362,0.2492003)" />
  <path
     inkscape:connector-curvature="0"
     style="fill:url(#radialGradient13053);fill-rule:evenodd"
     id="path74"
     d="M 506,256 C 506,394.07119 394.07119,506.00003 256,506.00003 117.92881,506.00003 6,394.07119 6,256 6,117.92882 117.92881,6.00001 256,6.00001 394.07119,6.00001 506,117.92882 506,256 z" />
  <path
     style="fill:#fff8eb;fill-rule:evenodd"
     inkscape:connector-curvature="0"
     id="path78"
     d="m 252.63056,58.426691 c -70.84112,1.189222 -132.5952,39.707566 -166.514411,96.686879 -17.584593,29.53953 -27.69357,64.01731 -27.69357,100.89059 0,109.12748 88.449881,197.57736 197.577421,197.57736 109.12754,0 197.57742,-88.44988 197.57742,-197.57736 0,-36.87328 -10.10898,-71.35106 -27.69357,-100.89059 C 391.42624,97.229779 328.25431,58.426691 256,58.426691 c -1.12898,0 -2.24498,-0.01849 -3.36944,0 z m -53.65428,92.258469 c 0.34125,0 0.68417,0.01 1.02687,0.0319 2.74161,0.19294 5.565,1.00469 8.72845,1.82918 6.3269,1.64895 13.85169,4.48323 22.36665,8.15082 17.02994,7.33508 37.83708,18.13618 58.11479,29.8436 20.27769,11.70731 40.00629,24.28224 54.87369,35.36305 7.43372,5.5403 13.60343,10.65209 18.19496,15.30683 4.59154,4.65482 8.47174,8.14158 8.47174,14.79347 0,6.65191 -3.8802,10.10652 -8.47174,14.76136 -4.59153,4.65472 -10.76124,9.76641 -18.19496,15.30682 -14.8674,11.08082 -34.596,23.68778 -54.87369,35.39519 -20.27771,11.70732 -41.08485,22.50842 -58.11479,29.8436 -8.51496,3.66759 -16.03975,6.50176 -22.36665,8.15083 -6.3269,1.64895 -11.24693,3.22962 -17.00763,-0.0965 -5.76073,-3.32595 -6.83263,-8.39337 -8.56801,-14.69716 -1.73537,-6.30379 -3.09042,-14.21762 -4.17168,-23.42562 -2.16254,-18.41589 -3.24107,-41.82405 -3.24107,-65.23868 0,-23.41473 1.07853,-46.82279 3.24107,-65.23879 1.08126,-9.208 2.43631,-17.12183 4.17168,-23.42561 1.73538,-6.30379 2.80728,-11.40326 8.56801,-14.72921 2.5203,-1.45508 4.86356,-1.94911 7.25231,-1.92539 z" />
</svg>
