<svg xmlns="http://www.w3.org/2000/svg" xmlns:xlink="http://www.w3.org/1999/xlink" width="512" height="512">
 <defs>
  <linearGradient y2="7.01654" x2="0" y1="92.5396" gradientTransform="scale(1.0058652,0.994169)" gradientUnits="userSpaceOnUse" xlink:href="#1"/>
  <filter x="-0.192" y="-0.192" width="1.384" height="1.384" color-interpolation-filters="sRGB">
   <feGaussianBlur stdDeviation="5.28"/>
  </filter>
  <clipPath>
   <rect width="84" height="84" rx="6" x="6" y="6" fill="#fff"/>
  </clipPath>
  <linearGradient id="0">
   <stop stop-color="#fff"/>
   <stop offset="1" stop-color="#fff" stop-opacity="0"/>
  </linearGradient>
  <linearGradient y1="20.220806" x2="0" y2="138.66119" xlink:href="#0" gradientUnits="userSpaceOnUse"/>
  <filter color-interpolation-filters="sRGB">
   <feGaussianBlur stdDeviation="1.71"/>
  </filter>
  <linearGradient y1="92.5396" x2="0" y2="7.01654" id="1" gradientUnits="userSpaceOnUse" gradientTransform="scale(1.0058652,0.994169)">
   <stop/>
   <stop offset="1" stop-opacity="0.588235"/>
  </linearGradient>
 </defs>
 <g transform="translate(0,-540.36217)">
  <text y="1089.8812" x="-1160.4812" font-family="Gentium Book Basic" word-spacing="0" line-height="125%" letter-spacing="0" font-size="208.33333"><tspan y="1089.8812" x="-1160.4812"/>
  </text>
  <text transform="scale(4.0128362,0.2492003)" font-size="75.69771" y="3810.6255" x="28.533577" font-family="Arial" text-anchor="middle"/>
  <path d="M 245.03125 6.25 C 243.79205 6.303507 242.54696 6.366015 241.3125 6.4375 C 242.54841 6.365883 243.79058 6.303594 245.03125 6.25 z M 266.96875 6.25 C 268.20795 6.303507 269.45304 6.366015 270.6875 6.4375 C 269.45159 6.365883 268.20942 6.303594 266.96875 6.25 z M 239.09375 6.5625 C 237.85146 6.645414 236.61225 6.742753 235.375 6.84375 C 236.6106 6.74286 237.85313 6.645352 239.09375 6.5625 z M 272.90625 6.5625 C 274.14854 6.645414 275.38775 6.742753 276.625 6.84375 C 275.3894 6.74286 274.14687 6.645352 272.90625 6.5625 z M 220.125 8.5625 C 218.98712 8.726065 217.85163 8.883663 216.71875 9.0625 C 217.85215 8.883619 218.98658 8.726092 220.125 8.5625 z M 291.875 8.5625 C 293.01288 8.726065 294.14837 8.883663 295.28125 9.0625 C 294.14785 8.883619 293.01342 8.726092 291.875 8.5625 z M 190.03125 14.8125 C 188.6534 15.188548 187.2745 15.56983 185.90625 15.96875 C 187.2766 15.569114 188.65127 15.189188 190.03125 14.8125 z M 321.96875 14.8125 C 323.3466 15.188548 324.7255 15.56983 326.09375 15.96875 C 324.7234 15.569114 323.34873 15.189188 321.96875 14.8125 z M 176.4375 18.9375 C 175.25596 19.333876 174.07984 19.742778 172.90625 20.15625 C 174.08373 19.741284 175.25201 19.33525 176.4375 18.9375 z M 335.5625 18.9375 C 336.74404 19.333876 337.92016 19.742778 339.09375 20.15625 C 337.91627 19.741284 336.74799 19.33525 335.5625 18.9375 z M 171.28125 20.71875 C 170.21211 21.10377 169.15608 21.507129 168.09375 21.90625 C 169.153 21.50819 170.21521 21.10278 171.28125 20.71875 z M 340.71875 20.71875 C 341.78789 21.10377 342.84392 21.507129 343.90625 21.90625 C 342.847 21.50819 341.78479 21.10278 340.71875 20.71875 z M 144.71875 32.09375 C 143.58053 32.660573 142.44077 33.22891 141.3125 33.8125 C 142.44546 33.2263 143.57575 32.66304 144.71875 32.09375 z M 367.28125 32.09375 C 368.41947 32.660573 369.55923 33.22891 370.6875 33.8125 C 369.55454 33.2263 368.42425 32.66304 367.28125 32.09375 z M 107.46875 54.90625 C 106.31289 55.761376 105.17173 56.62554 104.03125 57.5 C 105.16955 56.626977 106.31511 55.760006 107.46875 54.90625 z M 404.53125 54.90625 C 405.68711 55.761376 406.82827 56.62554 407.96875 57.5 C 406.83045 56.626977 405.68489 55.760006 404.53125 54.90625 z M 18.0625 179.15625 C 10.248888 203.36872 6 229.1876 6 256 C 6 394.07119 117.92881 506 256 506 C 394.07119 506 506 394.07119 506 256 C 506 229.1876 501.75111 203.36872 493.9375 179.15625 L 18.0625 179.15625 z M 110.96875 224.3125 C 115.666 224.02584 120.04514 227.08264 121.3125 231.8125 L 175.40625 433.78125 C 176.85466 439.18681 173.68681 444.70784 168.28125 446.15625 C 162.87569 447.60466 157.35466 444.40556 155.90625 439 L 101.78125 237.03125 C 100.33284 231.62569 103.53194 226.10466 108.9375 224.65625 C 109.61319 224.4752 110.29771 224.35345 110.96875 224.3125 z M 255.875 224.3125 C 261.47125 224.3125 265.96875 228.81 265.96875 234.40625 L 265.96875 443.5 C 265.96875 449.09625 261.47125 453.625 255.875 453.625 C 250.27875 453.625 245.78125 449.09625 245.78125 443.5 L 245.78125 234.40625 C 245.78125 228.81 250.27875 224.3125 255.875 224.3125 z M 399.78125 224.3125 C 400.77512 224.27416 401.79896 224.38467 402.8125 224.65625 C 408.21806 226.10466 411.41716 231.62569 409.96875 237.03125 L 355.84375 439 C 354.39534 444.40556 348.87431 447.60466 343.46875 446.15625 C 338.06319 444.70784 334.86409 439.18681 336.3125 433.78125 L 390.4375 231.8125 C 391.61434 227.42048 395.47448 224.47866 399.78125 224.3125 z" transform="translate(0,540.36217)" fill="#0078ad" fill-rule="evenodd"/>
  <path d="M 246.125 23.53125 C 245.74498 23.545859 245.35197 23.59085 244.96875 23.625 C 232.7056 24.71782 223.71969 35.48686 224.8125 47.75 L 225.3125 53.40625 L 94.65625 65.0625 C 65.28536 89.90592 41.739849 121.39414 26.3125 157.21875 L 464.59375 118.15625 C 443.25937 85.937407 414.65349 58.953871 381.125 39.53125 L 269.59375 49.46875 L 269.09375 43.8125 C 268.03509 31.932583 257.9056 23.07837 246.125 23.53125 z" transform="translate(0,540.36217)" fill="#0078ad" fill-rule="evenodd"/>
 </g>
</svg>
