<svg xmlns="http://www.w3.org/2000/svg" xmlns:xlink="http://www.w3.org/1999/xlink" width="512" height="512">
 <defs>
  <linearGradient y2="7.01654" x2="0" y1="92.5396" gradientTransform="scale(1.0058652,0.994169)" gradientUnits="userSpaceOnUse" xlink:href="#1"/>
  <filter x="-0.192" y="-0.192" width="1.384" height="1.384" color-interpolation-filters="sRGB">
   <feGaussianBlur stdDeviation="5.28"/>
  </filter>
  <clipPath>
   <rect width="84" height="84" rx="6" x="6" y="6" fill="#fff"/>
  </clipPath>
  <linearGradient id="0">
   <stop stop-color="#fff"/>
   <stop offset="1" stop-color="#fff" stop-opacity="0"/>
  </linearGradient>
  <linearGradient y1="20.220806" x2="0" y2="138.66119" xlink:href="#0" gradientUnits="userSpaceOnUse"/>
  <filter color-interpolation-filters="sRGB">
   <feGaussianBlur stdDeviation="1.71"/>
  </filter>
  <linearGradient y1="92.5396" x2="0" y2="7.01654" id="1" gradientUnits="userSpaceOnUse" gradientTransform="scale(1.0058652,0.994169)">
   <stop/>
   <stop offset="1" stop-opacity="0.588235"/>
  </linearGradient>
  <linearGradient xlink:href="#1" gradientUnits="userSpaceOnUse" gradientTransform="scale(1.0058652,0.994169)" y1="92.5396" x2="0" y2="7.01654"/>
  <linearGradient xlink:href="#0" gradientUnits="userSpaceOnUse" y1="20.220806" x2="0" y2="138.66119"/>
  <clipPath>
   <rect width="84" height="84" rx="6" x="6" y="6" fill="#fff"/>
  </clipPath>
 </defs>
 <g transform="translate(0,-540.36217)">
  <path transform="matrix(3.0172416,0,0,3.0172412,-416.41385,53.258734)" d="m 305.71429 246.28572 c 0 45.76074 -37.09641 82.85714 -82.85714 82.85714 -45.76074 0 -82.85714 -37.0964 -82.85714 -82.85714 0 -45.76073 37.0964 -82.85714 82.85714 -82.85714 45.76073 0 82.85714 37.09641 82.85714 82.85714 z" fill="#fff8eb" fill-rule="evenodd"/>
  <path d="m 305.71429 246.28572 c 0 45.76074 -37.09641 82.85714 -82.85714 82.85714 -45.76074 0 -82.85714 -37.0964 -82.85714 -82.85714 0 -45.76073 37.0964 -82.85714 82.85714 -82.85714 45.76073 0 82.85714 37.09641 82.85714 82.85714 z" transform="matrix(2.7909485,0,0,2.7909481,-365.98281,108.9915)" fill="#0078ad" fill-rule="evenodd"/>
  <path d="M 256 45.84375 C 139.93391 45.84375 45.84375 139.93392 45.84375 256 C 45.84375 300.69432 59.807403 342.1283 83.59375 376.1875 C 85.30821 367.40027 91.73993 358.34229 104.5625 349.3125 C 129.63197 332.66445 158.8486 324.29046 187.09375 314.78125 C 193.90776 312.39187 200.82537 310.0493 207.0625 306.34375 C 212.61519 303.04476 214.67048 296.37782 215.96875 290.4375 C 216.36082 288.26439 216.64099 286.08727 216.84375 283.90625 C 195.12472 256.22907 180.5625 208.58636 180.5625 169.75 C 180.5625 111.2378 213.62306 94.96875 254.40625 94.96875 C 295.19176 94.96875 328.25 111.26349 328.25 169.78125 C 328.25 207.27462 314.63517 252.94998 294.15625 280.96875 C 294.33213 284.15128 294.71334 287.37684 295.28125 290.53125 C 296.57166 296.47937 298.65262 303.2234 304.21875 306.53125 C 310.44243 310.23456 317.3723 312.76699 324.1875 315.15625 C 352.43271 324.65648 381.64261 333.39217 406.71875 350.03125 C 419.56364 358.86211 426.21653 367.77315 428.21875 376.4375 C 452.11415 342.33002 466.15625 300.80638 466.15625 256 C 466.15625 139.93392 372.06609 45.84375 256 45.84375 z M 352.03125 442.96875 C 351.61373 443.09959 351.19778 443.24722 350.78125 443.375 C 350.82388 443.42716 350.86453 443.4789 350.90625 443.53125 C 351.2799 443.34181 351.65889 443.16035 352.03125 442.96875 z" transform="translate(0,540.36217)" fill="#fff8eb" fill-rule="evenodd"/>
  <text y="923.5307" x="-1672.5795" font-family="Gentium Book Basic" word-spacing="0" line-height="125%" letter-spacing="0" font-size="208.33333"><tspan y="923.5307" x="-1672.5795"/>
  </text>
  <text x="1476.071" y="620.47729" font-family="Gentium Book Basic" word-spacing="0" line-height="125%" letter-spacing="0" font-size="208.33333"><tspan x="1476.071" y="620.47729"/>
  </text>
  <text y="947.86023" x="-1538.972" word-spacing="0" line-height="125%" letter-spacing="0" font-size="208.33333" font-family="Gentium Book Basic"><tspan y="947.86023" x="-1538.972"/>
  </text>
  <text x="1609.6785" y="644.80682" word-spacing="0" line-height="125%" letter-spacing="0" font-size="208.33333" font-family="Gentium Book Basic"><tspan x="1609.6785" y="644.80682"/>
  </text>
  <text y="1824.6854" x="928.49512" word-spacing="0" line-height="125%" letter-spacing="0" font-size="208.33333" font-family="Gentium Book Basic"><tspan y="1824.6854" x="928.49512"/>
  </text>
  <text transform="scale(4.0128362,0.2492003)" font-size="75.69771" y="6759.2739" x="549.10712" font-family="Arial" text-anchor="middle"/>
 </g>
</svg>
