<?xml version="1.0" encoding="UTF-8" standalone="no"?>
<svg
   xmlns:dc="http://purl.org/dc/elements/1.1/"
   xmlns:cc="http://creativecommons.org/ns#"
   xmlns:rdf="http://www.w3.org/1999/02/22-rdf-syntax-ns#"
   xmlns:svg="http://www.w3.org/2000/svg"
   xmlns="http://www.w3.org/2000/svg"
   xmlns:sodipodi="http://sodipodi.sourceforge.net/DTD/sodipodi-0.dtd"
   xmlns:inkscape="http://www.inkscape.org/namespaces/inkscape"
   width="512"
   height="512"
   id="svg2"
   version="1.1"
   inkscape:version="0.48.4 r9939"
   sodipodi:docname="computer.svg">
  <metadata
     id="metadata16">
    <rdf:RDF>
      <cc:Work
         rdf:about="">
        <dc:format>image/svg+xml</dc:format>
        <dc:type
           rdf:resource="http://purl.org/dc/dcmitype/StillImage" />
      </cc:Work>
    </rdf:RDF>
  </metadata>
  <defs
     id="defs14" />
  <sodipodi:namedview
     pagecolor="#ffffff"
     bordercolor="#666666"
     borderopacity="1"
     objecttolerance="10"
     gridtolerance="10"
     guidetolerance="10"
     inkscape:pageopacity="0"
     inkscape:pageshadow="2"
     inkscape:window-width="1309"
     inkscape:window-height="750"
     id="namedview12"
     showgrid="false"
     inkscape:zoom="1.0605469"
     inkscape:cx="256"
     inkscape:cy="256"
     inkscape:window-x="55"
     inkscape:window-y="-3"
     inkscape:window-maximized="1"
     inkscape:current-layer="svg2" />
  <path
     style="fill:#cea86b;fill-rule:evenodd"
     inkscape:connector-curvature="0"
     id="path6"
     d="M 506,256 C 506,394.07119 394.07119,506.00002 256,506.00002 117.92881,506.00002 6,394.07119 6,256 6,117.92882 117.92881,6.00001 256,6.00001 394.07119,6.00001 506,117.92882 506,256 z" />
  <path
     style="fill:none;stroke:#fff8eb;stroke-width:29.8755188"
     inkscape:connector-curvature="0"
     id="path8"
     d="m 256,45.9377 c -116.01418,0 -210.06224,94.04808 -210.06224,210.06224 0,116.01418 94.04806,210.06228 210.06224,210.06228 116.01418,0 210.06224,-94.04809 210.06224,-210.06228 C 466.06224,139.98578 372.01418,45.9377 256,45.9377 z" />
  <path
     style="fill:#fff8eb;fill-rule:evenodd;stroke:#fff8eb;stroke-width:7.26213598;stroke-miterlimit:10"
     inkscape:connector-curvature="0"
     id="path10"
     stroke-miterlimit="10"
     d="m 254.59536,104.09575 c -4.83175,0.0411 -9.75364,0.41375 -14.73897,1.16538 -32.51925,4.90292 -56.75988,23.55949 -71.22898,46.31451 -8.79747,13.83495 -14.89846,30.75897 -15.31554,51.85312 -0.42692,21.58954 6.29356,38.23425 14.57948,52.58914 4.14395,7.17911 7.86257,14.48252 12.17509,21.39999 12.91883,20.72162 26.88323,40.44529 38.93584,61.81402 16.24895,28.8081 29.66488,59.89648 37.27369,97.2476 11.0078,-56.66762 36.1452,-98.02416 62.92413,-138.57553 8.99059,-13.61434 17.94689,-27.2202 25.09242,-42.07009 3.66052,-7.60737 7.77682,-14.73227 10.33508,-23.25232 2.5278,-8.4174 4.31674,-18.56285 4.05427,-29.52082 -0.51266,-21.38837 -6.62396,-37.78941 -15.49948,-51.66912 -8.50342,-13.29814 -19.68748,-24.58199 -34.13324,-33.02922 -14.3634,-8.39878 -33.51609,-14.44495 -54.45379,-14.26666 z m 1.40456,63.1082 c 19.87319,0 35.98561,16.11247 35.98561,35.98559 0,19.87314 -16.11242,35.98561 -35.98561,35.98561 -19.87311,0 -35.97943,-16.11247 -35.97943,-35.98561 0,-19.87312 16.10632,-35.98559 35.97943,-35.98559 z" />
</svg>
