<svg xmlns="http://www.w3.org/2000/svg" xmlns:xlink="http://www.w3.org/1999/xlink" width="512" height="512">
 <defs>
  <linearGradient id="0">
   <stop stop-color="#e75465"/>
   <stop offset="1" stop-color="#cd1d31"/>
  </linearGradient>
  <radialGradient xlink:href="#0" id="1" cx="265.58136" cy="276.53152" r="250" gradientTransform="translate(0,1.8944003e-6)" gradientUnits="userSpaceOnUse"/>
 </defs>
 <path d="m 506 256.00004 c 0 138.07119 -111.92881 250 -250 250 -138.07119 0 -250 -111.92881 -250 -250 C 6 117.92886 117.92881 6.00005 256 6.00005 c 138.07119 0 250 111.92881 250 249.99999 z" fill="url(#1)" fill-rule="evenodd"/>
 <path d="M 256 35.28125 C 134.10767 35.28125 35.28125 134.10767 35.28125 256 35.28125 377.89233 134.10767 476.71875 256 476.71875 377.89233 476.71875 476.71875 377.89233 476.71875 256 476.71875 134.10767 377.89233 35.28125 256 35.28125 z m 0 26.28125 c 107.38714 0 194.4375 87.05036 194.4375 194.4375 0 107.38714 -87.05036 194.4375 -194.4375 194.4375 C 148.61286 450.4375 61.5625 363.38714 61.5625 256 61.5625 148.61286 148.61286 61.5625 256 61.5625 z" fill="#fff8eb" fill-rule="evenodd"/>
 <g transform="matrix(0.65946607,0,0,0.65946607,-1552.9907,255.15092)" fill="#fff8eb">
  <path d="m 2674.5371 238.95797 c -31.9101 -3.36023 -64.8944 -24.07784 -77.9898 -48.9859 -9.0165 -17.14972 -8.4623 -31.83013 1.7414 -46.12929 5.5215 -7.73779 9.1605 -11.11894 28.236 -26.23565 19.1356 -15.16435 26.6865 -22.97621 30.9724 -32.04286 4.0817 -8.63439 5.1239 -13.22456 7.0388 -31 2.4606 -22.84116 4.9628 -29.03688 15.8341 -39.20642 11.4106 -10.67406 35.5507 -23.88226 51.1547 -27.9892 9.0396 -2.37921 11.8247 -2.63941 29 -2.70935 22.7273 -0.0926 31.0445 1.55979 47.0329 9.34383 13.3086 6.47937 21.3981 14.03626 34.6527 32.37123 17.0719 23.61541 31.7786 37.11954 46.5107 42.70737 3.192 1.21072 12.1037 3.49737 19.8037 5.08144 7.7 1.58406 16.979 3.78002 20.62 4.87991 12.8101 3.86973 22.7982 12.68543 29.4817 26.02119 5.9288 11.8298 3.9333 28.33474 -5.7992 47.96626 -9.1945 18.54617 -22.9892 29.65328 -41.8025 33.65812 -8.9894 1.91358 -29.9442 2.10158 -47.7169 0.42809 -6.7192 -0.63269 -17.9692 -1.16431 -25 -1.18137 -21.8077 -0.0529 -38.085 5.19636 -71.0279 22.90575 -49.7602 26.74998 -68.1145 32.71028 -92.7428 30.11685 z"/>
  <path d="m 2577.9537 112.7726 c -24.1172 -8.2217 -45.3737 -35.86936 -48.8414 -63.52649 -2.4695 -19.69684 5.8381 -37.00711 20.0215 -41.7181 32.3292 -10.73802 74.8909 29.6641 74.8909 71.09089 0 16.14784 -5.9576 27.76955 -17.0861 33.33053 -5.458 2.72736 -7.2398 3.11163 -14.3237 3.08902 -5.7017 -0.0182 -10.0302 -0.68716 -14.6612 -2.26588 z"/>
  <path d="m 2898.0247 48.90639 c -8.2451 -3.23262 -17.579 -13.00019 -22.7835 -23.84212 -5.4808 -11.41742 -7.1847 -18.32979 -7.8934 -32.02253 -1.039 -20.07167 4.1749 -37.27969 14.6519 -48.35759 21.0213 -22.22689 52.0418 -6.60231 61.5854 31.01965 2.8934 11.40583 3.2831 27.71417 0.9281 38.83178 -3.1495 14.86849 -12.7742 29.11284 -22.9885 34.02252 -6.0196 2.8934 -16.6082 3.05033 -23.5 0.34829 z"/>
  <path d="m 2635.0247 23.96632 c -29.0362 -5.67058 -55.078 -49.58826 -50.9869 -85.98583 2.6377 -23.46633 14.6148 -35.99863 33.1373 -34.67335 21.3415 1.52698 43.6279 25.84529 52.0149 56.75713 3.3169 12.22516 3.3336 31.6095 0.035 41.15282 -4.4335 12.82857 -11.0916 19.81483 -21.443 22.49994 -5.7598 1.49409 -6.3271 1.50518 -12.7578 0.24929 z"/>
  <path d="m 2527.9792 6.44469 c -4.4473 -11.69751 -5.0097 -39.69442 -1.0959 -54.55585 2.4145 -9.1681 6.9504 -20.27218 11.3662 -27.82457 l 3.2157 -5.5 1.1349 19 c 1.4332 23.9937 3.3267 33.71264 9.4714 48.61364 l 2.8369 6.87951 -7.3891 3.41396 c -4.064 1.87768 -9.597 5.47922 -12.2955 8.00342 -2.6986 2.52421 -5.2085 4.58947 -5.5776 4.58947 -0.3691 0 -1.1192 -1.17881 -1.667 -2.61958 z"/>
  <path d="m 2810.2472 -17.98712 c -11.2373 -2.24266 -23.3865 -13.20337 -30.1618 -27.21109 -14.599 -30.18306 -10.4548 -71.12079 9.273 -91.60069 10.2123 -10.60163 22.5898 -13.74394 35.3788 -8.98168 12.6437 4.7082 25.1997 21.7623 30.4399 41.34488 3.1153 11.64179 3.1203 35.60291 0.01 46.94198 -7.4631 27.20631 -25.8001 43.32638 -44.9397 39.5066 z"/>
  <path d="m 2710.4377 -34.75952 c -29.3913 -10.16015 -49.7855 -55.263 -41.2274 -91.17621 1.5856 -6.65351 6.1953 -15.92887 10.2916 -20.708 2.1346 -2.4905 6.236 -5.50242 10.0488 -7.37941 5.9741 -2.94108 7.0161 -3.13818 14.3466 -2.71382 11.0407 0.63914 17.3744 3.88727 27.7253 14.21861 9.3991 9.38121 14.9705 18.6336 19.3256 32.09356 7.4888 23.14469 5.9735 47.0659 -3.9622 62.54926 -8.0339 12.51986 -22.8705 17.84423 -36.5483 13.11601 z"/>
  <path d="m 2918.0247 -72.53181 c -2.6728 -0.79285 -8.3402 -1.24738 -13.9573 -1.1194 l -9.4573 0.21548 -1.1969 -9.5 c -2.1511 -17.07243 -5.703 -27.68376 -16.4289 -49.08058 -3.3447 -6.67215 -5.8612 -12.35123 -5.5922 -12.62019 1.1045 -1.10453 15.6948 9.51711 23.469 17.08526 13.2898 12.93772 22.4571 28.24591 27.6536 46.178 1.3805 4.76368 2.51 9.0609 2.51 9.54938 0 1.1103 -1.3208 0.97673 -7 -0.70795 z"/>
  <path d="m 2584.1849 -94.63629 c -1.6791 -3.13741 -4.2028 -17.12054 -4.8149 -26.67781 -1.124 -17.55107 3.0707 -37.24239 11.4067 -53.54633 5.4093 -10.57974 6.248 -10.32728 6.248 1.88078 0 20.59733 3.0432 37.77211 9.6219 54.30237 1.9171 4.81714 3.2407 9.15479 2.9413 9.63922 -0.2994 0.48442 -1.7861 1.18641 -3.3038 1.55996 -4.2214 1.03902 -11.2186 5.42407 -16.4226 10.29172 -4.2691 3.99332 -4.7811 4.22331 -5.6766 2.55009 z"/>
  <path d="m 2797.5392 -161.60036 c -3.5441 -16.10614 -9.3082 -28.46598 -22.658 -48.58541 -5.0856 -7.66449 -7.2738 -11.75 -6.2932 -11.75 0.8267 0 3.8507 1.18319 6.7199 2.62932 18.644 9.39682 34.3836 23.98142 44.8764 41.58315 4.0876 6.85689 9.9586 21.08482 9.0477 21.92639 -0.389 0.35944 -3.5653 0.18084 -7.0584 -0.39689 -5.9568 -0.9852 -12.5683 -0.39769 -20.7796 1.84654 -1.9493 0.53277 -2.2773 -0.0844 -3.8548 -7.2531 z"/>
  <path d="m 2672.8909 -161.69044 c -2.4808 -6.30235 -5.022 -16.33765 -6.3926 -25.24533 -1.6282 -10.58074 -2.0808 -50 -0.5742 -50 1.1541 0 11.8047 14.3753 21.1156 28.5 8.3119 12.60923 17.9394 31.58573 18.2642 36 0.193 2.62277 -0.074 2.95862 -2.125 2.67092 -4.9255 -0.69099 -16.921 2.87871 -23.1053 6.87583 l -6.102 3.94392 -1.0807 -2.74534 z"/>
  <path d="m 2825.589 -171.64264 c -0.5427 -1.4252 -0.4279 -1.54006 0.5598 -0.5598 0.6834 0.67834 0.9906 1.48524 0.6827 1.79313 -0.3079 0.30789 -0.867 -0.24711 -1.2425 -1.23333 z"/>
 </g>
</svg>
