<svg xmlns="http://www.w3.org/2000/svg" width="512" height="512">
 <g transform="matrix(1.1420204 0 0 1.1420204 106.02874 -590.06531)">
  <path d="m 350.23127 740.84213 c 0 120.89669 -98.00613 218.90284 -218.90284 218.90284 -120.89669 0 -218.90282 -98.00615 -218.90282 -218.90284 0 -120.89669 98.00614 -218.90284 218.90282 -218.90284 120.89671 0 218.90284 98.00615 218.90284 218.90284 z" fill="#0078ad" fill-rule="evenodd"/>
  <path d="m 131.31697,521.94699 c -5.50869,0 -10.96847,0.1939 -16.375,0.59375 L -86.96428,724.44699 c -0.40125,5.41584 -0.625,10.88788 -0.625,16.40625 0,4.0842 0.15419,8.12719 0.375,12.15625 L 143.50447,522.29074 c -4.03073,-0.22099 -8.10158,-0.34375 -12.1875,-0.34375 z m 37.59375,3.21875 -253.25,253.25 c 1.356617,7.84269 3.113678,15.52946 5.28125,23.0625 L 191.97322,530.44699 c -7.52633,-2.16575 -15.22703,-3.92499 -23.0625,-5.28125 z m -87.375,2.46875 c -15.14666,3.52275 -29.67915,8.63889 -43.4375,15.125 l -104.875,104.875 c -6.48017,13.74735 -11.572,28.2728 -15.09375,43.40625 L 81.53572,527.63449 z m 131.4375,10.0625 -284.8125,284.8125 c 2.66741,6.62879 5.65858,13.11727 8.9375,19.40625 L 232.37947,546.63449 c -6.30056,-3.28549 -12.76461,-6.26583 -19.40625,-8.9375 z m 37.28125,19.34375 -302.71875,302.71875 c 3.686631,5.68587 7.628958,11.19424 11.8125,16.5 L 266.75447,568.85324 c -5.30576,-4.18354 -10.81413,-8.12587 -16.5,-11.8125 z m 31.6875,24.9375 -309.46875,309.46875 c 4.59982,4.85079 9.41402,9.46116 14.4375,13.875 L 295.81697,596.41574 c -4.40745,-5.01589 -9.03188,-9.844 -13.875,-14.4375 z M 308.41072,612.13449 2.62947,917.91574 c 5.49945,4.00365 11.19247,7.76291 17.0625,11.25 L 319.66072,629.19699 c -3.49141,-5.87731 -7.24076,-11.55672 -11.25,-17.0625 z m 21.03125,35.5625 -291.28125,291.28125 c 6.52553,3.07379 13.2347,5.82128 20.09375,8.25 L 337.72322,667.75949 c -2.42757,-6.85581 -5.2092,-13.53989 -8.28125,-20.0625 z m 14.75,41.84375 -264.15625,264.15625 c 7.84448,1.88335 15.85222,3.33054 24,4.34375 l 244.5,-244.5 c -1.01404,-8.15442 -2.45818,-16.1494 -4.34375,-24 z m 6.03125,50.59375 -219.625,219.625 c 0.24112,7.8e-4 0.47744,0 0.71875,0 10.04276,0 19.9412,-0.72173 29.625,-2.03125 L 348.22322,770.44699 c 1.30952,-9.6838 2,-19.55099 2,-29.59375 0,-0.24001 7.7e-4,-0.47892 0,-0.71875 z m -10.15625,66.78125 -142.6875,142.6875 c 19.31527,-6.10687 37.47674,-14.84277 54.0625,-25.75 l 62.90625,-62.90625 c 10.90589,-16.58371 19.61199,-34.71864 25.71875,-54.03125 z" opacity="0.2" fill="#fff" color="#000"/>
  <path d="m 52.25043 802.77037 63.681 -54.52424 100.38958 -85.95451 -72.92032 -67.55847 0 298.11519 65.41385 -64.3414 L 58.68455 695.53468" fill="none" stroke="#fff8eb" stroke-linejoin="round" stroke-linecap="round" stroke-width="26.27274"/>
 </g>
</svg>
