<svg xmlns="http://www.w3.org/2000/svg" width="512" height="512">
 <g transform="translate(0,-540.36218)">
  <path d="M 506 796.35369 C 506 934.42018 394.075 1046.3452 256.00849 1046.3452 117.942 1046.3452 6.017 934.42018 6.017 796.35369 6.017 658.2872 117.942 546.36218 256.00849 546.36218 394.075 546.36218 506 658.2872 506 796.35369 z" fill="#8a704d" fill-rule="evenodd"/>
  <path d="m 255.9954 546.37098 c -6.29104 0 -12.52622 0.22143 -18.70059 0.67807 L 6.713758 777.63011 c -0.458236 6.185 -0.713763 12.43418 -0.713763 18.73627 0 4.66424 0.176088 9.28142 0.428258 13.88268 L 269.91377 546.76354 c -4.60317 -0.25237 -9.25217 -0.39256 -13.91837 -0.39256 z m 42.93283 3.67587 L 9.711562 839.26352 c 1.549284 8.95651 3.555884 17.73496 6.0313 26.33785 L 325.26607 556.07815 c -8.59522 -2.47333 -17.38958 -4.48242 -26.33784 -6.0313 z m -99.78403 2.81937 c -17.2978 4.02305 -33.8942 9.86578 -49.60652 17.27305 L 29.768295 689.90866 c -7.400486 15.69976 -13.21546 32.28812 -17.23737 49.57083 L 199.1442 552.86622 z M 349.2485 564.3578 23.986817 889.61948 c 3.046236 7.57022 6.462214 14.98019 10.206807 22.16234 L 371.41084 574.5646 c -7.19537 -3.75209 -14.57745 -7.1557 -22.16234 -10.2068 z m 42.57595 22.09095 -345.71099 345.71099 c 4.210208 6.49338 8.712426 12.78405 13.490116 18.84334 L 410.66779 599.93887 c -6.05929 -4.77769 -12.34996 -9.27991 -18.84334 -13.49012 z m 36.18777 28.47914 -353.41962 353.41962 c 5.253088 5.5397 10.751003 10.80484 16.487919 15.84554 L 443.85775 631.41581 c -5.03339 -5.72825 -10.31459 -11.24205 -15.84553 -16.48792 z m 30.22785 34.43905 -349.20842 349.20843 c 6.28048 4.57223 12.78203 8.86543 19.48572 12.84773 L 471.0878 668.85266 c -3.98726 -6.712 -8.26909 -13.19801 -12.84773 -19.48572 z m 24.01812 40.6131 -332.64913 332.64916 c 7.45229 3.5103 15.1143 6.648 22.94747 9.4216 L 491.71555 712.89182 c -2.77234 -7.82947 -5.94902 -15.46283 -9.45736 -22.91178 z m 16.8448 47.78642 -301.67183 301.67184 c 8.95856 2.1508 18.10356 3.8035 27.40849 4.9606 L 504.06364 765.17495 c -1.15805 -9.31252 -2.80729 -18.44295 -4.96065 -27.40849 z m 6.88781 57.77909 -250.81623 250.81625 c 0.27537 0.0009 0.54525 0 0.82083 0 11.46904 0 22.77326 -0.8242 33.83235 -2.3197 L 503.70676 830.16304 c 1.4955 -11.05909 2.28404 -22.32762 2.28404 -33.79666 0 -0.2741 0.00088 -0.54694 0 -0.82083 z m -11.59864 76.26555 -162.95204 162.952 c 22.05843 -6.9741 42.7992 -16.9507 61.74048 -29.407 l 71.84022 -71.84021 c 12.45475 -18.93893 22.39729 -39.64939 29.37134 -61.70479 z" opacity="0.2" fill="#fff" color="#000"/>
  <path d="m 165.6998 867.077 72.725 -62.26779 114.64695 -98.1618 -83.2765 -77.15316 0 340.45363 74.70395 -73.47919 -171.45151 -151.85703" fill="none" stroke="#fff8eb" stroke-linejoin="round" stroke-linecap="round" stroke-width="30.004"/>
 </g>
</svg>
