<svg xmlns="http://www.w3.org/2000/svg" width="512" height="512">
 <path d="m 506 256.00004 c 0 138.07119 -111.92881 250 -250 250 -138.07119 0 -250 -111.92881 -250 -250 C 6 117.92886 117.92881 6.00005 256 6.00005 c 138.07119 0 250 111.92881 250 249.99999 z" fill="#924565" fill-rule="evenodd"/>
 <g transform="matrix(1.4051169,0,0,1.4051169,-1102.9456,268.18975)" fill="#fff8eb">
  <path d="m 967.125 -137.78125 c -21.23197 0 -38.3125 12.70344 -38.3125 28.46875 l 0 60.46875 0 23.15625 0 19.1875 c 0 5.134529 3.76992 9.25 8.4375 9.25 l 29.875 0 29.90625 0 c 4.66755 0 8.43755 -4.115471 8.43755 -9.25 l 0 -19.1875 0 -23.15625 0 -60.46875 c 0 -15.76531 -17.11183 -28.46875 -38.3438 -28.46875 z" fill-rule="evenodd"/>
  <path d="m 966.98017 6.06329 c 12.52251 -0.052985 23.66673 0.184166 24.76492 0.527013 1.4863 0.464014 1.99167 1.654983 1.97697 4.659102 -0.0264 5.393078 -0.9747 8.206545 -2.59913 7.71118 -1.08592 -0.331153 -1.32749 0.808432 -1.29699 6.11868 0.0654 11.392486 0.57176 11.09552 -19.28729 11.312009 -9.51922 0.103773 -18.7022 -0.214427 -20.40663 -0.707086 -3.03001 -0.875904 -3.09876 -1.069787 -3.08966 -8.724069 0.008 -6.571668 -0.32072 -7.930561 -2.04655 -8.465064 -2.23359 -0.691791 -2.95064 -5.229951 -1.55135 -9.818559 0.74516 -2.443577 1.43042 -2.519664 23.53571 -2.613184 z"/>
  <path d="m 966.2978 41.44477 c 9.91226 -0.0023 19.31078 0.398924 20.88559 0.891456 2.86161 0.895012 2.86331 0.905255 2.90084 17.366079 0.0206 9.05885 -0.48576 17.661854 -1.12538 19.11791 -1.13292 2.579094 -1.63474 2.648226 -19.46886 2.681289 -10.06826 0.01863 -19.19579 -0.236331 -20.2834 -0.566531 -1.72293 -0.525403 -1.98551 -2.855625 -2.0401 -18.16541 -0.0345 -9.660758 0.20097 -18.410058 0.52318 -19.442886 0.49861 -1.59837 3.26879 -1.878531 18.60813 -1.881897 z"/>
  <path d="m 951.98336 87.979363 c -2.80319 0 -5.0625 3.034649 -5.0625 6.8125 l 0 0.78125 c 0 3.645263 2.11548 6.609247 4.78125 6.812497 l 0 9.5 0 0.78125 0 9.84375 c 0 5.6913 3.8593 10.28125 8.625 10.28125 l 16.625 0 c 4.7657 0 8.59375 -4.58995 8.59375 -10.28125 l 0 -9.84375 0 -0.78125 0 -9.5 c 2.67376 -0.19203 4.78125 -3.159554 4.78125 -6.812497 l 0 -0.78125 c 0 -3.777851 -2.25931 -6.8125 -5.0625 -6.8125 l -33.28125 0 z" fill-rule="evenodd"/>
 </g>
</svg>
