<svg xmlns="http://www.w3.org/2000/svg" xmlns:xlink="http://www.w3.org/1999/xlink" width="512" height="512">
 <defs>
  <linearGradient id="0">
   <stop stop-color="#de263b"/>
   <stop offset="1" stop-color="#cd1d31"/>
  </linearGradient>
  <radialGradient xlink:href="#0" id="1" cx="256" cy="256.00006" r="250" gradientTransform="translate(0,5.1200009e-6)" gradientUnits="userSpaceOnUse"/>
 </defs>
 <path d="m 506 256.00004 c 0 138.07119 -111.92881 250 -250 250 -138.07119 0 -250 -111.92881 -250 -250 C 6 117.92886 117.92881 6.00005 256 6.00005 c 138.07119 0 250 111.92881 250 249.99999 z" fill="url(#1)" fill-rule="evenodd"/>
 <path d="m 255.99961,82.665 c -32.93123,0 -60.28149,23.90178 -65.62815,55.3096 l 70.17718,0 c 3.5399,0 6.37974,2.94071 6.37974,6.60165 0,3.66095 -2.83984,6.60165 -6.37974,6.60165 l -71.0648,0 c 0.016,0.77824 0.007,1.56167 0.0554,2.33 -0.0888,0.41251 -0.11095,0.85431 -0.11095,1.27594 l 0,8.98712 71.12027,0 c 3.5399,0 6.37975,2.94071 6.37975,6.60165 0,3.66094 -2.83985,6.65712 -6.37975,6.65712 l -71.12027,0 0,12.87044 71.12027,0 c 3.5399,0 6.37975,2.99618 6.37975,6.65712 0,3.66095 -2.83985,6.60165 -6.37975,6.60165 l -71.12027,0 0,12.0383 71.12027,0 c 3.5399,0 6.37975,2.94071 6.37975,6.60164 0,3.66095 -2.83985,6.60166 -6.37975,6.60166 l -71.12027,0 0,26.57302 0,1.44237 c 0,0.25709 0.0223,0.52286 0.0554,0.77667 1.18725,35.72387 30.50299,64.35219 66.51576,64.35219 35.97543,0 65.27146,-28.56918 66.51576,-64.24124 9.5e-4,-0.0374 -9.6e-4,-0.0737 0,-0.11095 0.0332,-0.25381 0.0554,-0.51958 0.0554,-0.77667 l 0,-1.44237 0,-100.18972 c 0,-0.42262 -0.0774,-0.86247 -0.16634,-1.27594 0.0889,-1.40905 0.16634,-2.84017 0.16634,-4.27166 0,-36.76628 -29.80496,-66.57124 -66.57124,-66.57124 z" fill="#fff8eb" fill-rule="evenodd"/>
 <path d="m 160.6363,244.59954 c -5.62954,0 -10.26535,4.16422 -10.98424,9.59734 l -0.16635,0 c -0.002,0.25942 0,0.51682 0,0.77668 0,51.11726 36.01096,93.81333 84.04619,104.1285 l 0,75.55835 -30.45634,0 c -7.57104,0 -13.64711,5.60852 -13.64711,12.59306 0,6.98455 6.07607,12.64854 13.64711,12.64854 l 105.84827,0 c 7.57102,0 13.6471,-5.66399 13.6471,-12.64854 0,-6.98454 -6.07608,-12.59306 -13.6471,-12.59306 l -30.45635,0 0,-75.55835 c 47.44742,-10.19528 83.14105,-51.99887 83.99071,-102.2978 0.021,-0.20556 0.046,-0.40151 0.0554,-0.61024 0.004,-0.24064 -9.6e-4,-0.48015 0,-0.72118 7.6e-4,-0.16687 0,-0.33224 0,-0.49928 0,-0.25986 0.002,-0.51726 0,-0.77668 l -0.11095,0 c -0.7189,-5.43312 -5.35471,-9.59734 -10.98426,-9.59734 -5.62955,0 -10.26535,4.16422 -10.98425,9.59734 l -0.11095,0 c 0.002,0.26049 0,0.51564 0,0.77668 0,0.24239 0.002,0.47927 0,0.72118 -0.39018,46.23613 -37.99533,83.60238 -84.32356,83.60238 -46.15995,0 -83.61034,-37.09954 -84.26809,-83.1031 0.007,-0.16999 0,-0.32737 0,-0.49928 0,-0.23741 -0.0408,-0.48748 -0.0554,-0.72118 0,-0.26104 -0.002,-0.51619 0,-0.77668 l -0.0554,0 c -0.7189,-5.43312 -5.35471,-9.59734 -10.98426,-9.59734 z" fill="#fff8eb" fill-rule="evenodd"/>
</svg>
