<?xml version="1.0" encoding="UTF-8" standalone="no"?>
<!-- Created with Inkscape (http://www.inkscape.org/) -->

<svg
   xmlns:dc="http://purl.org/dc/elements/1.1/"
   xmlns:cc="http://creativecommons.org/ns#"
   xmlns:rdf="http://www.w3.org/1999/02/22-rdf-syntax-ns#"
   xmlns:svg="http://www.w3.org/2000/svg"
   xmlns="http://www.w3.org/2000/svg"
   xmlns:sodipodi="http://sodipodi.sourceforge.net/DTD/sodipodi-0.dtd"
   xmlns:inkscape="http://www.inkscape.org/namespaces/inkscape"
   width="512"
   height="512"
   id="svg2"
   version="1.1"
   inkscape:version="0.48.4 r9939"
   sodipodi:docname="battery.svg">
  <defs
     id="defs4" />
  <sodipodi:namedview
     id="base"
     pagecolor="#ffffff"
     bordercolor="#666666"
     borderopacity="1.0"
     inkscape:pageopacity="0.0"
     inkscape:pageshadow="2"
     inkscape:zoom="0.98994949"
     inkscape:cx="232.82801"
     inkscape:cy="219.83739"
     inkscape:document-units="px"
     inkscape:current-layer="layer1"
     showgrid="false"
     inkscape:window-width="1309"
     inkscape:window-height="750"
     inkscape:window-x="55"
     inkscape:window-y="-3"
     inkscape:window-maximized="1"
     showguides="true"
     inkscape:guide-bbox="true" />
  <metadata
     id="metadata7">
    <rdf:RDF>
      <cc:Work
         rdf:about="">
        <dc:format>image/svg+xml</dc:format>
        <dc:type
           rdf:resource="http://purl.org/dc/dcmitype/StillImage" />
        <dc:title />
      </cc:Work>
    </rdf:RDF>
  </metadata>
  <g
     inkscape:label="Layer 1"
     inkscape:groupmode="layer"
     id="layer1"
     transform="translate(0,-540.36218)">
    <path
       sodipodi:type="arc"
       style="fill:#cd1d31;fill-rule:evenodd;stroke:none"
       id="path12977"
       sodipodi:cx="-300"
       sodipodi:cy="-0.85714287"
       sodipodi:rx="134.28572"
       sodipodi:ry="164.28572"
       d="m -165.71428,-0.85714287 a 134.28572,164.28572 0 1 1 -268.57144,0 134.28572,164.28572 0 1 1 268.57144,0 z"
       transform="matrix(1.861702,0,0,1.5217391,814.5106,797.66653)" />
    <rect
       style="color:#000000;fill:#ffffff;fill-opacity:1;fill-rule:evenodd;stroke:none;stroke-width:1px;marker:none;visibility:visible;display:inline;overflow:visible;enable-background:accumulate"
       id="rect3772"
       width="170.7419"
       height="254.93663"
       x="170.62906"
       y="685.30884"
       ry="0" />
    <path
       inkscape:connector-curvature="0"
       style="color:#000000;fill:#fff8eb;fill-opacity:1;fill-rule:evenodd;stroke:none;stroke-width:1px;marker:none;visibility:visible;display:inline;overflow:visible;enable-background:accumulate"
       d="m 224.87319,607.23139 c -16.45527,0 -29.74001,13.01305 -30.26839,29.33533 l -20.48995,0 c -23.15706,0 -41.80098,18.64392 -41.80098,41.80099 l 0,265.32432 c 0,23.15706 18.64392,41.80094 41.80098,41.80094 l 163.7703,0 c 23.15706,0 41.80098,-18.64388 41.80098,-41.80094 l 0,-265.32432 c 0,-23.15707 -18.64392,-41.80099 -41.80098,-41.80099 l -19.4076,0 c -0.52838,-16.32228 -13.81312,-29.33533 -30.26839,-29.33533 l -63.33598,0 z m -67.81464,61.76842 197.88291,0 0,286.63536 -197.88291,0 0,-286.63536 z"
       id="rect2995" />
  </g>
</svg>
