<svg xmlns="http://www.w3.org/2000/svg" xmlns:xlink="http://www.w3.org/1999/xlink" width="512" height="512">
 <defs>
  <linearGradient id="0">
   <stop stop-color="#2f2f2f"/>
   <stop offset="1" stop-color="#5d5d5d"/>
  </linearGradient>
  <linearGradient id="1">
   <stop stop-color="#444"/>
   <stop offset="1" stop-color="#484848"/>
  </linearGradient>
  <linearGradient id="2">
   <stop stop-color="#541d8a"/>
   <stop offset="1" stop-color="#541d8a" stop-opacity="0"/>
  </linearGradient>
  <linearGradient id="3">
   <stop stop-color="#1e5c90"/>
   <stop offset="1" stop-color="#1c68a8" stop-opacity="0"/>
  </linearGradient>
  <linearGradient id="4">
   <stop stop-opacity="0"/>
   <stop offset="0.58132" stop-opacity="0.227451"/>
   <stop offset="1" stop-opacity="0.522085"/>
  </linearGradient>
  <radialGradient xlink:href="#2" id="5" gradientUnits="userSpaceOnUse" gradientTransform="matrix(1.3093592,0,0,1.3093592,-12.72448,-13.835385)" cx="43.696922" cy="45.802799" r="24"/>
  <radialGradient xlink:href="#3" id="6" gradientUnits="userSpaceOnUse" gradientTransform="matrix(1.1546796,0,0,1.1546796,-3.5458335,-3.90988)" cx="22.923729" cy="25.277281" r="24"/>
  <radialGradient xlink:href="#4" id="7" gradientUnits="userSpaceOnUse" cx="33" cy="35" r="24"/>
  <linearGradient xlink:href="#1" id="8" gradientUnits="userSpaceOnUse" x1="24.556362" y1="29.12467" x2="38.875328" y2="43.44364"/>
  <linearGradient xlink:href="#0" id="9" gradientUnits="userSpaceOnUse" x1="15.03068" y1="11.729943" x2="48.67712" y2="57.52508"/>
  <linearGradient id="A">
   <stop stop-color="#7b941e"/>
   <stop offset="1" stop-color="#7b941e" stop-opacity="0"/>
  </linearGradient>
  <radialGradient xlink:href="#A" id="B" gradientUnits="userSpaceOnUse" cx="33" cy="35" r="24"/>
  <path id="C" d="M 57 35 A 24 24 0 1 1 9 35 24 24 0 1 1 57 35 z"/>
 </defs>
 <path d="m 506 256.00004 c 0 138.07119 -111.92881 250 -250 250 -138.07119 0 -250 -111.92881 -250 -250 C 6 117.92886 117.92881 6.00005 256 6.00005 c 138.07119 0 250 111.92881 250 249.99999 z" fill-rule="evenodd" fill="#737373"/>
 <path d="m 256 6 c -17.93345 0 -35.41783 1.911441 -52.28125 5.5 -0.1559 0.03319 -0.31296 0.06027 -0.46875 0.09375 -2.43367 0.522991 -4.84321 1.094351 -7.25 1.6875 -0.18637 0.04593 -0.37629 0.07865 -0.5625 0.125 -1.24787 0.310601 -2.50963 0.639507 -3.75 0.96875 -2.52099 0.669169 -5.01096 1.379804 -7.5 2.125 -0.31244 0.09354 -0.62557 0.186521 -0.9375 0.28125 -0.52849 0.160516 -1.06674 0.304834 -1.59375 0.46875 -0.58409 0.181654 -1.16775 0.376691 -1.75 0.5625 -2.59238 0.827285 -5.1639 1.685033 -7.71875 2.59375 -1.27743 0.454358 -2.54474 0.931818 -3.8125 1.40625 -2.36912 0.886596 -4.72811 1.8255 -7.0625 2.78125 -0.35079 0.143621 -0.71251 0.261083 -1.0625 0.40625 -0.85732 0.355765 -1.71002 0.728749 -2.5625 1.09375 -1.45867 0.624329 -2.89952 1.255141 -4.34375 1.90625 -0.43838 0.197696 -0.87547 0.393604 -1.3125 0.59375 -1.02592 0.469708 -2.04409 0.954376 -3.0625 1.4375 -0.81273 0.385667 -1.62962 0.762102 -2.4375 1.15625 -0.37614 0.183429 -0.74992 0.377242 -1.125 0.5625 -1.92582 0.951194 -3.82136 1.938549 -5.71875 2.9375 -0.71883 0.378455 -1.44158 0.739767 -2.15625 1.125 -0.33651 0.181439 -0.66442 0.379566 -1 0.5625 -1.54842 0.843881 -3.09662 1.687035 -4.625 2.5625 -1.08439 0.621278 -2.14464 1.269267 -3.21875 1.90625 -0.11972 0.07097 -0.25541 0.116333 -0.375 0.1875 -0.93283 0.555315 -1.85632 1.120439 -2.78125 1.6875 -0.40673 0.24927 -0.81356 0.498471 -1.21875 0.75 -1.92243 1.193374 -3.83156 2.41259 -5.71875 3.65625 -0.21935 0.14455 -0.43739 0.292278 -0.65625 0.4375 -1.00524 0.667004 -2.00504 1.350147 -3 2.03125 -1.09971 0.752808 -2.19428 1.511399 -3.28125 2.28125 -0.12252 0.0868 -0.25264 0.162985 -0.375 0.25 -0.96352 0.685008 -1.92168 1.395473 -2.875 2.09375 -1.07405 0.786704 -2.12657 1.571632 -3.1875 2.375 -2.00355 1.517154 -3.98173 3.049391 -5.9375 4.625 -0.282388 0.227498 -0.562373 0.458799 -0.84375 0.6875 -0.677046 0.550271 -1.360101 1.099064 -2.03125 1.65625 -1.210308 1.00485 -2.402858 2.035356 -3.59375 3.0625 -0.704669 0.607794 -1.395971 1.228257 -2.09375 1.84375 -0.299156 0.263875 -0.608369 0.515966 -0.90625 0.78125 21.38552 34.49748 28.56 51.55023 59.20497 30.40847 C 179.45864 78.78295 216.30122 66.5625 256 66.5625 c 39.6768 0 76.50056 12.206927 106.93196 33.0613 31.855 25.414876 45.58726 -5.515439 59.25554 -30.373804 -1.11947 -0.996968 -2.23762 -1.991748 -3.375 -2.96875 -2.27377 -1.953316 -4.59392 -3.846752 -6.9375 -5.71875 -1.17179 -0.935999 -2.34242 -1.865997 -3.53125 -2.78125 -1.18883 -0.915253 -2.38815 -1.82452 -3.59375 -2.71875 -2.12365 -1.575182 -4.29424 -3.11624 -6.46875 -4.625 -0.29452 -0.204246 -0.57956 -0.421989 -0.875 -0.625 -0.0862 -0.05929 -0.16368 -0.128312 -0.25 -0.1875 -1.15311 -0.790649 -2.30184 -1.540777 -3.46875 -2.3125 -1.25426 -0.829495 -2.54256 -1.661389 -3.8125 -2.46875 -1.79295 -1.139863 -3.58272 -2.248673 -5.40625 -3.34375 -1.33918 -0.803854 -2.67593 -1.595671 -4.03125 -2.375 -1.74498 -1.00339 -3.51008 -1.975345 -5.28125 -2.9375 -1.59529 -0.866611 -3.19648 -1.729846 -4.8125 -2.5625 -0.17748 -0.0915 -0.35352 -0.190164 -0.53125 -0.28125 -0.29808 -0.152677 -0.60748 -0.285986 -0.90625 -0.4375 -1.50209 -0.761738 -3.01189 -1.517898 -4.53125 -2.25 -1.82157 -0.877721 -3.65421 -1.727978 -5.5 -2.5625 -1.84579 -0.834522 -3.69315 -1.646832 -5.5625 -2.4375 -1.86935 -0.790668 -3.76399 -1.56634 -5.65625 -2.3125 -0.77126 -0.304123 -1.53751 -0.609597 -2.3125 -0.90625 -0.45616 -0.174727 -0.91756 -0.327876 -1.375 -0.5 -0.97089 -0.365324 -1.92966 -0.740212 -2.90625 -1.09375 -1.61244 -0.583722 -3.24731 -1.167473 -4.875 -1.71875 -1.2751 -0.431493 -2.55952 -0.838615 -3.84375 -1.25 -0.66741 -0.213993 -1.33016 -0.416481 -2 -0.625 -1.65604 -0.515083 -3.32939 -1.018625 -5 -1.5 -0.4811 -0.138697 -0.95521 -0.301622 -1.4375 -0.4375 -0.12382 -0.03487 -0.25111 -0.05907 -0.375 -0.09375 -3.65942 -1.024355 -7.33732 -1.952579 -11.0625 -2.8125 -4.03194 -0.930735 -8.1148 -1.766932 -12.21875 -2.5 -1.8856 -0.336815 -3.78751 -0.64322 -5.6875 -0.9375 C 294.25003 8.920357 293.93786 8.859733 293.625 8.8125 281.34969 6.959111 268.79235 6 256 6 z" fill="#454545" fill-rule="evenodd" color="#000"/>
 <path d="m 399.05731 256.00004 c 0 79.00837 -64.04895 143.05731 -143.05731 143.05731 -79.00836 0 -143.05731 -64.04894 -143.05731 -143.05731 0 -79.00836 64.04895 -143.0573 143.05731 -143.0573 79.00836 0 143.05731 64.04894 143.05731 143.0573 z" fill="#454545" fill-rule="evenodd"/>
 <use transform="matrix(-3.4276431,0,0,-3.4276431,369.11222,375.96751)" fill="url(#9)" fill-rule="evenodd" color="#000" xlink:href="#C"/>
 <use transform="matrix(2.735154,0,0,2.735154,165.73992,160.26961)" fill="url(#8)" fill-rule="evenodd" color="#000" xlink:href="#C"/>
 <use transform="matrix(1.8079874,0,0,1.8079874,196.33642,192.7191)" fill="#496370" fill-rule="evenodd" color="#000" xlink:href="#C"/>
 <use transform="matrix(1.8079874,0,0,1.8079874,196.33642,192.7191)" fill="url(#5)" fill-rule="evenodd" color="#000" xlink:href="#C"/>
 <use transform="matrix(1.8079874,0,0,1.8079874,196.33642,192.7191)" fill="url(#6)" fill-rule="evenodd" color="#000" xlink:href="#C"/>
 <use transform="matrix(1.8079874,0,0,1.8079874,196.33642,192.7191)" fill="url(#7)" fill-rule="evenodd" color="#000" xlink:href="#C"/>
 <path d="m 16.25 274.25 c -2.604879 0 -5.1389 0.14294 -7.71875 0.25 l 0 17.125 C 25.827061 412.81667 130.02735 506 256 506 381.97265 506 486.17294 412.81667 503.46875 291.625 l 0 -17.125 c -2.57985 -0.10704 -5.11384 -0.25 -7.71875 -0.25 -22.89718 2.27904 -47.1851 -2.50164 -52.6875 19.5 -0.40981 1.62693 -0.99038 3.20187 -1.4375 4.8125 -0.69099 2.48018 -1.409 4.93573 -2.1875 7.375 -0.59661 1.87847 -1.2903 3.70892 -1.9375 5.5625 -1.07842 3.07082 -2.16013 6.12684 -3.375 9.125 -0.0225 0.0619 -0.04 0.1256 -0.0625 0.1875 -26.47135 72.69906 -96.20979 124.625 -178.0625 124.625 -81.73413 0 -151.37941 -51.77897 -177.9375 -124.3125 -0.03397 -0.0928 -0.05992 -0.18841 -0.09375 -0.28125 -0.02974 -0.0736 -0.06396 -0.14506 -0.09375 -0.21875 -1.193467 -2.95903 -2.313573 -5.84617 -3.375 -8.875 -0.02672 -0.0763 0.02672 -0.17384 0 -0.25 -1.110613 -3.18085 -2.195463 -6.37179 -3.15625 -9.625 -0.902478 -3.05049 -1.890049 -6.26467 -2.65625 -9.375 -0.06253 -0.25476 -0.15716 -0.5261 -0.21875 -0.78125 -0.163384 -0.67421 -0.343122 -1.35434 -0.5 -2.03125 C 64.62478 271.83818 29.565794 274.31958 16.25 274.25 z" fill="#454545" fill-rule="evenodd" color="#000"/>
 <use transform="matrix(1.2055304,0,0,1.2055304,212.92759,-5.5986833)" fill="#515151" fill-rule="evenodd" color="#000" xlink:href="#C"/>
 <use transform="matrix(0.63403154,0,0,0.63403154,231.78705,14.403777)" fill="#7b941e" fill-rule="evenodd" color="#000" xlink:href="#C"/>
 <use transform="matrix(0.99287236,0,0,0.99287236,219.9453,1.8443483)" fill="url(#B)" fill-rule="evenodd" color="#000" xlink:href="#C"/>
 <use transform="matrix(0.31004502,0,0,0.31004502,238.8418,19.68055)" opacity="0.364929" fill="#fff8eb" fill-rule="evenodd" color="#000" xlink:href="#C"/>
</svg>
