<svg xmlns="http://www.w3.org/2000/svg" xmlns:xlink="http://www.w3.org/1999/xlink" width="512" height="512">
 <defs>
  <linearGradient id="0">
   <stop stop-color="#646464"/>
   <stop offset="1" stop-color="#838383"/>
  </linearGradient>
  <linearGradient id="1">
   <stop stop-color="#fff8eb"/>
   <stop offset="0.5" stop-color="#a4a4a4"/>
   <stop offset="1" stop-color="#fff8eb"/>
  </linearGradient>
  <linearGradient id="2">
   <stop stop-color="#fff"/>
   <stop offset="1" stop-color="#d0d0ce"/>
  </linearGradient>
  <linearGradient id="3">
   <stop stop-color="#242424"/>
   <stop offset="1" stop-color="#363636"/>
  </linearGradient>
  <linearGradient id="4">
   <stop stop-color="#6e6e6e"/>
   <stop offset="1" stop-color="#0d0d0d"/>
  </linearGradient>
  <radialGradient xlink:href="#3" id="5" gradientUnits="userSpaceOnUse" gradientTransform="matrix(1.3027479,0,0,1.3004058,-552.71673,-33.284327)" cx="620.78125" cy="222.46812" r="132.31857"/>
  <radialGradient xlink:href="#4" id="6" gradientUnits="userSpaceOnUse" gradientTransform="matrix(1.1210571,0,0,1.1190416,-439.92646,7.063427)" cx="620.78125" cy="222.46812" r="132.31858"/>
  <radialGradient xlink:href="#2" id="7" cx="1245.6282" cy="494.10251" r="139.46325" gradientTransform="matrix(1,0,0,1.0013607,0,-0.67230544)" gradientUnits="userSpaceOnUse"/>
  <linearGradient xlink:href="#1" id="8" y1="412.76227" x2="0" y2="95.29341" gradientUnits="userSpaceOnUse"/>
  <linearGradient xlink:href="#0" id="9" x1="298.29489" y1="488.28735" x2="180.82635" y2="49.888828" gradientUnits="userSpaceOnUse"/>
  <path d="M 57 35 A 24 24 0 1 1 9 35 24 24 0 1 1 57 35 z" id="A"/>
  <linearGradient id="B">
   <stop stop-color="#7b941e"/>
   <stop stop-opacity="0" stop-color="#7b941e" offset="1"/>
  </linearGradient>
  <radialGradient xlink:href="#B" id="C" gradientUnits="userSpaceOnUse" cx="33" cy="35" r="24"/>
 </defs>
 <path d="m 506 256.00004 c 0 138.07119 -111.92881 250 -250 250 -138.07119 0 -250 -111.92881 -250 -250 C 6 117.92886 117.92881 6.00005 256 6.00005 c 138.07119 0 250 111.92881 250 249.99999 z" fill-rule="evenodd" fill="url(#9)"/>
 <path d="m 40.567175 126.69062 c -22.596096 37.58163 -35.59375 81.57953 -35.59375 128.625 0 47.04548 12.997654 91.04337 35.59375 128.625 l 428.8125 0 c 22.5961 -37.58163 35.59375 -81.57952 35.59375 -128.625 0 -47.04547 -12.99765 -91.04337 -35.59375 -128.625 l -428.8125 0 z" opacity="0.424528" fill="#fff8eb" fill-rule="evenodd"/>
 <path d="m 255.20815 224.16904 c -21.98867 0.0844 -38.25572 27.29923 -27.80104 46.65898 9.09533 17.56578 35.93085 23.01134 50.51291 9.2725 14.60547 -13.13602 12.97927 -40.40883 -4.1998 -50.52939 -5.48852 -3.54029 -11.94464 -5.57535 -18.51207 -5.40209 z" opacity="0.6"/>
 <path d="M 251.03125 158.59375 C 244.83706 158.63315 241.31295 158.7255 238.28125 159.5625 C 235.24955 160.3995 233.06634 162.52205 231.65625 164.4375 C 231.17067 165.0971 230.74177 165.82 230.28125 166.5 C 230.12636 165.92963 230.02717 165.35069 229.53125 164.75 C 228.09479 163.01005 226.20313 162.98869 225.25 163.0625 C 224.84881 163.0936 224.34841 163.1573 223.8125 163.28125 C 222.07121 163.68407 220.42082 164.44893 218.21875 165.46875 C 216.01668 166.48857 213.46994 167.77007 210.875 169.15625 C 205.68512 171.9286 200.42613 174.9828 197.25 177.375 C 189.45899 183.243 179.82842 193.36233 174.65625 201.125 C 172.46679 204.4111 169.91349 209.048 167.75 213.375 C 166.66825 215.5385 165.70643 217.60102 164.9375 219.40625 C 164.16857 221.21148 163.58134 222.56801 163.28125 224.125 C 162.80052 226.61943 163.42093 228.64793 164.25 230.875 C 164.61199 231.84739 165.31073 232.94482 165.8125 233.96875 C 165.4659 233.87025 165.20138 233.75 164.5625 233.75 C 162.93968 233.75 161.5017 234.79773 160.875 235.59375 C 160.2483 236.38977 160.01867 237.02049 159.8125 237.65625 C 159.40016 238.92776 159.22891 240.23858 159.0625 241.90625 C 158.72967 245.24159 158.59277 249.9671 158.59375 256.5625 C 158.59375 273.60006 160.79806 283.62495 167.6875 298.1875 C 169.23401 301.45642 171.83271 305.8856 174.34375 309.8125 C 175.59927 311.77595 176.81715 313.61333 177.875 315.0625 C 178.40393 315.78708 178.90304 316.41418 179.375 316.96875 C 179.84696 317.52332 180.05091 317.92211 181.1875 318.625 C 183.24813 319.89941 184.693 319.92669 186.78125 320.1875 C 187.55326 320.2839 188.57569 320.30869 189.4375 320.375 C 188.79903 320.94923 188.18307 321.66586 187.9375 322.6875 C 187.53636 324.35639 188.11721 325.63911 188.5625 326.40625 C 189.00779 327.17339 189.46994 327.67518 189.96875 328.1875 C 190.96637 329.21213 192.17093 330.20123 193.75 331.46875 C 208.35192 343.18989 226.01742 350.81355 243.8125 353.03125 C 249.65567 353.75945 263.74805 353.61827 269.59375 352.75 L 274.625 352 A 4.093909 4.093909 0 0 0 277.40625 350.28125 L 280.84375 345.34375 C 280.88365 345.28605 280.8978 345.21397 280.9375 345.15625 C 281.0017 345.43946 280.96 345.6368 281.09375 345.96875 C 281.4426 346.83459 282.26573 347.76259 283.15625 348.25 C 284.04677 348.73741 284.85749 348.84375 285.46875 348.84375 C 286.52903 348.84375 286.51158 348.71876 286.75 348.65625 C 286.98842 348.59375 287.20369 348.54349 287.4375 348.46875 C 287.90512 348.31928 288.46071 348.10424 289.09375 347.875 C 290.35984 347.41651 291.97015 346.83018 293.65625 346.15625 C 307.95902 340.43945 322.50034 329.51501 332.125 317.3125 C 338.79034 308.86192 344.72587 298.36225 348.15625 288.90625 L 349.65625 284.78125 A 4.093909 4.093909 0 0 0 349.40625 281.4375 L 347.28125 277.46875 L 347.3125 277.46875 C 347.10717 277.08403 346.78209 276.69862 346.5625 276.3125 C 346.97791 276.3825 347.26621 276.57819 347.78125 276.53125 C 350.13693 276.31655 351.47053 274.44696 351.96875 273.34375 C 352.46697 272.24054 352.64658 271.24662 352.84375 270.09375 C 353.10688 268.55516 353.188 266.66466 353.28125 263.96875 C 353.37455 261.27284 353.42015 258.02379 353.40625 254.84375 C 353.36635 245.66598 353.02739 241.50479 351.78125 235.6875 C 348.31222 219.49312 340.24412 203.26054 329.65625 191.21875 C 328.14822 189.50362 327.21622 188.26119 325.375 187.28125 C 323.53378 186.30131 321.7564 186.3125 320.03125 186.3125 C 319.3602 186.3125 318.62084 186.47688 317.9375 186.5 C 318.81402 185.33688 319 183.86326 319 183.4375 C 319 181.59906 318.42945 181.2387 318.15625 180.84375 C 317.88305 180.4488 317.64418 180.18795 317.40625 179.9375 C 316.93039 179.43661 316.41481 179.00578 315.8125 178.5 C 314.60788 177.48844 313.08368 176.32262 311.375 175.15625 C 301.09577 168.13949 291.04142 163.65709 278.65625 160.5625 C 271.91234 158.87745 269.33552 158.61851 257.03125 158.59375 C 254.80295 158.58975 252.81149 158.58245 251.03125 158.59375 z M 251.0625 162.6875 C 252.81262 162.67635 254.79969 162.68301 257.03125 162.6875 C 269.30088 162.71219 271.01311 162.87138 277.65625 164.53125 C 289.65623 167.5296 299.13088 171.75177 309.0625 178.53125 C 312.2826 180.72934 314.90625 182.9334 314.90625 183.4375 C 314.90625 184.41514 314.59781 184.51308 306.875 185.6875 C 294.73792 187.53322 278.76755 194.70945 266.40625 203.875 C 254.61919 212.61483 240.39056 227.17664 231.5625 239.53125 C 229.86965 241.90034 228.06808 243.84375 227.5625 243.84375 C 225.33811 243.84375 221.92165 223.91956 221.90625 210.78125 C 221.88584 193.6651 226.39977 178.47239 234.9375 166.875 C 237.50198 163.39144 238.81169 162.76552 251.0625 162.6875 z M 225.5625 167.15625 C 227.16227 167.03236 226.77571 168.37113 224.28125 173.0625 C 223.01623 175.44148 221.08102 180.09074 219.96875 183.40625 C 212.42773 205.88413 215.35214 235.23687 228.28125 266.4375 C 229.91187 270.37246 231.25 273.81811 231.25 274.09375 C 231.25783 275.22174 227.11687 274.38631 219.1875 271.6875 C 203.61253 266.38646 192.17864 259.65774 182.71875 250.21875 C 173.68052 241.20051 166.46039 229.3277 167.3125 224.90625 C 167.943 221.635 174.03479 209.45134 178.0625 203.40625 C 182.80898 196.28248 192.48332 186.1058 199.71875 180.65625 C 205.20346 176.52527 220.80833 168.19309 224.75 167.28125 C 225.05854 167.20987 225.33396 167.17395 225.5625 167.15625 z M 320.03125 190.40625 C 323.38979 190.40625 323.61567 190.51918 326.59375 193.90625 C 336.64748 205.34055 344.46962 221.07167 347.78125 236.53125 C 348.97956 242.12525 349.273 245.78052 349.3125 254.875 C 349.3398 261.12269 349.11105 267.66057 348.8125 269.40625 C 348.13783 273.35108 347.1155 273.44522 344.6875 269.78125 C 341.6419 265.18526 331.02115 254.66743 325.15625 250.4375 C 318.37996 245.5502 305.38205 238.78837 296.5 235.5 C 287.46887 232.15647 271.48224 228.18404 261.15625 226.75 C 253.93901 225.7477 252.6875 225.41347 252.6875 224.40625 C 252.6875 222.30151 267.88977 209.47653 277.78125 203.25 C 290.12515 195.47967 306.86669 190.40625 320.03125 190.40625 z M 248.84375 225.375 C 249.10553 226.41236 249.62609 227.57917 250.40625 228.21875 C 251.43512 229.06222 252.26675 229.2948 253.125 229.53125 C 254.8415 230.00415 256.95566 230.30726 260.59375 230.8125 C 265.57662 231.5045 272.12712 232.85256 278.5 234.4375 C 278.02589 234.8217 277.55878 235.20304 277.28125 235.75 C 276.56855 237.15461 276.71426 238.27944 276.84375 239.03125 C 277.10274 240.53487 277.5474 241.41646 278.0625 242.625 C 281.01891 249.56157 283.72043 257.34549 285.90625 264.9375 C 285.35946 264.69867 284.76851 264.47806 284.03125 264.5 C 282.45072 264.5471 282.08302 265.00409 281.6875 265.25 C 281.29198 265.49591 281.02232 265.7076 280.75 265.9375 C 280.20536 266.3973 279.69334 266.90242 279.125 267.5 C 277.98832 268.69517 276.69364 270.24438 275.375 271.9375 C 272.07162 276.17891 267.3678 281.26717 262.46875 286.15625 C 262.38265 285.57951 262.33235 284.99788 262.03125 284.5 C 261.15731 283.05487 260.03676 282.56185 259.1875 282.21875 C 258.33824 281.87565 257.54176 281.67558 256.65625 281.5 C 254.88523 281.14884 252.71787 280.89143 249.84375 280.53125 C 244.17517 279.82086 238.78476 278.76472 233.53125 277.5625 C 234.45617 276.78586 235.33967 275.33466 235.34375 274.09375 C 235.34378 274.08475 235.34381 274.0716 235.34375 274.0625 C 235.33875 273.28547 235.25875 273.19331 235.21875 273.03125 C 235.17755 272.86435 235.12835 272.73671 235.09375 272.625 C 235.02445 272.40159 234.96159 272.21159 234.875 271.96875 C 234.70182 271.48306 234.46483 270.87114 234.1875 270.15625 C 233.63283 268.72648 232.88798 266.86701 232.0625 264.875 C 229.62706 258.99778 227.66518 253.24612 225.96875 247.5625 C 226.44029 247.74815 226.92863 247.9375 227.5625 247.9375 C 228.93696 247.9375 229.43553 247.54609 229.84375 247.3125 C 230.25197 247.07891 230.50083 246.86125 230.75 246.65625 C 231.24835 246.24625 231.68189 245.85282 232.125 245.375 C 233.01123 244.41937 233.9683 243.21888 234.90625 241.90625 C 238.67141 236.63702 243.60299 230.89948 248.84375 225.375 z M 281.90625 237.25 C 283.15876 237.30431 285.63318 238.12919 289.96875 239.5625 C 299.01092 242.55176 312.20543 248.82429 318.84375 253.3125 C 329.32578 260.39952 338.93326 270.49839 343.6875 279.40625 L 345.8125 283.375 L 344.3125 287.5 C 341.0728 296.43039 335.27378 306.70824 328.90625 314.78125 C 319.80506 326.32008 305.62499 336.94782 292.125 342.34375 C 288.82441 343.66299 285.83422 344.75 285.46875 344.75 C 284.31353 344.75 284.72014 343.16898 287.0625 338.71875 C 290.17788 332.79981 293.16994 323.60675 294.4375 316.0625 C 295.79721 307.94997 295.79875 293.19499 294.4375 284.03125 C 292.56687 271.43832 287.68128 254.72773 281.84375 241.03125 C 280.83868 238.67311 280.39211 237.47183 281.4375 237.28125 C 281.56817 237.25743 281.72732 237.24224 281.90625 237.25 z M 164.5625 237.84375 C 165.00445 237.84375 167.00424 240.29906 169 243.3125 C 183.33778 264.96102 212.61101 279.99039 249.34375 284.59375 C 260.83273 286.03355 260.8177 286.06395 253.875 292.03125 C 238.85145 304.94403 223.20443 313.1608 208.875 315.65625 C 200.7006 317.07981 185.98426 316.78929 183.34375 315.15625 C 181.7346 314.16111 174.14659 302.29592 171.375 296.4375 C 164.63738 282.19586 162.6875 273.28179 162.6875 256.5625 C 162.68556 243.48796 163.24168 237.84375 164.5625 237.84375 z M 284.15625 268.59375 C 285.37724 268.55741 286.86041 274.20921 288.53125 285.28125 C 290.15572 296.04625 289.53287 312.89516 287.1875 321.625 C 284.99589 329.78259 281.94183 336.53828 277.46875 343 L 274.03125 347.9375 L 269 348.6875 C 264.35945 349.37677 248.955 349.54732 244.3125 348.96875 C 227.33421 346.85284 210.32998 339.53325 196.3125 328.28125 C 190.16002 323.34265 190.31757 322.6905 197.65625 322.6875 C 213.85871 322.68159 231.51664 316.26815 248 304.375 C 257.14548 297.77627 270.94795 284.25443 278.59375 274.4375 C 281.08486 271.23894 283.57954 268.61095 284.15625 268.59375 z" color="#000" fill="#282629"/>
 <g transform="matrix(0.66911135,0,0,0.66820213,-577.46402,-74.15498)" opacity="0.641509">
  <path d="m 1265.0759 632.79863 7.4953 -1.11478 5.1211 -7.40799 c 6.6851 -9.67031 11.2833 -19.77049 14.5587 -31.97875 3.5052 -13.06467 4.4361 -38.2733 2.0083 -54.38369 -2.4971 -16.5699 -4.7051 -25.00768 -6.5299 -24.95329 -0.8619 0.0257 -4.6133 3.96319 -8.3363 8.75 -11.4268 14.69155 -32.0627 34.89323 -45.7308 44.76858 -24.6347 17.79873 -51.0351 27.42267 -75.25 27.43152 -10.9678 0.004 -11.195 0.95176 -2 8.34264 20.9494 16.83921 46.3756 27.81994 71.75 30.9865 6.9383 0.86587 29.9782 0.59078 36.9136 -0.44074 z" id="D"/>
  <path d="m 1232.8741 630.8983 c -27.1815 -2.81688 -56.1016 -14.72525 -73.7118 -30.35213 l -4 -3.5495 5 -0.0456 c 13.1987 -0.1205 33.0912 -5.08781 47.9904 -11.98358 24.0399 -11.12633 50.6619 -33.04689 71.4927 -58.86699 8.69 -10.7715 7.6458 -11.50402 11.1369 7.81296 2.979 16.48395 2.9677 37.85409 -0.028 51.97528 -2.5105 11.8351 -6.5882 22.39929 -12.4325 32.20875 -6.0731 10.19358 -7.5404 11.43859 -14.3212 12.1511 -11.9138 1.25186 -23.0696 1.48474 -31.1268 0.64975 z" id="E"/>
  <path d="m 1299.6171 623.32377 c 20.176 -8.0753 41.3829 -23.98696 54.9848 -41.25544 9.5164 -12.08168 18.1915 -27.45616 23.0333 -40.82097 l 2.2338 -6.16605 -3.1823 -5.97056 c -7.1053 -13.33108 -21.4519 -28.41235 -37.1175 -39.01845 -9.9211 -6.71684 -29.6582 -16.14164 -43.1719 -20.61523 -14.8105 -4.90291 -15.1568 -4.83971 -12.1526 2.21847 8.7243 20.4975 16.0452 45.50024 18.8409 64.34622 2.0344 13.71403 2.0321 35.80461 0 47.94544 -1.8944 11.29037 -6.363 25.03549 -11.019 33.8935 -3.5007 6.66 -4.1328 9.03272 -2.4063 9.03272 0.5462 0 5.029 -1.61534 9.9618 -3.58965 z" id="F"/>
  <path d="m 1296.3251 615.18069 c 16.645 -33.72074 14.8676 -81.18022 -4.9909 -133.26727 -2.4114 -6.325 -4.0681 -11.62702 -3.6814 -11.78227 1.5353 -0.61639 20.1284 6.25702 30.5095 11.27856 25.7308 12.44657 44.0112 28.39828 55.9568 48.82884 l 2.8213 4.82513 -3.6452 9.20987 c -6.67 16.85222 -16.8577 32.50041 -29.7401 45.68036 -13.4508 13.76151 -26.3064 22.48994 -46.1143 31.30988 l -5.2785 2.35039 4.1628 -8.43349 z" id="G"/>
  <path d="m 1175.1765 583.38298 c 21.4156 -3.73458 44.8387 -16.04678 67.2917 -35.37143 10.376 -8.93039 10.3646 -8.94894 -6.8059 -11.10369 -54.8978 -6.88916 -98.6246 -29.39671 -120.0527 -61.79488 -2.9827 -4.50976 -5.9635 -8.19956 -6.624 -8.19956 -1.974 0 -2.8235 8.43326 -2.8206 28 0 25.02131 2.9116 38.39642 12.9811 59.70979 4.1422 8.76743 15.4807 26.53065 17.8856 28.01994 3.9463 2.44392 25.928 2.87026 38.1448 0.73983 z" id="H"/>
  <path d="m 1141.3839 581.10244 c -5.7408 -1.42367 -19.9793 -25.1907 -26.1111 -43.58496 -6.0599 -18.17841 -8.6728 -43.14922 -6.2747 -59.96539 l 0.8359 -5.86133 4.5539 6.78838 c 6.3268 9.43104 20.3653 23.02964 31.3815 30.39826 21.5693 14.42748 50.4732 24.9314 81.3929 29.57884 6.05 0.90936 12.6482 1.94673 14.6628 2.30528 l 3.6628 0.6519 -7.6628 6.59873 c -16.1342 13.89373 -36.179 25.28179 -53.6628 30.48743 -7.7474 2.30671 -11.1573 2.72226 -24.5 2.98577 -8.525 0.16836 -16.7503 -0.004 -18.2784 -0.38291 z" id="I"/>
  <path d="m 1208.6571 521.16342 c 0 -0.4125 -1.9991 -5.56817 -4.4361 -11.45705 -19.3228 -46.6934 -23.726 -90.62019 -12.4558 -124.25953 1.6623 -4.96183 4.5692 -11.93447 6.4598 -15.49474 4.2606 -8.02387 4.3762 -9.47301 0.6873 -8.61846 -5.8909 1.36462 -29.1833 13.84233 -37.3803 20.02456 -10.8135 8.15554 -25.28 23.35688 -32.3737 34.01798 -6.0195 9.0468 -15.1343 27.30108 -16.0766 32.19668 -1.2735 6.61693 9.5305 24.37881 23.0383 37.87508 14.138 14.12595 31.2275 24.20156 54.5046 32.13484 11.8506 4.03892 18.0442 5.26874 18.0325 3.58064 z" id="J"/>
  <path d="m 1192.6623 515.36155 c -22.1956 -7.30069 -44.8203 -20.92814 -57.53 -34.65189 -8.5285 -9.20891 -19.4777 -26.9349 -19.4652 -31.513 0.01 -3.45418 8.8959 -21.44394 15.4733 -31.32394 13.2658 -19.9269 31.534 -36.10241 53.162 -47.07225 6.3838 -3.23788 11.9654 -5.88705 12.4035 -5.88705 0.4382 0 -0.5175 2.63007 -2.1239 5.8446 -17.7859 35.5929 -15.2447 86.28524 7.0205 140.04294 1.6829 4.06314 3.0598 7.55064 3.0598 7.75 0 0.6667 -1.4412 0.28367 -12 -3.18941 z" id="K"/>
  <path d="m 1384.351 514.16342 c 0.4462 -2.6125 0.7779 -12.4 0.7371 -21.75 -0.059 -13.61036 -0.5201 -19.08496 -2.311 -27.45667 -4.9493 -23.13609 -16.6346 -46.6813 -31.6601 -63.79333 -4.4508 -5.06893 -4.7891 -5.25 -9.8085 -5.25 -19.6747 0 -44.691 7.63078 -63.1392 19.25949 -14.783 9.31833 -37.507 28.48422 -37.507 31.63408 0 1.50735 1.8789 2.03121 12.6652 3.53121 15.4324 2.14611 39.3376 8.05423 52.8348 13.058 13.2744 4.92123 32.6831 15.06877 42.8104 22.38287 8.7652 6.33032 24.6318 22.06772 29.1835 28.94587 3.6287 5.48333 5.1865 5.34213 6.1948 -0.56152 z" id="L"/>
  <path d="m 1377.7172 509.34044 c -5.705 -7.94416 -18.5837 -20.03648 -29.0591 -27.28486 -23.6952 -16.39573 -56.462 -28.63885 -89.9958 -33.62643 -6.325 -0.94073 -12.175 -1.928 -13 -2.19393 -1.5893 -0.51229 1.8147 -3.85603 15.5 -15.22565 24.0712 -19.99819 53.2992 -32.09615 77.5424 -32.09615 l 6.7804 0 6.916 8.75 c 14.026 17.74545 22.8772 36.1681 27.7934 57.84881 1.8161 8.0088 3.0551 38.99578 1.7892 44.74586 l -0.8464 3.84468 -3.4201 -4.76233 z" id="M"/>
  <path d="m 1209.0867 469.46711 c 13.1937 -18.48934 34.5003 -40.32094 52.1163 -53.40056 18.4742 -13.71674 42.3367 -24.45679 60.4758 -27.219 11.5419 -1.75759 11.9835 -1.88081 11.9835 -3.3439 0 -0.75441 -3.9375 -4.06312 -8.75 -7.35269 -14.843 -10.14585 -28.9873 -16.46041 -46.9215 -20.9476 -9.9283 -2.48408 -12.4913 -2.71268 -30.8285 -2.74963 -26.6809 -0.0538 -28.6405 0.31873 -33.0207 6.27681 -12.7598 17.35612 -19.4875 40.06766 -19.457 65.68288 0.023 19.66218 5.104 49.5 8.4284 49.5 0.7556 0 3.4437 -2.90084 5.9737 -6.44631 z" id="N"/>
  <path d="m 1203.4206 470.31491 c -1.3843 -2.28141 -4.8693 -23.08117 -5.6732 -33.85936 -1.5245 -20.44108 1.1869 -38.60577 8.2425 -55.21941 3.3875 -7.97621 8.8331 -17.09452 12.535 -20.98894 2.6357 -2.77272 11.0779 -3.87134 28.6374 -3.7267 21.0118 0.17308 38.499 4.14814 56.9499 12.94544 8.3257 3.96966 24.5501 13.77491 24.5501 14.83694 0 0.23641 -3.2625 0.96957 -7.25 1.62925 -29.3448 4.85469 -58.6247 21.51656 -86.5598 49.25721 -10.14 10.06947 -21.8589 23.62539 -29.501 34.12557 -0.7612 1.04582 -1.6301 1.49582 -1.9309 1 z" id="O"/>
 </g>
 <path d="m 256.62131,109.59673 c -18.30515,-0.0696 -36.62672,3.34299 -53.68805,9.97742 l -0.29238,0.10964 c -18.08626,7.07791 -34.71268,17.78861 -48.64451,31.32108 -14.00645,13.60493 -25.21662,30.00135 -32.81951,47.98665 -7.60289,17.98531 -11.54991,37.4876 -11.54895,57.01386 0.007,19.16636 3.80847,38.32124 11.14693,56.02707 7.33846,17.70582 18.16847,33.92428 31.72309,47.47499 13.55461,13.55072 29.76705,24.38973 47.47499,31.72309 17.70794,7.33336 36.86072,11.11039 56.02708,11.11039 19.16636,0 38.31914,-3.77703 56.02708,-11.11039 17.70793,-7.33336 33.92037,-18.17237 47.47498,-31.72309 13.55462,-13.55071 24.38464,-29.76917 31.7231,-47.47499 l 0.0366,-0.0366 c 7.32677,-17.69375 11.10488,-36.83976 11.11038,-55.99053 9.3e-4,-18.8147 -3.6357,-37.60555 -10.70836,-55.0403 -7.07265,-17.43475 -17.55473,-33.46665 -30.66323,-46.96333 l -0.0366,-0.0366 c -13.10127,-13.47953 -28.80789,-24.37097 -46.0131,-31.9423 -17.221,-7.57831 -35.8681,-11.80503 -54.67483,-12.35301 -1.21986,-0.0355 -2.43438,-0.0684 -3.65472,-0.073 z m -3.25272,20.72234 c 2.09318,-0.0455 4.19358,-0.0242 6.28614,0.0366 32.22393,0.93813 64.04746,14.95645 86.50756,38.08233 l 0.0366,0.0366 c 22.4296,23.11446 35.48091,55.28617 35.48747,87.49433 -1.1e-4,0.0121 1.4e-4,0.0244 0,0.0366 -0.16726,16.32602 -3.58046,32.62072 -9.94087,47.65772 -6.36516,15.04822 -15.72663,28.85244 -27.33741,40.34826 -11.61078,11.49584 -25.49328,20.72029 -40.6041,26.9354 l -0.073,0.0366 c -15.08992,6.19497 -31.41881,9.39268 -47.73083,9.39268 -16.33904,0 -32.6931,-3.21411 -47.80392,-9.42922 l -0.21929,-0.10965 c -15.02308,-6.21382 -28.83212,-15.38744 -40.3848,-26.82575 -11.61078,-11.49582 -20.97226,-25.30003 -27.33742,-40.34825 -6.36041,-15.03701 -9.77361,-31.33171 -9.94087,-47.65773 -1.3e-4,-0.0121 1.2e-4,-0.0244 0,-0.0366 0.003,-16.73534 3.42575,-33.48529 9.94087,-48.90035 l 0.14619,-0.32893 c 6.51773,-15.2969 16.10582,-29.31032 28.03182,-40.89647 12.01216,-11.66987 26.42119,-20.90065 42.02943,-26.97193 13.65723,-5.31239 28.25434,-8.23365 42.90658,-8.55209 z" color="#000" fill-rule="evenodd" fill="url(#8)"/>
 <path d="m 256.46472,147.93169 c -13.51499,-0.0536 -27.04459,2.43856 -39.64149,7.33696 -13.4367,5.22497 -25.79589,13.17052 -36.13728,23.21546 -10.34137,10.04495 -18.63138,22.15733 -24.24481,35.43641 -5.61345,13.27912 -8.52035,27.67762 -8.51965,42.09445 0,14.15371 2.81854,28.27348 8.23492,41.3498 5.41638,13.07632 13.4044,25.05591 23.41257,35.06409 10.00819,10.00818 21.98779,18.0181 35.06409,23.43447 l 0.15334,0.0657 c 13.03321,5.37475 27.12021,8.16921 41.21838,8.16921 14.15369,0 28.27346,-2.81854 41.34978,-8.23494 13.07633,-5.41638 25.05593,-13.42628 35.06409,-23.43445 10.00819,-10.00819 18.0181,-21.98778 23.43449,-35.06409 5.41638,-13.07632 8.23491,-27.19609 8.23491,-41.3498 6.9e-4,-13.89148 -2.70635,-27.77632 -7.9283,-40.64895 -5.21215,-12.84841 -12.92743,-24.65087 -22.58031,-34.60418 l -0.0436,-0.0657 c -9.67846,-9.96504 -21.2762,-18.0144 -33.99097,-23.6097 -12.7148,-5.59528 -26.50055,-8.70636 -40.38613,-9.11097 -0.90067,-0.0263 -1.79289,-0.0402 -2.69388,-0.0437 z m -0.0876,15.26526 c 0.77295,0.002 1.54904,0.0214 2.32155,0.0437 11.83286,0.34449 23.60329,2.991 34.45086,7.73119 l 0.21901,0.0876 c 10.90713,4.79976 20.89223,11.75418 29.19453,20.30258 8.30231,8.54839 14.94734,18.72131 19.42652,29.76397 l 0.022,0.0657 c 4.4567,11.01117 6.76307,22.9005 6.76753,34.77938 l 0,0.022 c -7e-5,0.008 7e-5,0.0148 0,0.022 -0.12567,12.04842 -2.62111,24.09839 -7.31505,35.19552 l -0.17521,0.39423 c -4.69541,10.95648 -11.52547,21.00502 -19.99595,29.39165 -8.57261,8.48768 -18.84813,15.27574 -30.0049,19.86453 -11.15677,4.58879 -23.2195,6.98654 -35.2831,6.98654 -12.06361,0 -24.14827,-2.39775 -35.30502,-6.98654 -11.15174,-4.58673 -21.39082,-11.3822 -29.96107,-19.86453 l -0.022,0 c -8.57258,-8.48771 -15.47155,-18.67534 -20.17117,-29.78588 l -0.13139,-0.32852 c -4.60563,-11.00667 -7.08111,-22.93643 -7.20556,-34.867 -8e-5,-0.009 7e-5,-0.0148 0,-0.022 l 0,-0.022 c 0.004,-12.35064 2.52882,-24.71721 7.33695,-36.09347 l 0.0219,-0.0657 c 4.81347,-11.36498 11.93189,-21.75504 20.78442,-30.35529 8.86895,-8.61624 19.48828,-15.44764 31.01234,-19.93026 10.8038,-4.20245 22.41847,-6.37106 34.01281,-6.32949 z" fill="url(#6)" fill-rule="evenodd"/>
 <path d="m 256.53926,130.41462 c -15.70537,-0.0622 -31.42773,2.83376 -46.06624,8.52605 -15.61438,6.07179 -29.97663,15.30507 -41.99406,26.97801 -12.01743,11.67294 -21.65098,25.74838 -28.17421,41.17964 -6.52322,15.43125 -9.90124,32.16335 -9.90042,48.91672 0,16.44762 3.27535,32.85579 9.56958,48.05139 6.29421,15.19561 15.57683,29.11677 27.20704,40.74697 11.63023,11.63023 25.55138,20.93832 40.74698,27.23252 l 0.17816,0.0763 c 15.14555,6.24584 31.51563,9.49321 47.8987,9.49321 16.44759,0 32.85577,-3.27533 48.05138,-9.56954 15.19562,-6.29423 29.11676,-15.60233 40.74698,-27.23252 11.63022,-11.63022 20.93828,-25.55137 27.23251,-40.74698 6.29423,-15.19562 9.56957,-31.60378 9.56957,-48.0514 8e-4,-16.14288 -3.14496,-32.27806 -9.21324,-47.23696 -6.05691,-14.93079 -15.0226,-28.64605 -26.23993,-40.2125 l -0.051,-0.0763 c -11.24699,-11.58005 -24.72439,-20.934 -39.49988,-27.43613 -14.77548,-6.50212 -30.79551,-10.11743 -46.93154,-10.58759 -1.04665,-0.0306 -2.08346,-0.0468 -3.13046,-0.051 z m -0.10185,17.73929 c 0.89825,0.002 1.8001,0.0249 2.69781,0.051 13.75062,0.40032 27.42872,3.47576 40.03435,8.98418 l 0.2545,0.10174 c 12.67487,5.57765 24.27827,13.65919 33.92612,23.59303 9.64787,9.93385 17.36987,21.75551 22.575,34.58783 l 0.0254,0.0764 c 5.179,12.79576 7.85917,26.612 7.86434,40.4161 l 0,0.0254 c -8e-5,0.009 9e-5,0.0171 0,0.0255 -0.14602,14.00114 -3.04592,28.00404 -8.50061,40.8997 l -0.20361,0.45811 c -5.45639,12.73221 -13.39341,24.40934 -23.23671,34.15518 -9.96197,9.8633 -21.90286,17.7515 -34.86783,23.08401 -12.96494,5.3325 -26.98271,8.11885 -41.00146,8.11885 -14.01876,0 -28.06198,-2.78635 -41.02693,-8.11885 -12.95912,-5.3301 -24.85766,-13.22691 -34.81691,-23.08401 l -0.0254,0 c -9.96198,-9.86329 -17.97906,-21.70206 -23.44033,-34.61329 l -0.15271,-0.38177 c -5.35206,-12.79053 -8.22875,-26.65377 -8.37337,-40.51793 -8e-5,-0.009 1e-4,-0.0171 0,-0.0255 l 0,-0.0254 c 0.007,-14.35232 2.93866,-28.72315 8.52608,-41.94316 l 0.0255,-0.0764 c 5.59358,-13.20692 13.86569,-25.28088 24.15295,-35.275 10.30638,-10.01266 22.64678,-17.95123 36.03857,-23.16036 12.55477,-4.88355 26.05185,-7.40365 39.52532,-7.35534 z" fill="url(#5)" fill-rule="evenodd"/>
 <g transform="matrix(0.66911135,0,0,0.66820213,-577.46402,-74.15498)" opacity="0.754717" fill="url(#7)">
  <use xlink:href="#D"/>
  <use xlink:href="#E"/>
  <use xlink:href="#F"/>
  <use xlink:href="#G"/>
  <use xlink:href="#H"/>
  <use xlink:href="#I"/>
  <use xlink:href="#J"/>
  <use xlink:href="#K"/>
  <use xlink:href="#L"/>
  <use xlink:href="#M"/>
  <use xlink:href="#N"/>
  <use xlink:href="#O"/>
 </g>
 <use height="1" width="1" transform="matrix(1.0477978,0,0,1.0477978,311.41472,32.646808)" xlink:href="#A" fill="#707175" fill-rule="evenodd" color="#000"/>
 <use height="1" width="1" transform="matrix(0.55107433,0,0,0.55107433,327.8066,50.032129)" xlink:href="#A" fill="#7b941e" fill-rule="evenodd" color="#000"/>
 <use height="1" width="1" transform="matrix(0.86296412,0,0,0.86296412,317.51424,39.115986)" xlink:href="#A" fill="url(#C)" fill-rule="evenodd" color="#000"/>
 <use height="1" width="1" transform="matrix(0.26947848,0,0,0.26947848,333.9383,54.618485)" xlink:href="#A" opacity="0.364929" fill="#fff8eb" fill-rule="evenodd" color="#000"/>
</svg>
