<?xml version="1.0" encoding="UTF-8" standalone="no"?>
<svg
   xmlns:dc="http://purl.org/dc/elements/1.1/"
   xmlns:cc="http://creativecommons.org/ns#"
   xmlns:rdf="http://www.w3.org/1999/02/22-rdf-syntax-ns#"
   xmlns:svg="http://www.w3.org/2000/svg"
   xmlns="http://www.w3.org/2000/svg"
   xmlns:xlink="http://www.w3.org/1999/xlink"
   xmlns:sodipodi="http://sodipodi.sourceforge.net/DTD/sodipodi-0.dtd"
   xmlns:inkscape="http://www.inkscape.org/namespaces/inkscape"
   width="512"
   height="512"
   id="svg2"
   version="1.1"
   inkscape:version="0.48.4 r9939"
   sodipodi:docname="cpu.svg">
  <metadata
     id="metadata68">
    <rdf:RDF>
      <cc:Work
         rdf:about="">
        <dc:format>image/svg+xml</dc:format>
        <dc:type
           rdf:resource="http://purl.org/dc/dcmitype/StillImage" />
      </cc:Work>
    </rdf:RDF>
  </metadata>
  <defs
     id="defs66">
    <linearGradient
       id="linearGradient13807">
      <stop
         style="stop-color:#75d2e9;stop-opacity:1;"
         offset="0"
         id="stop13809" />
      <stop
         style="stop-color:#0096bb;stop-opacity:1;"
         offset="1"
         id="stop13811" />
    </linearGradient>
    <radialGradient
       inkscape:collect="always"
       xlink:href="#linearGradient13807"
       id="radialGradient13815"
       cx="250.34254"
       cy="258.82874"
       fx="250.34254"
       fy="258.82874"
       r="250"
       gradientTransform="translate(0,-1.1008e-5)"
       gradientUnits="userSpaceOnUse" />
  </defs>
  <sodipodi:namedview
     pagecolor="#ffffff"
     bordercolor="#666666"
     borderopacity="1"
     objecttolerance="10"
     gridtolerance="10"
     guidetolerance="10"
     inkscape:pageopacity="0"
     inkscape:pageshadow="2"
     inkscape:window-width="1309"
     inkscape:window-height="750"
     id="namedview64"
     showgrid="false"
     inkscape:zoom="0.53027344"
     inkscape:cx="353.3374"
     inkscape:cy="207.92385"
     inkscape:window-x="55"
     inkscape:window-y="-3"
     inkscape:window-maximized="1"
     inkscape:current-layer="svg2" />
  <path
     d="M 506,256 C 506,394.07118 394.07119,506.00001 255.99999,506.00001 117.92881,506.00001 6,394.07118 6,256 6,117.92882 117.92881,5.9999885 255.99999,5.9999885 394.07119,5.9999885 506,117.92882 506,256 z"
     id="path4"
     inkscape:connector-curvature="0"
     style="fill:url(#radialGradient13815);fill-rule:evenodd;fill-opacity:1" />
  <text
     font-size="129.22583"
     letter-spacing="0"
     line-height="125%"
     word-spacing="0"
     x="729.6424"
     y="231.35828"
     font-family="Gentium Book Basic"
     id="text16">
    <tspan
       x="729.6424"
       y="231.35828"
       id="tspan18" />
  </text>
  <text
     x="378.90738"
     y="579.25208"
     font-size="46.954079"
     transform="scale(4.012836,0.24920031)"
     font-family="Arial"
     text-anchor="middle"
     id="text20" />
  <text
     font-size="129.22583"
     letter-spacing="0"
     line-height="125%"
     word-spacing="0"
     x="1310.9095"
     y="151.35626"
     font-family="Gentium Book Basic"
     id="text22">
    <tspan
       x="1310.9095"
       y="151.35626"
       id="tspan24" />
  </text>
  <text
     x="523.75934"
     y="258.21695"
     font-size="46.954079"
     transform="scale(4.012836,0.24920031)"
     font-family="Arial"
     text-anchor="middle"
     id="text26" />
  <text
     font-size="129.22583"
     letter-spacing="0"
     line-height="125%"
     word-spacing="0"
     x="239.33031"
     y="-29.900511"
     font-family="Gentium Book Basic"
     id="text28">
    <tspan
       x="239.33031"
       y="-29.900511"
       id="tspan30" />
  </text>
  <text
     x="256.72147"
     y="-469.13681"
     font-size="46.954079"
     transform="scale(4.012836,0.24920031)"
     font-family="Arial"
     text-anchor="middle"
     id="text32" />
  <text
     font-size="129.22583"
     letter-spacing="0"
     line-height="125%"
     word-spacing="0"
     x="1337.3806"
     y="-246.37442"
     font-family="Gentium Book Basic"
     id="text34">
    <tspan
       x="1337.3806"
       y="-246.37442"
       id="tspan36" />
  </text>
  <text
     x="530.35596"
     y="-1337.811"
     font-size="46.954079"
     transform="scale(4.012836,0.24920031)"
     font-family="Arial"
     text-anchor="middle"
     id="text38" />
  <text
     font-size="129.22583"
     letter-spacing="0"
     line-height="125%"
     word-spacing="0"
     x="1918.6478"
     y="-326.37643"
     font-family="Gentium Book Basic"
     id="text40">
    <tspan
       x="1918.6478"
       y="-326.37643"
       id="tspan42" />
  </text>
  <text
     x="675.20789"
     y="-1658.8459"
     font-size="46.954079"
     transform="scale(4.012836,0.24920031)"
     font-family="Arial"
     text-anchor="middle"
     id="text44" />
  <text
     font-size="129.22583"
     letter-spacing="0"
     line-height="125%"
     word-spacing="0"
     x="1529.527"
     y="-798.776"
     font-family="Gentium Book Basic"
     id="text46">
    <tspan
       x="1529.527"
       y="-798.776"
       id="tspan48" />
  </text>
  <text
     x="578.23883"
     y="-3554.5081"
     font-size="46.954079"
     transform="scale(4.012836,0.24920031)"
     font-family="Arial"
     text-anchor="middle"
     id="text50" />
  <text
     font-size="129.22583"
     letter-spacing="0"
     line-height="125%"
     word-spacing="0"
     x="2110.7942"
     y="-878.77802"
     font-family="Gentium Book Basic"
     id="text52">
    <tspan
       x="2110.7942"
       y="-878.77802"
       id="tspan54" />
  </text>
  <text
     x="723.09082"
     y="-3875.543"
     font-size="46.954079"
     transform="scale(4.012836,0.24920031)"
     font-family="Arial"
     text-anchor="middle"
     id="text56" />
  <text
     font-size="208.33334"
     letter-spacing="0"
     line-height="125%"
     word-spacing="0"
     x="277.98608"
     y="535.93591"
     font-family="Gentium Book Basic"
     id="text58">
    <tspan
       x="277.98608"
       y="535.93591"
       id="tspan60" />
  </text>
  <path
     style="fill:#ffffff;fill-rule:evenodd"
     d="m 190.8125,72.65625 c -6.21464,0 -11.25,5.035398 -11.25,11.25 l 0,49.09375 c 0,6.21463 5.03536,11.1875 11.25,11.1875 6.21462,0 11.21875,-4.97287 11.21875,-11.1875 l 0,-49.09375 c 0,-6.214602 -5.00413,-11.25 -11.21875,-11.25 z m 62.375,0 c -6.21462,0 -11.1875,5.035398 -11.1875,11.25 L 242,133 c 0,6.21463 4.97288,11.1875 11.1875,11.1875 6.21463,0 11.21875,-4.97287 11.21875,-11.1875 l 0,-49.09375 c 0,-6.214602 -5.00412,-11.25 -11.21875,-11.25 z m 62.40625,0 c -6.21462,0 -11.25,5.035398 -11.25,11.25 l 0,49.09375 c 0,6.21463 5.03538,11.1875 11.25,11.1875 6.21464,0 11.1875,-4.97287 11.1875,-11.1875 l 0,-49.09375 c 0,-6.214602 -4.97286,-11.25 -11.1875,-11.25 z M 189.75,160.34375 c -17.09023,0 -30.84375,13.78478 -30.84375,30.875 l 0,127.59375 c 0,17.09026 13.75352,30.84375 30.84375,30.84375 l 126.90625,0 c 17.09023,0 30.8125,-13.75349 30.8125,-30.84375 l 0,-127.59375 c 0,-17.09022 -13.72227,-30.875 -30.8125,-30.875 l -126.90625,0 z M 83.53125,181.375 c -6.214622,0 -11.25,4.94165 -11.25,11.15625 0,6.21464 5.035378,11.25 11.25,11.25 l 49.125,0 c 6.21463,0 11.15625,-5.03536 11.15625,-11.25 0,-6.2146 -4.94162,-11.15625 -11.15625,-11.15625 l -49.125,0 z m 295.875,0 c -6.21462,0 -11.21875,4.94165 -11.21875,11.15625 0,6.21464 5.00413,11.25 11.21875,11.25 l 49.125,0 c 6.21464,0 11.1875,-5.03536 11.1875,-11.25 0,-6.2146 -4.97286,-11.15625 -11.1875,-11.15625 l -49.125,0 z m -295.875,62.375 c -6.214622,0 -11.25,5.00415 -11.25,11.21875 0,6.21463 5.035378,11.1875 11.25,11.1875 l 49.125,0 c 6.21463,0 11.15625,-4.97287 11.15625,-11.1875 0,-6.2146 -4.94162,-11.21875 -11.15625,-11.21875 l -49.125,0 z m 295.875,0 c -6.21462,0 -11.21875,5.00415 -11.21875,11.21875 0,6.21463 5.00413,11.1875 11.21875,11.1875 l 49.125,0 c 6.21464,0 11.1875,-4.97287 11.1875,-11.1875 0,-6.2146 -4.97286,-11.21875 -11.1875,-11.21875 l -49.125,0 z m -295.875,62.375 c -6.214622,0 -11.25,5.03539 -11.25,11.25 0,6.21463 5.035378,11.21875 11.25,11.21875 l 49.125,0 c 6.21463,0 11.15625,-5.00412 11.15625,-11.21875 0,-6.21461 -4.94162,-11.25 -11.15625,-11.25 l -49.125,0 z m 295.875,0 c -6.21462,0 -11.21875,5.03539 -11.21875,11.25 0,6.21463 5.00413,11.21875 11.21875,11.21875 l 49.125,0 c 6.21464,0 11.1875,-5.00412 11.1875,-11.21875 0,-6.21461 -4.97286,-11.25 -11.1875,-11.25 l -49.125,0 z M 190.8125,367.8125 c -6.21464,0 -11.25,5.0354 -11.25,11.25 l 0,49.125 c 0,6.21463 5.03536,11.15625 11.25,11.15625 6.21462,0 11.21875,-4.94162 11.21875,-11.15625 l 0,-49.125 c 0,-6.2146 -5.00413,-11.25 -11.21875,-11.25 z m 62.375,0 c -6.21462,0 -11.1875,5.0354 -11.1875,11.25 l 0,49.125 c 0,6.21463 4.97288,11.15625 11.1875,11.15625 6.21463,0 11.21875,-4.94162 11.21875,-11.15625 l 0,-49.125 c 0,-6.2146 -5.00412,-11.25 -11.21875,-11.25 z m 62.40625,0 c -6.21462,0 -11.25,5.0354 -11.25,11.25 l 0,49.125 c 0,6.21463 5.03538,11.15625 11.25,11.15625 6.21464,0 11.1875,-4.94162 11.1875,-11.15625 l 0,-49.125 c 0,-6.2146 -4.97286,-11.25 -11.1875,-11.25 z"
     id="path62"
     inkscape:connector-curvature="0" />
</svg>
