<svg xmlns="http://www.w3.org/2000/svg" xmlns:xlink="http://www.w3.org/1999/xlink" width="512" height="512">
 <defs>
  <clipPath id="0">
   <path d="m 453.5 386.4375 c -48.69495 49.95127 -119.38908 81.46875 -198.1875 81.46875 -75.86044 0 -144.21354 -29.22091 -192.65625 -75.96875 L 55.25 398.625 c 0.145697 0.18574 0.322548 0.34593 0.46875 0.53125 C 102.41188 458.34416 174.78822 496.375 256 496.375 c 84.05173 0 158.67815 -40.69764 205.125 -103.46875 L 453.5 386.4375 z"/>
  </clipPath>
  <linearGradient id="1">
   <stop stop-color="#c8c8c8"/>
   <stop stop-color="#8c8c8c" offset="1"/>
  </linearGradient>
  <linearGradient id="2">
   <stop stop-color="#4dbeff"/>
   <stop stop-opacity="0.650406" stop-color="#1379ff" offset="0.672131"/>
   <stop stop-opacity="0" stop-color="#06f" offset="1"/>
  </linearGradient>
  <linearGradient id="3">
   <stop stop-color="#242323"/>
   <stop stop-color="#454343" offset="0.5"/>
   <stop stop-color="#242323" offset="1"/>
  </linearGradient>
  <linearGradient id="4">
   <stop stop-color="#454545"/>
   <stop stop-color="#545454" offset="0.5"/>
   <stop stop-color="#454545" offset="1"/>
  </linearGradient>
  <linearGradient xlink:href="#3" id="5" gradientUnits="userSpaceOnUse" gradientTransform="matrix(1.083014,0,0,1.083014,619.14219,-56.369596)" x1="-565.17645" x2="-103.49274"/>
  <linearGradient xlink:href="#4" id="6" gradientUnits="userSpaceOnUse" gradientTransform="matrix(1.083014,0,0,1.083014,619.06624,-56.369596)" x1="-571.05566" x2="-102.15361"/>
  <linearGradient xlink:href="#1" id="7" gradientUnits="userSpaceOnUse" gradientTransform="matrix(0.93516642,0,0,0.93516642,16.526365,-21.392403)" y1="18.701666" x2="0" y2="332.65732"/>
  <radialGradient xlink:href="#2" id="8" gradientUnits="userSpaceOnUse" gradientTransform="matrix(2.1409519,0,0,0.45930704,-294.52603,204.39373)" cx="258.14062" cy="600.84631" r="198.95312"/>
 </defs>
 <g transform="translate(1.25e-6,36.600408)">
  <path d="m 505.99999 219.39959 c 0 138.07118 -111.92881 249.99999 -250 249.99999 -138.07117 0 -249.99998 -111.92881 -249.99998 -249.99999 0 -138.07117 111.92881 -249.99999 249.99998 -249.99999 138.07119 0 250 111.92882 250 249.99999 z" fill="url(#5)" fill-rule="evenodd"/>
  <path d="m 255.13681 -29.592627 c -98.41925 0 -183.10758 54.969899 -221.00221 133.90308 -30.931865 65.63282 -38.475307 131.99412 -9.14706 194.97568 34.66508 73.10742 124.97378 125.22629 230.92692 125.22629 106.95795 0 197.97577 -53.11561 231.90147 -127.3166 12.13293 -26.73369 17.35881 -53.62972 17.63772 -79.59809 C 505.9769 168.87788 489.08756 123.4231 467.72884 88.43096 426.59441 18.10112 346.81291 -29.592627 255.13681 -29.592627 z" fill="url(#6)" fill-rule="evenodd"/>
  <path d="m 255.22711 -4.875042 c -88.12372 0 -163.95288 49.10909 -197.88339 119.62652 -27.696115 58.63515 -34.450448 117.92111 -8.190198 174.18766 31.0388 65.31281 111.90038 111.87485 206.76988 111.87485 95.76919 0 177.26571 -47.4525 207.64248 -113.7423 10.86372 -23.88339 15.54293 -47.91178 15.79266 -71.11146 0.46851 -43.52541 -14.65406 -84.13385 -33.77844 -115.39519 C 408.7487 37.733663 337.31307 -4.875042 255.22711 -4.875042 z" fill="url(#7)" fill-rule="evenodd"/>
  <path transform="translate(-2.140625,-36.600407)" clip-path="url(#0)" d="m 457.09375 389.92586 c -49.64993 50.93089 -121.6501 82.96875 -201.78125 82.96875 -77.14318 0 -146.73982 -29.68641 -196.125 -77.34375 45.76622 58.34435 116.9095 95.8125 196.8125 95.8125 82.43869 0 155.5545 -39.89298 201.09375 -101.4375 z" fill-rule="evenodd" fill-opacity="0.8"/>
  <path transform="translate(-2.140625,-36.600407)" clip-path="url(#0)" d="m 457.09375 389.9183 c -49.64993 50.93089 -121.6501 82.96875 -201.78125 82.96875 -77.14318 0 -146.73982 -29.68641 -196.125 -77.34375 45.76622 58.34435 116.9095 95.8125 196.8125 95.8125 82.43869 0 155.5545 -39.89298 201.09375 -101.4375 z" fill="url(#8)" fill-rule="evenodd"/>
 </g>
 <path d="m 255.09681 83.0323 -13.54815 13.54816 -125.24523 125.24518 -13.54816 13.84927 13.54816 13.54815 125.24523 125.24518 13.84921 13.84923 13.54816 -13.84923 100.25635 -100.25638 -54.49369 0 -59.31082 59.61191 -98.14891 -98.14886 97.84785 -98.14892 59.61188 59.61192 54.49369 0 L 268.64497 96.58046 255.09681 83.03225 z m 0 133.37411 0 38.53695 154.14792 0 0 -38.53695 -154.14792 0 z" color="#000" fill="#fff8eb"/>
</svg>
