<svg xmlns="http://www.w3.org/2000/svg" xmlns:xlink="http://www.w3.org/1999/xlink" width="512" height="512">
 <defs>
  <clipPath id="0">
   <path d="m 453.5 386.4375 c -48.69495 49.95127 -119.38908 81.46875 -198.1875 81.46875 -75.86044 0 -144.21354 -29.22091 -192.65625 -75.96875 L 55.25 398.625 c 0.145697 0.18574 0.322548 0.34593 0.46875 0.53125 C 102.41188 458.34416 174.78822 496.375 256 496.375 c 84.05173 0 158.67815 -40.69764 205.125 -103.46875 L 453.5 386.4375 z"/>
  </clipPath>
  <linearGradient id="1">
   <stop stop-color="#c8c8c8"/>
   <stop stop-color="#8c8c8c" offset="1"/>
  </linearGradient>
  <linearGradient id="2">
   <stop stop-color="#4dbeff"/>
   <stop stop-opacity="0.650406" stop-color="#1379ff" offset="0.672131"/>
   <stop stop-opacity="0" stop-color="#06f" offset="1"/>
  </linearGradient>
  <linearGradient id="3">
   <stop stop-color="#242323"/>
   <stop stop-color="#454343" offset="0.5"/>
   <stop stop-color="#242323" offset="1"/>
  </linearGradient>
  <linearGradient id="4">
   <stop stop-color="#454545"/>
   <stop stop-color="#545454" offset="0.5"/>
   <stop stop-color="#454545" offset="1"/>
  </linearGradient>
  <linearGradient xlink:href="#3" id="5" gradientUnits="userSpaceOnUse" gradientTransform="matrix(1.083014,0,0,1.083014,1.92406,-103.31099)" x1="-565.17645" x2="-103.49274"/>
  <linearGradient xlink:href="#4" id="6" gradientUnits="userSpaceOnUse" gradientTransform="matrix(1.083014,0,0,1.083014,1.92406,-103.31099)" x1="-571.05566" x2="-102.15361"/>
  <linearGradient xlink:href="#1" id="7" gradientUnits="userSpaceOnUse" gradientTransform="matrix(0.93516642,0,0,0.93516642,-600.61581,-68.333802)" y1="18.701666" x2="0" y2="332.65732"/>
  <radialGradient xlink:href="#2" id="8" gradientUnits="userSpaceOnUse" gradientTransform="matrix(2.1409519,0,0,0.45930704,-294.52603,204.39373)" cx="258.14062" cy="600.84631" r="198.95312"/>
 </defs>
 <g transform="translate(617.21812,83.541808)">
  <path d="m -111.21813 172.45819 c 0 138.07118 -111.92882 249.99999 -250 249.99999 -138.07118 0 -249.99999 -111.92881 -249.99999 -249.99999 0 -138.07117 111.92881 -249.99999 249.99999 -249.99999 138.07118 0 250 111.92882 250 249.99999 z" fill="url(#5)" fill-rule="evenodd"/>
  <path d="m -362.00536 -76.53403 c -98.41926 0 -183.10759 54.969899 -221.00222 133.90308 -30.93186 65.63282 -38.47531 131.99412 -9.14706 194.97568 34.66508 73.10742 124.97379 125.22629 230.92693 125.22629 106.95795 0 197.97577 -53.11561 231.90147 -127.3166 12.13293 -26.73369 17.35881 -53.62972 17.63772 -79.59809 0.52325 -48.71985 -16.36609 -94.17463 -37.72481 -129.16677 -41.13443 -70.32985 -120.91593 -118.02359 -212.59203 -118.02359 z" fill="url(#6)" fill-rule="evenodd"/>
  <path d="m -361.91506 -51.816441 c -88.12372 0 -163.95289 49.10909 -197.88339 119.62653 -27.69612 58.63515 -34.45045 117.92111 -8.1902 174.18766 31.0388 65.31281 111.90039 111.87485 206.76989 111.87485 95.76919 0 177.26571 -47.4525 207.64248 -113.7423 10.86372 -23.88339 15.54293 -47.91178 15.79266 -71.11146 0.46851 -43.52541 -14.65406 -84.13385 -33.77844 -115.39519 -36.83142 -62.83138 -108.26705 -105.44008 -190.353 -105.44008 z" fill="url(#7)" fill-rule="evenodd"/>
  <path transform="translate(-617.21813,-83.541806)" clip-path="url(#0)" d="m 457.09375 389.92586 c -49.64993 50.93089 -121.6501 82.96875 -201.78125 82.96875 -77.14318 0 -146.73982 -29.68641 -196.125 -77.34375 45.76622 58.34435 116.9095 95.8125 196.8125 95.8125 82.43869 0 155.5545 -39.89298 201.09375 -101.4375 z" fill-rule="evenodd" fill-opacity="0.8"/>
  <path transform="translate(-617.21813,-83.541806)" clip-path="url(#0)" d="m 457.09375 389.9183 c -49.64993 50.93089 -121.6501 82.96875 -201.78125 82.96875 -77.14318 0 -146.73982 -29.68641 -196.125 -77.34375 45.76622 58.34435 116.9095 95.8125 196.8125 95.8125 82.43869 0 155.5545 -39.89298 201.09375 -101.4375 z" fill="url(#8)" fill-rule="evenodd"/>
 </g>
 <g transform="translate(-5.2080845e-6,-5.7182574)" fill="#fff8eb">
  <path d="m 294.58999 361.52915 c 0 19.55712 -15.85416 35.4113 -35.41129 35.4113 -19.55711 0 -35.41128 -15.85418 -35.41128 -35.4113 0 -19.55711 15.85417 -35.41129 35.41128 -35.41129 19.55713 0 35.41129 15.85418 35.41129 35.41129 z" id="9" fill="#fff8eb" fill-rule="evenodd"/>
  <path d="m 290.19456 126.78593 -61.35133 0.35035 30.34573 -49.03341 z" fill-rule="evenodd"/>
  <path d="m 246.83133,118.21603 h 24.69468 v 217.22071 h -24.69468 z" fill-rule="evenodd"/>
  <path d="m 188.57852 259.79282 17.46178 -17.46177 64.18045 64.18045 -17.46178 17.46177 z" fill-rule="evenodd"/>
  <path d="m 188.57758,178.57956 h 24.69468 v 81.21319 h -24.69468 z" fill-rule="evenodd"/>
  <use transform="matrix(0.74553695,0,0,0.74553695,7.6977806,-74.866628)" xlink:href="#9" width="512" height="512"/>
  <path d="m 328.27597 216.41465 -17.46177 -17.46178 -64.18045 64.18044 17.46177 17.46179 z" fill-rule="evenodd"/>
  <path d="m 328.277,135.20036 h -24.69468 v 81.21319 H 328.277 z" fill-rule="evenodd"/>
  <path d="m 294.38305,131.25294 h 43.0923 v 40.88842 h -43.0923 z" fill-rule="evenodd"/>
 </g>
</svg>
