<svg xmlns="http://www.w3.org/2000/svg" xmlns:xlink="http://www.w3.org/1999/xlink" width="512" height="512">
 <defs>
  <linearGradient id="0">
   <stop stop-color="#454545"/>
   <stop offset="0.5" stop-color="#545454"/>
   <stop offset="1" stop-color="#454545"/>
  </linearGradient>
  <linearGradient id="1">
   <stop stop-color="#242323"/>
   <stop offset="0.5" stop-color="#454343"/>
   <stop offset="1" stop-color="#242323"/>
  </linearGradient>
  <linearGradient xlink:href="#0" id="2" gradientUnits="userSpaceOnUse" x1="-571.05566" x2="-102.15361" gradientTransform="matrix(1.083014,0,0,1.083014,619.14219,-19.769189)"/>
  <linearGradient xlink:href="#1" id="3" gradientUnits="userSpaceOnUse" x1="-565.17645" x2="-103.49274" gradientTransform="matrix(1.083014,0,0,1.083014,619.14219,-19.769189)"/>
  <linearGradient xlink:href="#6" id="4" x2="0" gradientUnits="userSpaceOnUse" y2="332.65732" y1="18.701666" gradientTransform="matrix(0.93516642,0,0,0.93516642,16.60232,15.208004)"/>
  <linearGradient id="5">
   <stop stop-color="#4dbeff"/>
   <stop offset="0.672131" stop-color="#1379ff" stop-opacity="0.650406"/>
   <stop offset="1" stop-color="#06f" stop-opacity="0"/>
  </linearGradient>
  <linearGradient id="6">
   <stop stop-color="#c8c8c8"/>
   <stop offset="1" stop-color="#8c8c8c"/>
  </linearGradient>
  <radialGradient xlink:href="#5" id="7" cx="258.14062" cy="600.84631" r="198.95312" gradientTransform="matrix(2.1409519,0,0,0.45930704,-294.52603,204.39373)" gradientUnits="userSpaceOnUse"/>
  <filter id="8" color-interpolation-filters="sRGB">
   <feGaussianBlur in="SourceGraphic" stdDeviation="36.60208511 6.81782979"/>
  </filter>
  <clipPath id="9">
   <path d="m 453.5 386.4375 c -48.69495 49.95127 -119.38908 81.46875 -198.1875 81.46875 -75.86044 0 -144.21354 -29.22091 -192.65625 -75.96875 L 55.25 398.625 c 0.145697 0.18574 0.322548 0.34593 0.46875 0.53125 C 102.41188 458.34416 174.78822 496.375 256 496.375 c 84.05173 0 158.67815 -40.69764 205.125 -103.46875 L 453.5 386.4375 z"/>
  </clipPath>
 </defs>
 <path d="M 506 256 C 506 394.07118 394.07118 505.99999 256 505.99999 117.92882 505.99999 6.00001 394.07118 6.00001 256 6.00001 117.92883 117.92882 6.00001 256 6.00001 394.07118 6.00001 506 117.92883 506 256 z" fill="url(#3)" fill-rule="evenodd"/>
 <path d="m 255.21277 7.00778 c -98.41926 0 -183.10759 54.969899 -221.00222 133.90308 -30.931865 65.63282 -38.475307 131.99412 -9.14706 194.97568 34.66508 73.10742 124.97379 125.22629 230.92693 125.22629 106.95795 0 197.97577 -53.11561 231.90147 -127.3166 12.13293 -26.73369 17.35881 -53.62972 17.63772 -79.59809 C 506.05286 205.47829 489.16352 160.02351 467.8048 125.03137 426.67037 54.701522 346.88887 7.00778 255.21277 7.00778 z" fill="url(#2)" fill-rule="evenodd"/>
 <path d="m 255.30307 31.725365 c -88.12372 0 -163.95289 49.10909 -197.88339 119.62653 C 29.723564 209.98704 22.969231 269.273 49.22948 325.53955 80.26828 390.85236 161.12987 437.4144 255.99937 437.4144 c 95.76919 0 177.26571 -47.4525 207.64248 -113.7423 10.86372 -23.88339 15.54293 -47.91178 15.79266 -71.11146 0.46851 -43.52541 -14.65406 -84.13385 -33.77844 -115.39519 C 408.82465 74.33407 337.38902 31.725365 255.30307 31.725365 z" fill="url(#4)" fill-rule="evenodd"/>
 <path d="m 457.09375 389.92586 c -49.64993 50.93089 -121.6501 82.96875 -201.78125 82.96875 -77.14318 0 -146.73982 -29.68641 -196.125 -77.34375 45.76622 58.34435 116.9095 95.8125 196.8125 95.8125 82.43869 0 155.5545 -39.89298 201.09375 -101.4375 z" clip-path="url(#9)" fill-rule="evenodd" fill-opacity="0.8"/>
 <path d="m 457.09375 389.9183 c -49.64993 50.93089 -121.6501 82.96875 -201.78125 82.96875 -77.14318 0 -146.73982 -29.68641 -196.125 -77.34375 45.76622 58.34435 116.9095 95.8125 196.8125 95.8125 82.43869 0 155.5545 -39.89298 201.09375 -101.4375 z" clip-path="url(#9)" fill-rule="evenodd" fill="url(#7)"/>
 <path d="m 457.09375 389.9183 c -49.64993 50.93089 -121.6501 82.96875 -201.78125 82.96875 -77.14318 0 -146.73982 -29.68641 -196.125 -77.34375 45.76622 58.34435 116.9095 95.8125 196.8125 95.8125 82.43869 0 155.5545 -39.89298 201.09375 -101.4375 z" fill="url(#7)" filter="url(#8)" fill-rule="evenodd"/>
</svg>
