<?xml version="1.0" encoding="UTF-8" standalone="no"?>
<svg
   xmlns:dc="http://purl.org/dc/elements/1.1/"
   xmlns:cc="http://creativecommons.org/ns#"
   xmlns:rdf="http://www.w3.org/1999/02/22-rdf-syntax-ns#"
   xmlns:svg="http://www.w3.org/2000/svg"
   xmlns="http://www.w3.org/2000/svg"
   xmlns:sodipodi="http://sodipodi.sourceforge.net/DTD/sodipodi-0.dtd"
   xmlns:inkscape="http://www.inkscape.org/namespaces/inkscape"
   width="512"
   height="512"
   id="svg2"
   version="1.1"
   inkscape:version="0.48.4 r9939"
   sodipodi:docname="input-gaming.svg">
  <metadata
     id="metadata68">
    <rdf:RDF>
      <cc:Work
         rdf:about="">
        <dc:format>image/svg+xml</dc:format>
        <dc:type
           rdf:resource="http://purl.org/dc/dcmitype/StillImage" />
      </cc:Work>
    </rdf:RDF>
  </metadata>
  <defs
     id="defs66" />
  <sodipodi:namedview
     pagecolor="#ffffff"
     bordercolor="#666666"
     borderopacity="1"
     objecttolerance="10"
     gridtolerance="10"
     guidetolerance="10"
     inkscape:pageopacity="0"
     inkscape:pageshadow="2"
     inkscape:window-width="1309"
     inkscape:window-height="750"
     id="namedview64"
     showgrid="false"
     inkscape:zoom="1"
     inkscape:cx="344.84543"
     inkscape:cy="238.32552"
     inkscape:window-x="55"
     inkscape:window-y="-3"
     inkscape:window-maximized="1"
     inkscape:current-layer="svg2" />
  <path
     d="M 506,256 C 506,394.07118 394.07119,506.00001 255.99999,506.00001 117.92881,506.00001 6,394.07118 6,256 6,117.92882 117.92881,5.9999885 255.99999,5.9999885 394.07119,5.9999885 506,117.92882 506,256 z"
     id="path4"
     inkscape:connector-curvature="0"
     style="fill:#e75177;fill-rule:evenodd" />
  <text
     font-size="129.22583"
     letter-spacing="0"
     line-height="125%"
     word-spacing="0"
     x="729.6424"
     y="231.35828"
     font-family="Gentium Book Basic"
     id="text16">
    <tspan
       x="729.6424"
       y="231.35828"
       id="tspan18" />
  </text>
  <text
     x="378.90738"
     y="579.25208"
     font-size="46.954079"
     transform="scale(4.012836,0.24920031)"
     font-family="Arial"
     text-anchor="middle"
     id="text20" />
  <text
     font-size="129.22583"
     letter-spacing="0"
     line-height="125%"
     word-spacing="0"
     x="1310.9095"
     y="151.35626"
     font-family="Gentium Book Basic"
     id="text22">
    <tspan
       x="1310.9095"
       y="151.35626"
       id="tspan24" />
  </text>
  <text
     x="523.75934"
     y="258.21695"
     font-size="46.954079"
     transform="scale(4.012836,0.24920031)"
     font-family="Arial"
     text-anchor="middle"
     id="text26" />
  <text
     font-size="129.22583"
     letter-spacing="0"
     line-height="125%"
     word-spacing="0"
     x="239.33031"
     y="-29.900511"
     font-family="Gentium Book Basic"
     id="text28">
    <tspan
       x="239.33031"
       y="-29.900511"
       id="tspan30" />
  </text>
  <text
     x="256.72147"
     y="-469.13681"
     font-size="46.954079"
     transform="scale(4.012836,0.24920031)"
     font-family="Arial"
     text-anchor="middle"
     id="text32" />
  <text
     font-size="129.22583"
     letter-spacing="0"
     line-height="125%"
     word-spacing="0"
     x="1337.3806"
     y="-246.37442"
     font-family="Gentium Book Basic"
     id="text34">
    <tspan
       x="1337.3806"
       y="-246.37442"
       id="tspan36" />
  </text>
  <text
     x="530.35596"
     y="-1337.811"
     font-size="46.954079"
     transform="scale(4.012836,0.24920031)"
     font-family="Arial"
     text-anchor="middle"
     id="text38" />
  <text
     font-size="129.22583"
     letter-spacing="0"
     line-height="125%"
     word-spacing="0"
     x="1918.6478"
     y="-326.37643"
     font-family="Gentium Book Basic"
     id="text40">
    <tspan
       x="1918.6478"
       y="-326.37643"
       id="tspan42" />
  </text>
  <text
     x="675.20789"
     y="-1658.8459"
     font-size="46.954079"
     transform="scale(4.012836,0.24920031)"
     font-family="Arial"
     text-anchor="middle"
     id="text44" />
  <text
     font-size="129.22583"
     letter-spacing="0"
     line-height="125%"
     word-spacing="0"
     x="1529.527"
     y="-798.776"
     font-family="Gentium Book Basic"
     id="text46">
    <tspan
       x="1529.527"
       y="-798.776"
       id="tspan48" />
  </text>
  <text
     x="578.23883"
     y="-3554.5081"
     font-size="46.954079"
     transform="scale(4.012836,0.24920031)"
     font-family="Arial"
     text-anchor="middle"
     id="text50" />
  <text
     font-size="129.22583"
     letter-spacing="0"
     line-height="125%"
     word-spacing="0"
     x="2110.7942"
     y="-878.77802"
     font-family="Gentium Book Basic"
     id="text52">
    <tspan
       x="2110.7942"
       y="-878.77802"
       id="tspan54" />
  </text>
  <text
     x="723.09082"
     y="-3875.543"
     font-size="46.954079"
     transform="scale(4.012836,0.24920031)"
     font-family="Arial"
     text-anchor="middle"
     id="text56" />
  <text
     font-size="208.33334"
     letter-spacing="0"
     line-height="125%"
     word-spacing="0"
     x="277.98608"
     y="535.93591"
     font-family="Gentium Book Basic"
     id="text58">
    <tspan
       x="277.98608"
       y="535.93591"
       id="tspan60" />
  </text>
  <path
     style="fill:#ffffff;fill-rule:evenodd"
     d="m 151.41136,125.00122 c -2.39865,0.18784 -6.10727,1.73896 -7.79001,3.29884 C 77.889506,185.11121 43.415281,288.81749 93.105505,387 c 22.918045,-3.07333 18.661875,-1.30758 31.756225,-7.8695 65.21269,-56.23679 143.58624,-54.02856 199.36072,-36.60511 0.0127,0.004 0.0275,-0.004 0.0397,0 l 0,0.0397 c 21.46626,7.51547 42.75754,19.28412 62.79703,36.56536 13.09435,6.56193 8.83818,4.79617 31.75623,7.86951 11.13945,-22.01036 17.99817,-44.28374 21.26355,-66.25485 1.47892,-9.56675 2.28808,-18.83878 2.26546,-26.98683 -0.0102,-0.005 -0.0292,0.005 -0.0397,0 -0.001,-0.0668 0.001,-0.13186 0,-0.19872 -1.12131,-58.13177 -20.50374,-123.01497 -60.57132,-163.43128 -2.93463,-3.0318 -9.17608,-4.45145 -11.844,-4.45143 -97.92969,12.66378 -108.29626,16.58345 -218.04084,-0.67567 -0.1474,-6e-5 -0.27729,-0.0127 -0.4372,0 z m 208.38283,25.51627 c 7.82222,0 14.18893,6.32698 14.18895,14.1492 0,7.82222 -6.36673,14.14921 -14.18895,14.14921 -7.82223,-1e-5 -14.14922,-6.327 -14.14921,-14.14921 0,-7.82224 6.32698,-14.1492 14.14921,-14.1492 z M 161.3476,163.39486 c 22.55242,0 40.81807,18.26567 40.81807,40.81807 0,22.55241 -18.26565,40.85782 -40.81807,40.85782 -22.5524,0 -40.85781,-18.30541 -40.85782,-40.85782 1e-5,-22.5524 18.30542,-40.81807 40.85782,-40.81807 z m 166.45189,11.7645 c 7.21273,0 13.07609,5.82364 13.07609,13.03635 0,7.21269 -5.86339,13.07609 -13.07609,13.07609 -7.21285,-1e-5 -13.07608,-5.8634 -13.07609,-13.07609 10e-6,-7.21272 5.86327,-13.03635 13.07609,-13.03635 z m 51.86718,10.29395 c 12.49505,-10e-6 22.61488,10.15937 22.61488,22.65463 0,12.49525 -10.11971,22.61487 -22.61488,22.61488 -12.4955,0 -22.6149,-10.11963 -22.61489,-22.61488 0,-12.49526 10.11951,-22.65463 22.61489,-22.65463 z m -53.69545,26.11244 c 10.66669,0 19.31604,8.64939 19.31605,19.31605 -10e-6,10.66667 -8.64935,19.31605 -19.31605,19.31605 -10.66667,1e-5 -19.31605,-8.64938 -19.31605,-19.31605 0,-10.66666 8.64938,-19.31605 19.31605,-19.31605 z"
     id="path62"
     inkscape:connector-curvature="0"
     sodipodi:nodetypes="cccccccccccccccccsssssssssssssssssssssssss" />
</svg>
