<svg xmlns="http://www.w3.org/2000/svg" width="512" height="512">
 <path d="M 506 256 C 506 394.07118 394.07119 506.00001 255.99999 506.00001 117.92881 506.00001 6 394.07118 6 256 6 117.92882 117.92881 5.999989 255.99999 5.999989 394.07119 5.999989 506 117.92882 506 256 z" fill="#924565" fill-rule="evenodd"/>
 <text font-size="129.22583" letter-spacing="0" line-height="125%" word-spacing="0" x="729.6424" y="231.35828" font-family="Gentium Book Basic"><tspan x="729.6424" y="231.35828"/>
 </text>
 <text x="378.90738" y="579.25208" font-size="46.954079" transform="scale(4.012836,0.24920031)" font-family="Arial" text-anchor="middle"/>
 <text font-size="129.22583" letter-spacing="0" line-height="125%" word-spacing="0" x="1310.9095" y="151.35626" font-family="Gentium Book Basic"><tspan x="1310.9095" y="151.35626"/>
 </text>
 <text x="523.75934" y="258.21695" font-size="46.954079" transform="scale(4.012836,0.24920031)" font-family="Arial" text-anchor="middle"/>
 <text font-size="129.22583" letter-spacing="0" line-height="125%" word-spacing="0" x="239.33031" y="-29.900511" font-family="Gentium Book Basic"><tspan x="239.33031" y="-29.900511"/>
 </text>
 <text x="256.72147" y="-469.13681" font-size="46.954079" transform="scale(4.012836,0.24920031)" font-family="Arial" text-anchor="middle"/>
 <text font-size="129.22583" letter-spacing="0" line-height="125%" word-spacing="0" x="1337.3806" y="-246.37442" font-family="Gentium Book Basic"><tspan x="1337.3806" y="-246.37442"/>
 </text>
 <text x="530.35596" y="-1337.811" font-size="46.954079" transform="scale(4.012836,0.24920031)" font-family="Arial" text-anchor="middle"/>
 <text font-size="129.22583" letter-spacing="0" line-height="125%" word-spacing="0" x="1918.6478" y="-326.37643" font-family="Gentium Book Basic"><tspan x="1918.6478" y="-326.37643"/>
 </text>
 <text x="675.20789" y="-1658.8459" font-size="46.954079" transform="scale(4.012836,0.24920031)" font-family="Arial" text-anchor="middle"/>
 <text font-size="129.22583" letter-spacing="0" line-height="125%" word-spacing="0" x="1529.527" y="-798.776" font-family="Gentium Book Basic"><tspan x="1529.527" y="-798.776"/>
 </text>
 <text x="578.23883" y="-3554.5081" font-size="46.954079" transform="scale(4.012836,0.24920031)" font-family="Arial" text-anchor="middle"/>
 <text font-size="129.22583" letter-spacing="0" line-height="125%" word-spacing="0" x="2110.7942" y="-878.77802" font-family="Gentium Book Basic"><tspan x="2110.7942" y="-878.77802"/>
 </text>
 <text x="723.09082" y="-3875.543" font-size="46.954079" transform="scale(4.012836,0.24920031)" font-family="Arial" text-anchor="middle"/>
 <text font-size="208.33334" letter-spacing="0" line-height="125%" word-spacing="0" x="277.98608" y="535.93591" font-family="Gentium Book Basic"><tspan x="277.98608" y="535.93591"/>
 </text>
 <text x="-1984.2994" y="341.40955" font-family="Gentium Book Basic" word-spacing="0" line-height="125%" letter-spacing="0" font-size="208.33333"><tspan x="-1984.2994" y="341.40955"/>
 </text>
 <text x="-176.76218" y="807.13116" font-size="75.69771" transform="scale(4.0128362,0.2492003)" font-family="Arial" text-anchor="middle"/>
 <g transform="matrix(1.1774101,0,0,1.1774101,-578.23436,-70.730196)" fill="#fff">
  <path d="m 595.03551,281.46543 0,42.05448 c -2e-5,0.0378 10e-6,0.0748 -6e-5,0.1125 1.8e-4,62.67594 50.80087,113.47678 113.47688,113.47678 62.67581,0 113.50486,-50.80084 113.50486,-113.47678 2e-5,-0.0378 -10e-6,-0.0748 6e-5,-0.1125 l -3e-5,-42.05446 -226.98174,0 z" fill-rule="evenodd"/>
  <path d="m 691.95776,117.88896 c -54.82748,8.01298 -96.90803,55.21483 -96.90821,112.26719 l -5e-5,0.1125 0,42.05448 96.9082,0 -1e-5,-41.99822 c -5.80101,-3.69981 -9.64866,-10.16226 -9.64866,-17.58131 l 0,-47.9618 c 0,-7.41906 3.84766,-13.90963 9.64867,-17.60944 l 0,-29.28342 z m 33.13716,0 -10e-6,29.25529 c 5.81946,3.69622 9.67676,10.20448 9.67675,17.63757 l 10e-6,47.9618 c -10e-6,7.4331 -3.85729,13.91323 -9.67676,17.60944 l 0,41.9701 96.93638,-10e-6 0,-42.05448 6e-5,-0.1125 c 0,-57.04288 -42.11826,-104.24251 -96.93637,-112.26718 z" fill-rule="evenodd"/>
  <rect rx="10.356847" width="30.650425" height="52.40234" x="693.21509" y="162.55553" fill-rule="evenodd"/>
 </g>
</svg>
