<?xml version="1.0" encoding="UTF-8" standalone="no"?>
<svg
   xmlns:dc="http://purl.org/dc/elements/1.1/"
   xmlns:cc="http://creativecommons.org/ns#"
   xmlns:rdf="http://www.w3.org/1999/02/22-rdf-syntax-ns#"
   xmlns:svg="http://www.w3.org/2000/svg"
   xmlns="http://www.w3.org/2000/svg"
   xmlns:xlink="http://www.w3.org/1999/xlink"
   xmlns:sodipodi="http://sodipodi.sourceforge.net/DTD/sodipodi-0.dtd"
   xmlns:inkscape="http://www.inkscape.org/namespaces/inkscape"
   width="512"
   height="512"
   id="svg2"
   version="1.1"
   inkscape:version="0.48.4 r9939"
   sodipodi:docname="video-display.svg">
  <metadata
     id="metadata60">
    <rdf:RDF>
      <cc:Work
         rdf:about="">
        <dc:format>image/svg+xml</dc:format>
        <dc:type
           rdf:resource="http://purl.org/dc/dcmitype/StillImage" />
      </cc:Work>
    </rdf:RDF>
  </metadata>
  <sodipodi:namedview
     pagecolor="#ffffff"
     bordercolor="#666666"
     borderopacity="1"
     objecttolerance="10"
     gridtolerance="10"
     guidetolerance="10"
     inkscape:pageopacity="0"
     inkscape:pageshadow="2"
     inkscape:window-width="1309"
     inkscape:window-height="750"
     id="namedview58"
     showgrid="false"
     inkscape:zoom="1.0566406"
     inkscape:cx="282.97227"
     inkscape:cy="272.08872"
     inkscape:window-x="55"
     inkscape:window-y="-3"
     inkscape:window-maximized="1"
     inkscape:current-layer="svg2" />
  <defs
     id="defs4">
    <linearGradient
       id="0">
      <stop
         stop-color="#4d4d4d"
         id="stop7" />
      <stop
         offset="0.5"
         stop-color="#666"
         id="stop9" />
      <stop
         offset="1"
         stop-color="#4d4d4d"
         id="stop11" />
    </linearGradient>
    <linearGradient
       id="1">
      <stop
         stop-color="#575757"
         id="stop14" />
      <stop
         offset="0.5"
         stop-color="#959595"
         id="stop16" />
      <stop
         offset="1"
         stop-color="#575757"
         id="stop18" />
    </linearGradient>
    <linearGradient
       id="2">
      <stop
         stop-color="#0078ad"
         id="stop21" />
      <stop
         offset="1"
         stop-color="#228ebe"
         id="stop23" />
    </linearGradient>
    <linearGradient
       xlink:href="#2"
       id="3"
       x1="418.4509"
       y1="389.85352"
       x2="82.19235"
       y2="141.89787"
       gradientUnits="userSpaceOnUse" />
    <linearGradient
       xlink:href="#1"
       id="4"
       x1="-58.3549"
       x2="576.69458"
       gradientUnits="userSpaceOnUse" />
    <linearGradient
       xlink:href="#0"
       id="5"
       x1="-118.50756"
       x2="623.77966"
       gradientUnits="userSpaceOnUse" />
    <linearGradient
       inkscape:collect="always"
       xlink:href="#2"
       id="linearGradient13043"
       gradientUnits="userSpaceOnUse"
       x1="418.4509"
       y1="389.85352"
       x2="82.19235"
       y2="141.89787" />
  </defs>
  <path
     d="m 506 256.00004 c 0 138.07119 -111.92881 250 -250 250 -138.07119 0 -250 -111.92881 -250 -250 C 6 117.92886 117.92881 6.00005 256 6.00005 c 138.07119 0 250 111.92881 250 249.99999 z"
     fill="url(#5)"
     fill-rule="evenodd"
     id="path28" />
  <g
     id="g13028"
     transform="translate(0,-23.629277)">
    <rect
       id="rect30"
       ry="29.275129"
       rx="35.303619"
       y="135.01097"
       x="77.727997"
       height="267.40778"
       width="356.54401"
       style="fill:none;stroke:#fff8eb;stroke-width:20;stroke-opacity:0.07017499" />
    <rect
       id="rect32"
       ry="29.275129"
       rx="35.303619"
       y="135.02635"
       x="77.748497"
       height="267.37701"
       width="356.50299"
       style="fill:url(#linearGradient13043);fill-rule:evenodd" />
    <path
       id="path34"
       d="m 113.0625,135.03125 c -19.5582,0 -35.3125,13.06283 -35.3125,29.28125 l 0,208.8125 c 0,16.21842 15.7543,29.28125 35.3125,29.28125 l 57.6875,0 100.21875,-267.375 -157.90625,0 z"
       inkscape:connector-curvature="0"
       style="fill:#ffffff;fill-opacity:0.04858698" />
    <g
       id="g36"
       transform="translate(-628.87983,50.859407)">
      <path
         id="path38"
         d="m 884.87985,378.67838 c 7.57274,0 13.71165,6.13891 13.71165,13.71164 0,7.57274 -6.13891,13.71165 -13.71165,13.71165 -7.57273,0 -13.71164,-6.13891 -13.71164,-13.71165 0,-7.57273 6.13891,-13.71164 13.71164,-13.71164 z"
         inkscape:connector-curvature="0"
         style="color:#000000;fill-opacity:0.17844502" />
      <path
         id="path40"
         d="m 884.87985,385.5342 c 3.78637,0 6.85583,3.06949 6.85583,6.85582 0,3.78634 -3.06946,6.85583 -6.85583,6.85583 -3.78636,0 -6.85582,-3.06949 -6.85582,-6.85583 0,-3.78633 3.06946,-6.85582 6.85582,-6.85582 z"
         inkscape:connector-curvature="0"
         style="color:#000000;fill:#b2e5ff" />
      <path
         id="path42"
         d="m 843.74492,385.5342 c 3.78637,0 6.85582,3.06949 6.85582,6.85582 0,3.78634 -3.06945,6.85583 -6.85582,6.85583 -3.78636,0 -6.85583,-3.06949 -6.85583,-6.85583 0,-3.78633 3.06947,-6.85582 6.85583,-6.85582 z"
         inkscape:connector-curvature="0"
         style="color:#000000;fill-opacity:0.17844502" />
      <path
         id="path44"
         d="m 994.57301,385.5342 c 3.78637,0 6.85579,3.06949 6.85579,6.85582 0,3.78634 -3.06942,6.85583 -6.85579,6.85583 -3.78636,0 -6.85582,-3.06949 -6.85582,-6.85583 0,-3.78633 3.06946,-6.85582 6.85582,-6.85582 z"
         inkscape:connector-curvature="0"
         style="color:#000000;fill-opacity:0.17844502" />
      <path
         id="path46"
         d="m 809.4658,385.5342 c 3.78637,0 6.85583,3.06949 6.85583,6.85582 0,3.78634 -3.06946,6.85583 -6.85583,6.85583 -3.78636,0 -6.85582,-3.06949 -6.85582,-6.85583 0,-3.78633 3.06946,-6.85582 6.85582,-6.85582 z"
         inkscape:connector-curvature="0"
         style="color:#000000;fill-opacity:0.17844502" />
      <path
         id="path48"
         d="m 960.2939,385.5342 c 3.78637,0 6.85582,3.06949 6.85582,6.85582 0,3.78634 -3.06945,6.85583 -6.85582,6.85583 -3.78636,0 -6.85582,-3.06949 -6.85582,-6.85583 0,-3.78633 3.06946,-6.85582 6.85582,-6.85582 z"
         inkscape:connector-curvature="0"
         style="color:#000000;fill-opacity:0.17844502" />
      <path
         id="path50"
         d="m 775.18669,385.5342 c 3.78637,0 6.85582,3.06949 6.85582,6.85582 0,3.78634 -3.06945,6.85583 -6.85582,6.85583 -3.78636,0 -6.85582,-3.06949 -6.85582,-6.85583 0,-3.78633 3.06946,-6.85582 6.85582,-6.85582 z"
         inkscape:connector-curvature="0"
         style="color:#000000;fill-opacity:0.17844502" />
      <path
         id="path52"
         d="m 926.01479,385.5342 c 3.78637,0 6.85582,3.06949 6.85582,6.85582 0,3.78634 -3.06945,6.85583 -6.85582,6.85583 -3.78636,0 -6.85582,-3.06949 -6.85582,-6.85583 0,-3.78633 3.06946,-6.85582 6.85582,-6.85582 z"
         inkscape:connector-curvature="0"
         style="color:#000000;fill-opacity:0.17844502" />
    </g>
    <rect
       id="rect56"
       width="356.54401"
       height="267.40778"
       x="77.727997"
       y="135.01097"
       rx="35.303619"
       ry="29.275129"
       style="fill:none;stroke:#fff8eb;stroke-width:10;stroke-opacity:0.07017499" />
  </g>
</svg>
